<?xml version="1.0" encoding="UTF-8"?>
<!DOCTYPE svg PUBLIC "-//W3C//DTD SVG 1.1//EN" "http://www.w3.org/Graphics/SVG/1.1/DTD/svg11.dtd">
<!-- Creator: CorelDRAW -->
<svg xmlns="http://www.w3.org/2000/svg" xml:space="preserve" width="162.56mm" height="91.4399mm" version="1.1" style="shape-rendering:geometricPrecision; text-rendering:geometricPrecision; image-rendering:optimizeQuality; fill-rule:evenodd; clip-rule:evenodd"
viewBox="0 0 13722.81 7719.08"
 xmlns:xlink="http://www.w3.org/1999/xlink"
 xmlns:xodm="http://www.corel.com/coreldraw/odm/2003">
 <defs>
  <style type="text/css">
   <![CDATA[
    .fil1 {fill:none}
    .fil3 {fill:#FEFEFE}
    .fil2 {fill:#FEFEFE;fill-rule:nonzero}
    .fil0 {fill:url(#id1)}
   ]]>
  </style>
    <clipPath id="id0">
     <path d="M-0 0l13722.81 0 0 7719.08 -13722.81 0 0 -7719.08z"/>
    </clipPath>
  <linearGradient id="id1" gradientUnits="userSpaceOnUse" x1="6244.05" y1="-51.63" x2="7478.76" y2="7770.71">
   <stop offset="0" style="stop-opacity:1; stop-color:#0B6E45"/>
   <stop offset="1" style="stop-opacity:1; stop-color:#078F03"/>
  </linearGradient>
 </defs>
 <g id="Layer_x0020_1">
  <metadata id="CorelCorpID_0Corel-Layer"/>
  <g id="_2987910500960">
   <polygon class="fil0" points="-0,0 13722.81,0 13722.81,7719.08 -0,7719.08 "/>
   <g style="clip-path:url(#id0)">
    <g>
     <image x="-90.68" y="-4105.71" width="14206.33" height="14206.33" xlink:href="ENGRAVING EXPRESS WEBSITE LANDING PAGE DESIGN 2_Images\ENGRAVING EXPRESS WEBSITE LANDING PAGE DESIGN 2_ImgID1.png"/>
    </g>
   </g>
   <polygon class="fil1" points="-0,0 13722.81,0 13722.81,7719.08 -0,7719.08 "/>
   <path class="fil2" d="M2535 2076.68l-223.13 0 0 -144.2 211.25 0 0 -59.88 -211.25 0 0 -136.82 223.13 0 0 -62.09 -295.12 0 0 465.52 295.12 0 0 -62.53zm67.15 62.64l70.01 0 0 -202.1c0,-55.15 31.59,-91.91 84.65,-91.91 51.29,0 75.84,29.72 75.84,82.89l0 211.13 70.01 0 0 -224.34c0,-80.58 -44.14,-129.56 -121.64,-129.56 -54.26,0 -89.49,21.58 -110.85,62.86l-1.32 0 0 -59 -66.71 0 0 350.04zm519 -58.78c-56.8,0 -93.34,-45.36 -93.34,-116.9 0,-71.88 36.54,-118.23 93.34,-118.23 57.02,0 94.89,47.33 94.89,118.23 0,70.56 -37.87,116.9 -94.89,116.9zm0.34 184.92c101.38,0 163.9,-51.51 163.9,-134.95l0 -341.24 -67.37 0 0 58.12 -1.32 0c-21.69,-38.53 -62.53,-61.42 -112.39,-61.42 -90.04,0 -147.83,69.35 -147.83,177.33 0,106.66 58.45,175.35 146.18,175.35 49.87,0 91.36,-22.56 111.84,-60.32l1.54 0 0 57.68c0,45.68 -35.89,74.63 -91.69,74.63 -43.15,0 -75.85,-17.06 -83.67,-44.03l-70.34 0c6.72,59.88 66.49,98.84 151.14,98.84zm235.24 -126.14l70.01 0 0 -208.92c0,-49.21 28.96,-81.01 75.07,-81.01 13.87,0 26.2,1.87 31.93,4.18l0 -65.61c-5.5,-0.99 -14.2,-1.98 -24.44,-1.98 -41.28,0 -73.54,23.55 -84.54,62.41l-1.32 0 0 -59.11 -66.71 0 0 350.04zm336.72 -52.18c-40.4,0 -66.49,-19.37 -66.49,-49.54 0,-31.15 24.88,-48.98 72.65,-51.95l85.2 -5.83 0 27.62c0,46.34 -39.41,79.7 -91.36,79.7zm-18.72 55.48c47.77,0 91.36,-23.77 110.74,-61.64l1.65 0 0 58.34 66.37 0 0 -240.41c0,-69.35 -54.81,-114.26 -140.34,-114.26 -78.81,0 -137.49,45.58 -139.47,107.44l65.49 0c6.16,-30.27 33.9,-49.97 71.99,-49.97 46.89,0 73.65,21.91 73.65,61.97l0 27.08 -94.56 5.5c-86.53,5.39 -133.97,40.62 -133.97,102.04 0,62.85 48.44,103.91 118.45,103.91zm546.09 -353.34l-72.54 0 -89.6 281.35 -1.65 0 -89.27 -281.35 -73.86 0 126.37 350.04 74.52 0 126.03 -350.04zm44.69 350.04l70.01 0 0 -350.04 -70.01 0 0 350.04zm35 -400.02c22.57,0 40.95,-18.06 40.95,-40.29 0,-22.89 -18.38,-40.28 -40.95,-40.28 -22.56,0 -40.94,17.39 -40.94,40.28 0,22.24 18.38,40.29 40.94,40.29zm109.09 400.02l70.01 0 0 -202.1c0,-55.15 31.59,-91.91 84.65,-91.91 51.29,0 75.84,29.72 75.84,82.89l0 211.13 70.01 0 0 -224.34c0,-80.58 -44.14,-129.56 -121.64,-129.56 -54.26,0 -89.49,21.58 -110.85,62.86l-1.32 0 0 -59 -66.71 0 0 350.04zm519 -58.78c-56.8,0 -93.34,-45.36 -93.34,-116.9 0,-71.88 36.54,-118.23 93.34,-118.23 57.02,0 94.89,47.33 94.89,118.23 0,70.56 -37.87,116.9 -94.89,116.9zm0.34 184.92c101.38,0 163.9,-51.51 163.9,-134.95l0 -341.24 -67.37 0 0 58.12 -1.32 0c-21.69,-38.53 -62.53,-61.42 -112.39,-61.42 -90.04,0 -147.83,69.35 -147.83,177.33 0,106.66 58.45,175.35 146.18,175.35 49.87,0 91.36,-22.56 111.84,-60.32l1.54 0 0 57.68c0,45.68 -35.89,74.63 -91.69,74.63 -43.15,0 -75.85,-17.06 -83.67,-44.03l-70.34 0c6.72,59.88 66.49,98.84 151.14,98.84zm659.8 -477.18l3.19 0 100.61 351.03 68.03 0 125.82 -465.63 -75.18 0 -86.08 364.58 -2.53 0 -98.73 -364.58 -67.04 0 -98.4 364.58 -2.53 0 -86.08 -364.58 -75.18 0 125.49 465.63 68.36 0 100.28 -351.03zm350.48 351.03l70.01 0 0 -350.04 -70.01 0 0 350.04zm35 -400.02c22.57,0 40.95,-18.06 40.95,-40.29 0,-22.89 -18.38,-40.28 -40.95,-40.28 -22.56,0 -40.94,17.39 -40.94,40.28 0,22.24 18.38,40.29 40.94,40.29zm130.22 -28.62l0 78.59 -48.32 0 0 54.82 48.32 0 0 202.98c0,67.58 26.97,94.23 96.76,94.23 15.09,0 31.6,-1.65 39.3,-3.53l0 -54.81c-4.51,0.66 -16.39,1.54 -23.88,1.54 -29.28,0 -42.82,-14.2 -42.82,-44.47l0 -195.93 67.04 0 0 -54.82 -67.04 0 0 -78.59 -69.35 0zm198.91 428.64l69.9 0 0 -200.45c0,-56.14 32.91,-93.57 87.3,-93.57 51.18,0 77.28,31.59 77.28,83.88l0 210.14 70.01 0 0 -223.68c0,-79.03 -46.13,-130.22 -123.07,-130.22 -53.5,0 -89.6,21.58 -110.51,62.86l-1.54 0 0 -195.16 -69.35 0 0 486.21zm524.41 3.96c101.82,0 165.67,-69.01 165.67,-179.2 0,-110.08 -64.18,-179.43 -165.67,-179.43 -101.38,0 -165.89,69.68 -165.89,179.43 0,110.19 64.17,179.2 165.89,179.2zm0 -58.12c-59.56,0 -95.21,-44.69 -95.21,-121.08 0,-75.96 35.66,-121.31 95.21,-121.31 59.66,0 94.99,45.02 94.99,121.31 0,76.39 -35.34,121.08 -94.99,121.08zm520 -295.88l-70.01 0 0 201.99c0,55.48 -31.81,91.91 -83.99,91.91 -50.41,0 -75.84,-28.63 -75.84,-82.56l0 -211.35 -70.02 0 0 224.56c0,80.36 46.45,129.44 122.74,129.44 53.39,0 88.83,-22.24 109.08,-63.62l1.32 0 0 59.66 66.71 0 0 -350.04zm92.79 -78.59l0 78.59 -48.32 0 0 54.82 48.32 0 0 202.98c0,67.58 26.97,94.23 96.76,94.23 15.09,0 31.6,-1.65 39.3,-3.53l0 -54.81c-4.51,0.66 -16.39,1.54 -23.88,1.54 -29.28,0 -42.82,-14.2 -42.82,-44.47l0 -195.93 67.04 0 0 -54.82 -67.04 0 0 -78.59 -69.35 0zm551.16 436.45c107.11,0 179.98,-56.47 197.7,-152.68l-71.88 0c-14.53,56.25 -60.65,89.49 -125.49,89.49 -85.42,0 -139.68,-68.8 -139.68,-177.66 0,-107.77 54.82,-177.22 139.36,-177.22 63.19,0 112.83,39.08 125.82,98.85l71.55 0c-12.22,-97.2 -91.91,-162.04 -197.37,-162.04 -130,0 -213.11,92.91 -213.11,240.41 0,148.61 82.56,240.85 213.11,240.85zm405.96 -3.86c101.82,0 165.67,-69.01 165.67,-179.2 0,-110.08 -64.18,-179.43 -165.67,-179.43 -101.38,0 -165.89,69.68 -165.89,179.43 0,110.19 64.17,179.2 165.89,179.2zm0 -58.12c-59.56,0 -95.21,-44.69 -95.21,-121.08 0,-75.96 35.66,-121.31 95.21,-121.31 59.66,0 94.99,45.02 94.99,121.31 0,76.39 -35.34,121.08 -94.99,121.08zm221.48 54.16l70.01 0 0 -214.65c0,-45.8 30.93,-79.37 74.19,-79.37 41.06,0 67.15,25.87 67.15,66.49l0 227.53 68.69 0 0 -217.29c0,-44.8 30.38,-76.73 73.42,-76.73 43.7,0 68.58,26.53 68.58,72.21l0 221.81 69.35 0 0 -238.54c0,-69.9 -44.91,-115.36 -113.93,-115.36 -50.19,0 -91.58,25.76 -109.97,68.03l-1.65 0c-14.2,-43.59 -49.32,-68.03 -98.08,-68.03 -45.79,0 -83.55,23.78 -99.73,63.19l-1.32 0 0 -59.33 -66.71 0 0 350.04zm742.13 -353.34c-48.88,0 -92.24,23.88 -111.95,61.64l-1.65 0 0 -58.34 -67.36 0 0 465.85 70.01 0 0 -173.49 1.22 0c21.02,38.64 60.86,60.98 111.29,60.98 88.27,0 146.4,-70.34 146.4,-178.54 0,-108.1 -58.45,-178.1 -147.94,-178.1zm-17.83 297.21c-55.93,0 -93.46,-47.55 -93.79,-118.88 0.33,-71 38.09,-118.88 93.79,-118.88 56.91,0 94.45,46.89 94.45,118.88 0,72.32 -37.54,118.88 -94.45,118.88zm221.26 56.14l70.01 0 0 -208.92c0,-49.21 28.96,-81.01 75.07,-81.01 13.87,0 26.2,1.87 31.93,4.18l0 -65.61c-5.5,-0.99 -14.2,-1.98 -24.44,-1.98 -41.28,0 -73.54,23.55 -84.54,62.41l-1.32 0 0 -59.11 -66.71 0 0 350.04zm357.42 3.96c101.82,0 165.67,-69.01 165.67,-179.2 0,-110.08 -64.18,-179.43 -165.67,-179.43 -101.38,0 -165.89,69.68 -165.89,179.43 0,110.19 64.17,179.2 165.89,179.2zm0 -58.12c-59.56,0 -95.21,-44.69 -95.21,-121.08 0,-75.96 35.66,-121.31 95.21,-121.31 59.66,0 94.99,45.02 94.99,121.31 0,76.39 -35.34,121.08 -94.99,121.08zm221.48 54.16l70.01 0 0 -214.65c0,-45.8 30.93,-79.37 74.19,-79.37 41.06,0 67.15,25.87 67.15,66.49l0 227.53 68.69 0 0 -217.29c0,-44.8 30.38,-76.73 73.42,-76.73 43.7,0 68.58,26.53 68.58,72.21l0 221.81 69.35 0 0 -238.54c0,-69.9 -44.91,-115.36 -113.93,-115.36 -50.19,0 -91.58,25.76 -109.97,68.03l-1.65 0c-14.2,-43.59 -49.32,-68.03 -98.08,-68.03 -45.79,0 -83.55,23.78 -99.73,63.19l-1.32 0 0 -59.33 -66.71 0 0 350.04zm563.81 0l70.01 0 0 -350.04 -70.01 0 0 350.04zm35 -400.02c22.57,0 40.95,-18.06 40.95,-40.29 0,-22.89 -18.38,-40.28 -40.95,-40.28 -22.56,0 -40.94,17.39 -40.94,40.28 0,22.24 18.38,40.29 40.94,40.29zm103.15 149.92c0,48.21 31.26,80.36 94.56,95.76l62.74 15.41c36.88,9.35 50.75,20.91 50.75,43.15 0,28.3 -27.41,46.24 -71.11,46.24 -44.69,0 -71.88,-18.27 -77.28,-51.73l-69.02 0c5.17,63.07 60.87,105.23 142.66,105.23 85.08,0 144.09,-43.15 144.09,-105.56 0,-51.4 -25.98,-76.83 -96.54,-93.89l-58.23 -13.76c-37.21,-9.03 -54.6,-23.45 -54.6,-44.7 0,-27.62 26.53,-46.01 66.27,-46.01 40.18,0 67.04,19.26 69.9,50.19l65.5 0c-1.65,-60.87 -56.8,-104.14 -133.74,-104.14 -80.8,0 -135.95,42.28 -135.95,103.81zm480.15 -47.77c51.08,0 85.64,36.32 87.19,91.15l-177.99 0c3.85,-54.16 40.39,-91.15 90.81,-91.15zm86.86 195.27c-9.69,30.49 -41.61,49.76 -82.34,49.76 -57.57,0 -95.65,-39.84 -95.65,-100.17l0 -4.19 248.33 0 0 -24.43c0,-106.56 -60.65,-173.05 -156.86,-173.05 -98.3,0 -162.15,71 -162.15,181.07 0,109.2 63.19,177.55 165.01,177.55 78.81,0 140.45,-43.91 150.36,-106.55l-66.71 0z"/>
   <path class="fil2" d="M4971.42 1139.81l0 222.72 20.85 0 0 -83.79 57.99 0c42.55,0 71.57,-28.12 71.57,-69.52 0,-41.45 -28.91,-69.41 -71.41,-69.41l-79 0zm20.85 18.85l53.19 0c34.49,0 54.88,18.86 54.88,50.56 0,31.66 -20.54,50.67 -54.88,50.67l-53.19 0 0 -101.22zm187.29 203.87l20.23 0 0 -103.17c0,-26.85 15.11,-45.34 38.71,-45.34 7.11,0 12.96,1.06 15.74,2.31l0 -20.01c-2.63,-0.95 -7.58,-1.9 -12.95,-1.9 -20.7,0 -36.44,11.59 -42.13,31.28l-0.63 0 0 -29.39 -18.96 0 0 166.21zm181.97 -150.09c30.07,0 50.46,22.23 50.72,55.35l-103.33 0c1.84,-33.13 22.8,-55.35 52.61,-55.35zm49.66 103.06c-4.95,18.28 -22.7,30.91 -47.66,30.91 -33.02,0 -54.61,-23.17 -54.61,-60.88l0 -1.11 124.5 0 0 -8.96c0,-49.45 -27.97,-81.05 -71.63,-81.05 -44.71,0 -74.04,33.76 -74.04,85.37 0,52.41 29.33,84.64 75.31,84.64 36.08,0 63.3,-20.49 68.2,-48.93l-20.07 0zm213.26 -66.83c-4.01,-29.33 -29.5,-54.2 -68.36,-54.2 -45.03,0 -74.36,33.5 -74.36,84.95 0,52.51 29.49,85.01 74.68,85.01 36.71,0 63.41,-21.7 68.2,-53.04l-20.22 0c-4.79,21.75 -22.54,34.71 -47.98,34.71 -32.54,0 -54.14,-25.44 -54.14,-66.68 0,-40.44 21.43,-66.72 53.98,-66.72 26.54,0 43.97,15.59 47.97,35.97l20.23 0zm56.57 113.86l20.23 0 0 -166.21 -20.23 0 0 166.21zm10.01 -199.07c7.53,0 13.69,-6.32 13.69,-13.69 0,-7.64 -6.16,-13.8 -13.69,-13.8 -7.48,0 -13.8,6.16 -13.8,13.8 0,7.37 6.32,13.69 13.8,13.69zm73.27 77.63c0,21.96 14.22,35.55 42.93,42.82l28.12 7.11c22.54,5.53 31.02,13.27 31.02,27.33 0,17.58 -17.27,29.01 -42.13,29.01 -25.17,0 -41.66,-12.48 -44.13,-31.49l-20.54 0c2.31,28.28 27.76,48.56 63.46,48.56 37.35,0 63.89,-19.38 63.89,-47.45 0,-23.65 -12.59,-35.71 -45.82,-44.03l-25.49 -6.21c-21.22,-5.22 -31.07,-13.12 -31.07,-26.7 0,-16.86 16.64,-28.28 38.92,-28.28 23.49,0 38.76,12.53 40.76,31.34l19.48 0c-1.68,-28.55 -25.96,-48.62 -59.62,-48.62 -34.33,0 -59.78,19.12 -59.78,46.62zm181.02 121.44l20.23 0 0 -166.21 -20.23 0 0 166.21zm10.01 -199.07c7.53,0 13.69,-6.32 13.69,-13.69 0,-7.64 -6.16,-13.8 -13.69,-13.8 -7.48,0 -13.8,6.16 -13.8,13.8 0,7.37 6.32,13.69 13.8,13.69zm143.84 200.97c45.77,0 75.42,-33.13 75.42,-85.01 0,-51.87 -29.65,-84.95 -75.42,-84.95 -45.82,0 -75.31,33.07 -75.31,84.95 0,51.87 29.49,85.01 75.31,85.01zm0 -18.33c-33.76,0 -54.77,-25.18 -54.77,-66.68 0,-41.39 21.01,-66.72 54.77,-66.72 33.87,0 54.88,25.17 54.88,66.72 0,41.5 -21.01,66.68 -54.88,66.68zm132.15 16.43l20.23 0 0 -97.7c0,-31.01 18.85,-52.14 48.56,-52.14 28.28,0 44.34,16.8 44.34,46.13l0 103.7 20.22 0 0 -106.96c0,-37.6 -22.22,-61.09 -58.87,-61.09 -26.91,0 -45.61,12.22 -54.88,32.86l-0.63 0 0 -31.01 -18.96 0 0 166.21zm360.18 3.48c48.29,0 82.42,-26.07 90.27,-69.42l-21.11 0c-6.64,30.86 -33.5,49.82 -68.99,49.82 -47.34,0 -77.73,-37.19 -77.73,-95.8 0,-57.88 30.39,-94.75 77.57,-94.75 34.6,0 62.99,22.49 69.15,54.62l21.11 0c-6,-43.5 -43.18,-74.2 -90.27,-74.2 -60.46,0 -99.06,44.56 -99.06,114.33 0,70.51 38.45,115.39 99.06,115.39zm146.95 -3.48l20.23 0 0 -103.17c0,-26.85 15.11,-45.34 38.71,-45.34 7.11,0 12.96,1.06 15.74,2.31l0 -20.01c-2.63,-0.95 -7.58,-1.9 -12.95,-1.9 -20.7,0 -36.44,11.59 -42.13,31.28l-0.63 0 0 -29.39 -18.96 0 0 166.21zm173.02 -16.06c-23.12,0 -38.87,-12.16 -38.87,-30.07 0,-18.7 14.81,-29.5 42.71,-31.34l48.61 -3.37 0 18.33c0,26.23 -22.64,46.45 -52.45,46.45zm-4.01 17.9c25.44,0 47.98,-13.43 56.93,-33.65l0.48 0 0 31.81 19.27 0 0 -113.28c0,-33.45 -24.07,-54.78 -62.2,-54.78 -34.86,0 -60.93,20.7 -62.56,49.87l19.37 0c3.69,-19.75 19.91,-31.65 43.03,-31.65 26.86,0 42.13,14.06 42.13,38.29l0 14.17 -51.08 3.42c-39.82,2.74 -60.78,19.28 -60.78,47.66 0,28.7 22.23,48.13 55.4,48.13zm148.95 -1.84l20.54 0 0 -149.15 33.76 0 0 -17.06 -33.76 0 0 -18.7c0.16,-17.85 7.38,-24.96 22.23,-24.96 4.16,0 8.64,0.47 12.01,1.27l0 -17.33c-4.16,-0.89 -8.64,-1.37 -13.75,-1.37 -27.6,0 -41.03,12.85 -41.03,42.08l0 19.01 -23.11 0 0 17.06 23.11 0 0 149.15zm120.89 -205.97l0 39.76 -23.75 0 0 17.06 23.75 0 0 108.23c0,29.91 11,41.81 38.39,41.81 4.31,0 13.27,-0.47 15.43,-1.06l0 -17.48c-1.22,0.16 -9.22,0.63 -11.38,0.63 -15.43,0 -22.23,-7.43 -22.23,-24.7l0 -107.44 32.86 0 0 -17.06 -32.86 0 0 -39.76 -20.22 0zm107.76 84.53c0,21.96 14.22,35.55 42.93,42.82l28.12 7.11c22.54,5.53 31.02,13.27 31.02,27.33 0,17.58 -17.27,29.01 -42.13,29.01 -25.17,0 -41.66,-12.48 -44.13,-31.49l-20.54 0c2.31,28.28 27.76,48.56 63.46,48.56 37.35,0 63.89,-19.38 63.89,-47.45 0,-23.65 -12.59,-35.71 -45.82,-44.03l-25.49 -6.21c-21.22,-5.22 -31.07,-13.12 -31.07,-26.7 0,-16.86 16.64,-28.28 38.92,-28.28 23.49,0 38.76,12.53 40.76,31.34l19.48 0c-1.68,-28.55 -25.96,-48.62 -59.62,-48.62 -34.33,0 -59.78,19.12 -59.78,46.62zm179.45 121.44l20.23 0 0 -101.38c0,-28.55 17.8,-48.46 42.61,-48.46 22.96,0 38.6,15.9 38.6,39.66l0 110.17 20.22 0 0 -103.86c0,-26.85 17.28,-45.97 42.13,-45.97 24.44,0 38.76,15.74 38.76,41.66l0 108.17 20.54 0 0 -112.81c0,-33.6 -21.27,-55.25 -53.71,-55.25 -25.02,0 -44.82,14.38 -52.62,34.86l-0.47 0c-6.26,-20.96 -23.81,-34.86 -48.03,-34.86 -23.7,0 -41.55,13.28 -48.66,32.86l-0.63 0 0 -31.01 -18.96 0 0 166.21zm339.97 -16.06c-23.12,0 -38.87,-12.16 -38.87,-30.07 0,-18.7 14.81,-29.5 42.71,-31.34l48.61 -3.37 0 18.33c0,26.23 -22.64,46.45 -52.45,46.45zm-4.01 17.9c25.44,0 47.98,-13.43 56.93,-33.65l0.48 0 0 31.81 19.27 0 0 -113.28c0,-33.45 -24.07,-54.78 -62.2,-54.78 -34.86,0 -60.93,20.7 -62.56,49.87l19.37 0c3.69,-19.75 19.91,-31.65 43.03,-31.65 26.86,0 42.13,14.06 42.13,38.29l0 14.17 -51.08 3.42c-39.82,2.74 -60.78,19.28 -60.78,47.66 0,28.7 22.23,48.13 55.4,48.13zm140.74 -1.84l20.23 0 0 -97.7c0,-31.01 18.85,-52.14 48.56,-52.14 28.28,0 44.34,16.8 44.34,46.13l0 103.7 20.22 0 0 -106.96c0,-37.6 -22.22,-61.09 -58.87,-61.09 -26.91,0 -45.61,12.22 -54.88,32.86l-0.63 0 0 -31.01 -18.96 0 0 166.21zm193.92 -121.44c0,21.96 14.22,35.55 42.93,42.82l28.12 7.11c22.54,5.53 31.02,13.27 31.02,27.33 0,17.58 -17.27,29.01 -42.13,29.01 -25.17,0 -41.66,-12.48 -44.13,-31.49l-20.54 0c2.31,28.28 27.76,48.56 63.46,48.56 37.35,0 63.89,-19.38 63.89,-47.45 0,-23.65 -12.59,-35.71 -45.82,-44.03l-25.49 -6.21c-21.22,-5.22 -31.07,-13.12 -31.07,-26.7 0,-16.86 16.64,-28.28 38.92,-28.28 23.49,0 38.76,12.53 40.76,31.34l19.48 0c-1.68,-28.55 -25.96,-48.62 -59.62,-48.62 -34.33,0 -59.78,19.12 -59.78,46.62zm181.02 121.44l20.23 0 0 -96.9c0,-31.66 19.59,-52.93 49.71,-52.93 28.44,0 44.77,17.59 44.77,46.61l0 103.23 20.23 0 0 -106.49c0,-37.18 -22.81,-61.57 -59.3,-61.57 -26.7,0 -45.71,12.22 -54.98,32.86l-0.42 0 0 -97.21 -20.23 0 0 232.41zm200.62 0l20.23 0 0 -166.21 -20.23 0 0 166.21zm10.01 -199.07c7.53,0 13.69,-6.32 13.69,-13.69 0,-7.64 -6.16,-13.8 -13.69,-13.8 -7.48,0 -13.8,6.16 -13.8,13.8 0,7.37 6.32,13.69 13.8,13.69zm154 31.01c-26.44,0 -48.87,15.12 -57.67,36.29l-0.47 0 0 -34.44 -19.12 0 0 221.19 20.23 0 0 -89.16 0.42 0c9.32,21.59 30.17,36.08 56.93,36.08 41.92,0 70.3,-34.24 70.3,-85.01 0,-50.66 -28.54,-84.95 -70.62,-84.95zm-3.53 151.63c-31.7,0 -53.66,-27.02 -53.66,-66.68 0,-39.39 21.97,-66.72 53.66,-66.72 32.13,0 53.61,26.86 53.61,66.88 0,39.97 -21.48,66.52 -53.61,66.52z"/>
   <rect class="fil3" x="4958" y="1427.93" width="3806.81" height="14.82"/>
   <path class="fil2" d="M2865.49 7032.47l0 187.38 17.54 0 0 -70.5 48.78 0c35.8,0 60.21,-23.66 60.21,-58.48 0,-34.87 -24.32,-58.4 -60.08,-58.4l-66.46 0zm17.54 15.86l44.75 0c29.02,0 46.18,15.86 46.18,42.54 0,26.63 -17.28,42.62 -46.18,42.62l-44.75 0 0 -85.16zm133.9 171.52l17.01 0 0 -86.8c0,-22.6 12.72,-38.16 32.57,-38.16 5.99,0 10.9,0.89 13.25,1.95l0 -16.83c-2.21,-0.8 -6.37,-1.6 -10.9,-1.6 -17.42,0 -30.66,9.74 -35.45,26.32l-0.53 0 0 -24.73 -15.95 0 0 139.84zm129.42 -126.28c25.3,0 42.45,18.7 42.67,46.56l-86.93 0c1.55,-27.87 19.19,-46.56 44.26,-46.56zm41.79 86.71c-4.16,15.37 -19.1,26.01 -40.1,26.01 -27.78,0 -45.95,-19.5 -45.95,-51.22l0 -0.93 104.74 0 0 -7.53c0,-41.61 -23.53,-68.19 -60.26,-68.19 -37.62,0 -62.3,28.4 -62.3,71.82 0,44.09 24.68,71.21 63.36,71.21 30.35,0 53.26,-17.24 57.38,-41.16l-16.88 0zm42.59 39.57l17.01 0 0 -85.29c0,-24.02 14.98,-40.76 35.84,-40.76 19.32,0 32.48,13.38 32.48,33.36l0 92.7 17.01 0 0 -87.38c0,-22.6 14.54,-38.68 35.45,-38.68 20.56,0 32.62,13.25 32.62,35.05l0 91.01 17.28 0 0 -94.91c0,-28.27 -17.9,-46.48 -45.2,-46.48 -21.05,0 -37.71,12.1 -44.27,29.33l-0.4 0c-5.28,-17.63 -20.02,-29.33 -40.41,-29.33 -19.94,0 -34.96,11.17 -40.94,27.65l-0.53 0 0 -26.09 -15.95 0 0 139.84zm219.02 0l17.02 0 0 -139.84 -17.02 0 0 139.84zm8.42 -167.49c6.34,0 11.52,-5.31 11.52,-11.51 0,-6.42 -5.18,-11.61 -11.52,-11.61 -6.29,0 -11.61,5.18 -11.61,11.61 0,6.2 5.32,11.51 11.61,11.51zm152.56 27.65l-17.28 0 0 82.24c0,26.49 -16.62,43.77 -41.12,43.77 -23.66,0 -37.04,-13.73 -37.04,-38.68l0 -87.33 -17.02 0 0 90.17c0,31.59 18.7,51.27 49.27,51.27 22.11,0 38.9,-10.64 46.56,-27.74l0.41 0 0 26.14 16.22 0 0 -139.84zm30.75 139.84l17.01 0 0 -85.29c0,-24.02 14.98,-40.76 35.84,-40.76 19.32,0 32.48,13.38 32.48,33.36l0 92.7 17.01 0 0 -87.38c0,-22.6 14.54,-38.68 35.45,-38.68 20.56,0 32.62,13.25 32.62,35.05l0 91.01 17.28 0 0 -94.91c0,-28.27 -17.9,-46.48 -45.2,-46.48 -21.05,0 -37.71,12.1 -44.27,29.33l-0.4 0c-5.28,-17.63 -20.02,-29.33 -40.41,-29.33 -19.94,0 -34.96,11.17 -40.94,27.65l-0.53 0 0 -26.09 -15.95 0 0 139.84zm277.95 0l17.02 0 0 -195.49 -17.02 0 0 195.49zm93.97 -13.52c-19.45,0 -32.69,-10.23 -32.69,-25.3 0,-15.73 12.45,-24.81 35.94,-26.36l40.89 -2.84 0 15.42c0,22.07 -19.05,39.08 -44.13,39.08zm-3.36 15.07c21.4,0 40.36,-11.3 47.89,-28.31l0.41 0 0 26.76 16.22 0 0 -95.31c0,-28.14 -20.25,-46.08 -52.33,-46.08 -29.33,0 -51.27,17.42 -52.64,41.96l16.31 0c3.1,-16.62 16.75,-26.63 36.2,-26.63 22.6,0 35.45,11.84 35.45,32.21l0 11.92 -42.98 2.88c-33.5,2.3 -51.13,16.22 -51.13,40.1 0,24.15 18.7,40.5 46.62,40.5zm91.8 -103.73c0,18.48 11.96,29.91 36.11,36.02l23.66 5.99c18.96,4.65 26.09,11.17 26.09,23 0,14.8 -14.53,24.41 -35.45,24.41 -21.18,0 -35.04,-10.5 -37.13,-26.49l-17.28 0c1.95,23.79 23.35,40.85 53.39,40.85 31.41,0 53.74,-16.31 53.74,-39.92 0,-19.9 -10.59,-30.04 -38.54,-37.04l-21.44 -5.23c-17.86,-4.38 -26.14,-11.03 -26.14,-22.46 0,-14.17 14,-23.79 32.75,-23.79 19.76,0 32.61,10.54 34.29,26.36l16.39 0c-1.42,-24.02 -21.84,-40.9 -50.15,-40.9 -28.9,0 -50.3,16.08 -50.3,39.21zm182.46 -24.1c25.3,0 42.45,18.7 42.67,46.56l-86.93 0c1.55,-27.87 19.19,-46.56 44.26,-46.56zm41.79 86.71c-4.16,15.37 -19.1,26.01 -40.1,26.01 -27.78,0 -45.95,-19.5 -45.95,-51.22l0 -0.93 104.74 0 0 -7.53c0,-41.61 -23.53,-68.19 -60.26,-68.19 -37.62,0 -62.3,28.4 -62.3,71.82 0,44.09 24.68,71.21 63.36,71.21 30.35,0 53.26,-17.24 57.38,-41.16l-16.88 0zm42.59 39.57l17.01 0 0 -86.8c0,-22.6 12.72,-38.16 32.57,-38.16 5.99,0 10.9,0.89 13.25,1.95l0 -16.83c-2.21,-0.8 -6.37,-1.6 -10.9,-1.6 -17.42,0 -30.66,9.74 -35.45,26.32l-0.53 0 0 -24.73 -15.95 0 0 139.84zm196.37 -126.28c25.3,0 42.45,18.7 42.67,46.56l-86.93 0c1.55,-27.87 19.19,-46.56 44.26,-46.56zm41.79 86.71c-4.16,15.37 -19.1,26.01 -40.1,26.01 -27.78,0 -45.95,-19.5 -45.95,-51.22l0 -0.93 104.74 0 0 -7.53c0,-41.61 -23.53,-68.19 -60.26,-68.19 -37.62,0 -62.3,28.4 -62.3,71.82 0,44.09 24.68,71.21 63.36,71.21 30.35,0 53.26,-17.24 57.38,-41.16l-16.88 0zm42.59 39.57l17.01 0 0 -82.2c0,-26.09 15.86,-43.86 40.86,-43.86 23.79,0 37.3,14.13 37.3,38.81l0 87.24 17.02 0 0 -89.99c0,-31.64 -18.7,-51.4 -49.54,-51.4 -22.64,0 -38.37,10.28 -46.17,27.65l-0.53 0 0 -26.09 -15.95 0 0 139.84zm197.39 -14.89c-26.8,0 -44.61,-22.02 -44.61,-55.39 0,-33.45 17.81,-55.78 44.61,-55.78 27.03,0 45.51,22.68 45.51,55.78 0,32.84 -18.48,55.39 -45.51,55.39zm1.16 63.5c37.48,0 61.36,-19.23 61.36,-51.31l0 -137.14 -16.22 0 0 28.93 -0.26 0c-8.2,-18.25 -26.28,-30.48 -48.65,-30.48 -35.67,0 -59.29,28.45 -59.29,71.11 0,42.32 23.61,70.81 58.88,70.81 22.38,0 40.33,-12.32 48.17,-30.31l0.35 0 0 28.36c0,21.58 -17.28,34.96 -43.29,34.96 -20.96,0 -36.2,-8.32 -39.57,-20.83l-17.77 0c3.45,21.49 25.3,35.89 56.27,35.89zm92.39 -48.61l17.01 0 0 -86.8c0,-22.6 12.72,-38.16 32.57,-38.16 5.99,0 10.9,0.89 13.25,1.95l0 -16.83c-2.21,-0.8 -6.37,-1.6 -10.9,-1.6 -17.42,0 -30.66,9.74 -35.45,26.32l-0.53 0 0 -24.73 -15.95 0 0 139.84zm121.89 -13.52c-19.45,0 -32.69,-10.23 -32.69,-25.3 0,-15.73 12.45,-24.81 35.94,-26.36l40.89 -2.84 0 15.42c0,22.07 -19.05,39.08 -44.13,39.08zm-3.36 15.07c21.4,0 40.36,-11.3 47.89,-28.31l0.41 0 0 26.76 16.22 0 0 -95.31c0,-28.14 -20.25,-46.08 -52.33,-46.08 -29.33,0 -51.27,17.42 -52.64,41.96l16.31 0c3.1,-16.62 16.75,-26.63 36.2,-26.63 22.6,0 35.45,11.84 35.45,32.21l0 11.92 -42.98 2.88c-33.5,2.3 -51.13,16.22 -51.13,40.1 0,24.15 18.7,40.5 46.62,40.5zm203.99 -141.39l-17.9 0 -43.07 121.49 -0.35 0 -42.93 -121.49 -18.04 0 52.15 139.84 18.12 0 52.02 -139.84zm18.88 139.84l17.02 0 0 -139.84 -17.02 0 0 139.84zm8.42 -167.49c6.34,0 11.52,-5.31 11.52,-11.51 0,-6.42 -5.18,-11.61 -11.52,-11.61 -6.29,0 -11.61,5.18 -11.61,11.61 0,6.2 5.32,11.51 11.61,11.51zm40.9 167.49l17.01 0 0 -82.2c0,-26.09 15.86,-43.86 40.86,-43.86 23.79,0 37.3,14.13 37.3,38.81l0 87.24 17.02 0 0 -89.99c0,-31.64 -18.7,-51.4 -49.54,-51.4 -22.64,0 -38.37,10.28 -46.17,27.65l-0.53 0 0 -26.09 -15.95 0 0 139.84zm197.39 -14.89c-26.8,0 -44.61,-22.02 -44.61,-55.39 0,-33.45 17.81,-55.78 44.61,-55.78 27.03,0 45.51,22.68 45.51,55.78 0,32.84 -18.48,55.39 -45.51,55.39zm1.16 63.5c37.48,0 61.36,-19.23 61.36,-51.31l0 -137.14 -16.22 0 0 28.93 -0.26 0c-8.2,-18.25 -26.28,-30.48 -48.65,-30.48 -35.67,0 -59.29,28.45 -59.29,71.11 0,42.32 23.61,70.81 58.88,70.81 22.38,0 40.33,-12.32 48.17,-30.31l0.35 0 0 28.36c0,21.58 -17.28,34.96 -43.29,34.96 -20.96,0 -36.2,-8.32 -39.57,-20.83l-17.77 0c3.45,21.49 25.3,35.89 56.27,35.89zm158.22 -48.61l17.28 0 0 -125.49 28.41 0 0 -14.35 -28.41 0 0 -15.74c0.14,-15.02 6.2,-21 18.7,-21 3.5,0 7.27,0.41 10.1,1.06l0 -14.57c-3.49,-0.76 -7.27,-1.16 -11.57,-1.16 -23.21,0 -34.52,10.81 -34.52,35.4l0 16 -19.45 0 0 14.35 19.45 0 0 125.49zm119.11 1.6c38.5,0 63.45,-27.87 63.45,-71.52 0,-43.64 -24.95,-71.47 -63.45,-71.47 -38.55,0 -63.36,27.82 -63.36,71.47 0,43.64 24.81,71.52 63.36,71.52zm0 -15.42c-28.41,0 -46.08,-21.18 -46.08,-56.1 0,-34.82 17.68,-56.14 46.08,-56.14 28.49,0 46.17,21.18 46.17,56.14 0,34.91 -17.68,56.1 -46.17,56.1zm87.51 13.83l17.01 0 0 -86.8c0,-22.6 12.72,-38.16 32.57,-38.16 5.99,0 10.9,0.89 13.25,1.95l0 -16.83c-2.21,-0.8 -6.37,-1.6 -10.9,-1.6 -17.42,0 -30.66,9.74 -35.45,26.32l-0.53 0 0 -24.73 -15.95 0 0 139.84zm141.21 0l17.01 0 0 -85.29c0,-24.02 14.98,-40.76 35.84,-40.76 19.32,0 32.48,13.38 32.48,33.36l0 92.7 17.01 0 0 -87.38c0,-22.6 14.54,-38.68 35.45,-38.68 20.56,0 32.62,13.25 32.62,35.05l0 91.01 17.28 0 0 -94.91c0,-28.27 -17.9,-46.48 -45.2,-46.48 -21.05,0 -37.71,12.1 -44.27,29.33l-0.4 0c-5.28,-17.63 -20.02,-29.33 -40.41,-29.33 -19.94,0 -34.96,11.17 -40.94,27.65l-0.53 0 0 -26.09 -15.95 0 0 139.84zm272.85 -126.28c25.3,0 42.45,18.7 42.67,46.56l-86.93 0c1.55,-27.87 19.19,-46.56 44.26,-46.56zm41.79 86.71c-4.16,15.37 -19.1,26.01 -40.1,26.01 -27.78,0 -45.95,-19.5 -45.95,-51.22l0 -0.93 104.74 0 0 -7.53c0,-41.61 -23.53,-68.19 -60.26,-68.19 -37.62,0 -62.3,28.4 -62.3,71.82 0,44.09 24.68,71.21 63.36,71.21 30.35,0 53.26,-17.24 57.38,-41.16l-16.88 0zm50.3 -133.72l0 33.45 -19.98 0 0 14.35 19.98 0 0 91.06c0,25.16 9.26,35.18 32.3,35.18 3.64,0 11.17,-0.4 12.98,-0.89l0 -14.71c-1.02,0.13 -7.75,0.53 -9.57,0.53 -12.97,0 -18.7,-6.25 -18.7,-20.78l0 -90.39 27.65 0 0 -14.35 -27.65 0 0 -33.45 -17.01 0zm112.49 159.78c-19.45,0 -32.69,-10.23 -32.69,-25.3 0,-15.73 12.45,-24.81 35.94,-26.36l40.89 -2.84 0 15.42c0,22.07 -19.05,39.08 -44.13,39.08zm-3.36 15.07c21.4,0 40.36,-11.3 47.89,-28.31l0.41 0 0 26.76 16.22 0 0 -95.31c0,-28.14 -20.25,-46.08 -52.33,-46.08 -29.33,0 -51.27,17.42 -52.64,41.96l16.31 0c3.1,-16.62 16.75,-26.63 36.2,-26.63 22.6,0 35.45,11.84 35.45,32.21l0 11.92 -42.98 2.88c-33.5,2.3 -51.13,16.22 -51.13,40.1 0,24.15 18.7,40.5 46.62,40.5zm96.06 -1.55l17.02 0 0 -195.49 -17.02 0 0 195.49zm59.82 31.37l16 -56.36 -18.34 0 -11.17 56.36 13.52 0zm284.77 -171.21l-17.28 0 -31.63 120.43 -0.41 0 -35.18 -120.43 -17.42 0 -35.05 120.43 -0.4 0 -31.64 -120.43 -17.28 0 39.84 139.84 18.07 0 35.05 -116.44 0.35 0 35.05 116.44 18.08 0 39.83 -139.84zm74.62 141.43c38.5,0 63.45,-27.87 63.45,-71.52 0,-43.64 -24.95,-71.47 -63.45,-71.47 -38.55,0 -63.36,27.82 -63.36,71.47 0,43.64 24.81,71.52 63.36,71.52zm0 -15.42c-28.41,0 -46.08,-21.18 -46.08,-56.1 0,-34.82 17.68,-56.14 46.08,-56.14 28.49,0 46.17,21.18 46.17,56.14 0,34.91 -17.68,56.1 -46.17,56.1zm143.96 15.42c38.5,0 63.45,-27.87 63.45,-71.52 0,-43.64 -24.95,-71.47 -63.45,-71.47 -38.55,0 -63.36,27.82 -63.36,71.47 0,43.64 24.81,71.52 63.36,71.52zm0 -15.42c-28.41,0 -46.08,-21.18 -46.08,-56.1 0,-34.82 17.68,-56.14 46.08,-56.14 28.49,0 46.17,21.18 46.17,56.14 0,34.91 -17.68,56.1 -46.17,56.1zm140.18 15.42c22.78,0 40.55,-12.32 48.61,-31.23l0.41 0 0 29.64 16.34 0 0 -195.54 -17.28 0 0 84.41 -0.35 0c-7.57,-18.03 -25.48,-30.26 -48.08,-30.26 -34.82,0 -59.24,28.71 -59.24,71.43 0,42.76 24.55,71.56 59.59,71.56zm2.75 -127.66c26.9,0 45.46,23 45.46,56.14 0,33.37 -18.56,56.1 -45.46,56.1 -26.76,0 -45.06,-22.33 -45.06,-56.1 0,-33.67 18.3,-56.14 45.06,-56.14zm105.28 157.43l16 -56.36 -18.34 0 -11.17 56.36 13.52 0zm155.88 -44.88c-19.45,0 -32.69,-10.23 -32.69,-25.3 0,-15.73 12.45,-24.81 35.94,-26.36l40.89 -2.84 0 15.42c0,22.07 -19.05,39.08 -44.13,39.08zm-3.36 15.07c21.4,0 40.36,-11.3 47.89,-28.31l0.41 0 0 26.76 16.22 0 0 -95.31c0,-28.14 -20.25,-46.08 -52.33,-46.08 -29.33,0 -51.27,17.42 -52.64,41.96l16.31 0c3.1,-16.62 16.75,-26.63 36.2,-26.63 22.6,0 35.45,11.84 35.45,32.21l0 11.92 -42.98 2.88c-33.5,2.3 -51.13,16.22 -51.13,40.1 0,24.15 18.7,40.5 46.62,40.5zm207.89 -97.35c-3.37,-24.68 -24.81,-45.59 -57.51,-45.59 -37.89,0 -62.56,28.18 -62.56,71.47 0,44.18 24.81,71.52 62.83,71.52 30.88,0 53.34,-18.26 57.38,-44.62l-17.02 0c-4.03,18.3 -18.96,29.2 -40.36,29.2 -27.38,0 -45.55,-21.4 -45.55,-56.1 0,-34.03 18.03,-56.14 45.42,-56.14 22.33,0 37,13.12 40.37,30.26l17.01 0zm22.6 95.8l17.01 0 0 -86.8c0,-22.6 12.72,-38.16 32.57,-38.16 5.99,0 10.9,0.89 13.25,1.95l0 -16.83c-2.21,-0.8 -6.37,-1.6 -10.9,-1.6 -17.42,0 -30.66,9.74 -35.45,26.32l-0.53 0 0 -24.73 -15.95 0 0 139.84zm92.38 49.4c22.56,0 32.31,-9.08 44.53,-41.78l54.9 -147.46 -18.17 0 -42.99 122.38 -0.4 0 -42.85 -122.38 -18.43 0 52.59 140.68 -3.37 9.48c-6.51,17.9 -13.25,24.28 -26.09,24.28 -2.75,0 -6.25,-0.4 -8.33,-0.93l0 14.98c2.09,0.22 5.85,0.75 8.59,0.75zm118.44 -49.4l17.02 0 0 -195.49 -17.02 0 0 195.49zm50.64 0l17.02 0 0 -139.84 -17.02 0 0 139.84zm8.42 -167.49c6.34,0 11.52,-5.31 11.52,-11.51 0,-6.42 -5.18,-11.61 -11.52,-11.61 -6.29,0 -11.61,5.18 -11.61,11.61 0,6.2 5.32,11.51 11.61,11.51zm154.06 71.7c-3.37,-24.68 -24.81,-45.59 -57.51,-45.59 -37.89,0 -62.56,28.18 -62.56,71.47 0,44.18 24.81,71.52 62.83,71.52 30.88,0 53.34,-18.26 57.38,-44.62l-17.02 0c-4.03,18.3 -18.96,29.2 -40.36,29.2 -27.38,0 -45.55,-21.4 -45.55,-56.1 0,-34.03 18.03,-56.14 45.42,-56.14 22.33,0 37,13.12 40.37,30.26l17.01 0zm126.19 82.28c-19.45,0 -32.69,-10.23 -32.69,-25.3 0,-15.73 12.45,-24.81 35.94,-26.36l40.89 -2.84 0 15.42c0,22.07 -19.05,39.08 -44.13,39.08zm-3.36 15.07c21.4,0 40.36,-11.3 47.89,-28.31l0.41 0 0 26.76 16.22 0 0 -95.31c0,-28.14 -20.25,-46.08 -52.33,-46.08 -29.33,0 -51.27,17.42 -52.64,41.96l16.31 0c3.1,-16.62 16.75,-26.63 36.2,-26.63 22.6,0 35.45,11.84 35.45,32.21l0 11.92 -42.98 2.88c-33.5,2.3 -51.13,16.22 -51.13,40.1 0,24.15 18.7,40.5 46.62,40.5zm94.73 -1.55l17.01 0 0 -82.2c0,-26.09 15.86,-43.86 40.86,-43.86 23.79,0 37.3,14.13 37.3,38.81l0 87.24 17.02 0 0 -89.99c0,-31.64 -18.7,-51.4 -49.54,-51.4 -22.64,0 -38.37,10.28 -46.17,27.65l-0.53 0 0 -26.09 -15.95 0 0 139.84zm195.09 1.6c22.78,0 40.55,-12.32 48.61,-31.23l0.41 0 0 29.64 16.34 0 0 -195.54 -17.28 0 0 84.41 -0.35 0c-7.57,-18.03 -25.48,-30.26 -48.08,-30.26 -34.82,0 -59.24,28.71 -59.24,71.43 0,42.76 24.55,71.56 59.59,71.56zm2.75 -127.66c26.9,0 45.46,23 45.46,56.14 0,33.37 -18.56,56.1 -45.46,56.1 -26.76,0 -45.06,-22.33 -45.06,-56.1 0,-33.67 18.3,-56.14 45.06,-56.14zm220.31 127.66c35.4,0 59.15,-28.67 59.15,-71.52 0,-42.76 -23.75,-71.47 -58.89,-71.47 -22.11,0 -40.1,11.43 -48.16,30.26l-0.35 0 0 -84.41 -17.02 0 0 195.54 16.22 0 0 -29.6 0.4 0c8.33,19.67 26.28,31.19 48.66,31.19zm-2.89 -127.66c26.81,0 44.76,22.46 44.76,56.14 0,33.77 -17.95,56.1 -44.88,56.1 -26.77,0 -45.37,-23 -45.37,-55.96 0,-33.14 18.61,-56.27 45.5,-56.27zm141.25 -0.22c25.3,0 42.45,18.7 42.67,46.56l-86.93 0c1.55,-27.87 19.19,-46.56 44.26,-46.56zm41.79 86.71c-4.16,15.37 -19.1,26.01 -40.1,26.01 -27.78,0 -45.95,-19.5 -45.95,-51.22l0 -0.93 104.74 0 0 -7.53c0,-41.61 -23.53,-68.19 -60.26,-68.19 -37.62,0 -62.3,28.4 -62.3,71.82 0,44.09 24.68,71.21 63.36,71.21 30.35,0 53.26,-17.24 57.38,-41.16l-16.88 0zm39.66 -62.61c0,18.48 11.96,29.91 36.11,36.02l23.66 5.99c18.96,4.65 26.09,11.17 26.09,23 0,14.8 -14.53,24.41 -35.45,24.41 -21.18,0 -35.04,-10.5 -37.13,-26.49l-17.28 0c1.95,23.79 23.35,40.85 53.39,40.85 31.41,0 53.74,-16.31 53.74,-39.92 0,-19.9 -10.59,-30.04 -38.54,-37.04l-21.44 -5.23c-17.86,-4.38 -26.14,-11.03 -26.14,-22.46 0,-14.17 14,-23.79 32.75,-23.79 19.76,0 32.61,10.54 34.29,26.36l16.39 0c-1.42,-24.02 -21.84,-40.9 -50.15,-40.9 -28.9,0 -50.3,16.08 -50.3,39.21zm192.3 -39.21c-22.24,0 -41.12,12.71 -48.52,30.53l-0.4 0 0 -28.97 -16.08 0 0 186.1 17.01 0 0 -75.01 0.35 0c7.84,18.17 25.39,30.35 47.9,30.35 35.27,0 59.15,-28.8 59.15,-71.52 0,-42.62 -24.02,-71.47 -59.41,-71.47zm-2.97 127.56c-26.68,0 -45.15,-22.73 -45.15,-56.1 0,-33.14 18.48,-56.14 45.15,-56.14 27.03,0 45.1,22.6 45.1,56.27 0,33.63 -18.07,55.96 -45.1,55.96zm142.94 15.42c38.5,0 63.45,-27.87 63.45,-71.52 0,-43.64 -24.95,-71.47 -63.45,-71.47 -38.55,0 -63.36,27.82 -63.36,71.47 0,43.64 24.81,71.52 63.36,71.52zm0 -15.42c-28.41,0 -46.08,-21.18 -46.08,-56.1 0,-34.82 17.68,-56.14 46.08,-56.14 28.49,0 46.17,21.18 46.17,56.14 0,34.91 -17.68,56.1 -46.17,56.1zm105.98 -59.55l-0.13 0 0 -122.12 -17.02 0 0 195.49 17.02 0 0 -54.54 15.81 -14.4 56.37 68.94 20.25 0 -64.43 -79.44 63.09 -60.39 -21.26 0 -69.7 66.46zm158.85 -52.9c25.3,0 42.45,18.7 42.67,46.56l-86.93 0c1.55,-27.87 19.19,-46.56 44.26,-46.56zm41.79 86.71c-4.16,15.37 -19.1,26.01 -40.1,26.01 -27.78,0 -45.95,-19.5 -45.95,-51.22l0 -0.93 104.74 0 0 -7.53c0,-41.61 -23.53,-68.19 -60.26,-68.19 -37.62,0 -62.3,28.4 -62.3,71.82 0,44.09 24.68,71.21 63.36,71.21 30.35,0 53.26,-17.24 57.38,-41.16l-16.88 0zm101.52 39.57l17.01 0 0 -85.29c0,-24.02 14.98,-40.76 35.84,-40.76 19.32,0 32.48,13.38 32.48,33.36l0 92.7 17.01 0 0 -87.38c0,-22.6 14.54,-38.68 35.45,-38.68 20.56,0 32.62,13.25 32.62,35.05l0 91.01 17.28 0 0 -94.91c0,-28.27 -17.9,-46.48 -45.2,-46.48 -21.05,0 -37.71,12.1 -44.27,29.33l-0.4 0c-5.28,-17.63 -20.02,-29.33 -40.41,-29.33 -19.94,0 -34.96,11.17 -40.94,27.65l-0.53 0 0 -26.09 -15.95 0 0 139.84zm262.35 -13.52c-19.45,0 -32.69,-10.23 -32.69,-25.3 0,-15.73 12.45,-24.81 35.94,-26.36l40.89 -2.84 0 15.42c0,22.07 -19.05,39.08 -44.13,39.08zm-3.36 15.07c21.4,0 40.36,-11.3 47.89,-28.31l0.41 0 0 26.76 16.22 0 0 -95.31c0,-28.14 -20.25,-46.08 -52.33,-46.08 -29.33,0 -51.27,17.42 -52.64,41.96l16.31 0c3.1,-16.62 16.75,-26.63 36.2,-26.63 22.6,0 35.45,11.84 35.45,32.21l0 11.92 -42.98 2.88c-33.5,2.3 -51.13,16.22 -51.13,40.1 0,24.15 18.7,40.5 46.62,40.5zm102.44 -174.84l0 33.45 -19.98 0 0 14.35 19.98 0 0 91.06c0,25.16 9.26,35.18 32.3,35.18 3.64,0 11.17,-0.4 12.98,-0.89l0 -14.71c-1.02,0.13 -7.75,0.53 -9.57,0.53 -12.97,0 -18.7,-6.25 -18.7,-20.78l0 -90.39 27.65 0 0 -14.35 -27.65 0 0 -33.45 -17.01 0zm120.39 47.01c25.3,0 42.45,18.7 42.67,46.56l-86.93 0c1.55,-27.87 19.19,-46.56 44.26,-46.56zm41.79 86.71c-4.16,15.37 -19.1,26.01 -40.1,26.01 -27.78,0 -45.95,-19.5 -45.95,-51.22l0 -0.93 104.74 0 0 -7.53c0,-41.61 -23.53,-68.19 -60.26,-68.19 -37.62,0 -62.3,28.4 -62.3,71.82 0,44.09 24.68,71.21 63.36,71.21 30.35,0 53.26,-17.24 57.38,-41.16l-16.88 0zm42.59 39.57l17.01 0 0 -86.8c0,-22.6 12.72,-38.16 32.57,-38.16 5.99,0 10.9,0.89 13.25,1.95l0 -16.83c-2.21,-0.8 -6.37,-1.6 -10.9,-1.6 -17.42,0 -30.66,9.74 -35.45,26.32l-0.53 0 0 -24.73 -15.95 0 0 139.84zm83.61 0l17.02 0 0 -139.84 -17.02 0 0 139.84zm8.42 -167.49c6.34,0 11.52,-5.31 11.52,-11.51 0,-6.42 -5.18,-11.61 -11.52,-11.61 -6.29,0 -11.61,5.18 -11.61,11.61 0,6.2 5.32,11.51 11.61,11.51zm85.56 153.98c-19.45,0 -32.69,-10.23 -32.69,-25.3 0,-15.73 12.45,-24.81 35.94,-26.36l40.89 -2.84 0 15.42c0,22.07 -19.05,39.08 -44.13,39.08zm-3.36 15.07c21.4,0 40.36,-11.3 47.89,-28.31l0.41 0 0 26.76 16.22 0 0 -95.31c0,-28.14 -20.25,-46.08 -52.33,-46.08 -29.33,0 -51.27,17.42 -52.64,41.96l16.31 0c3.1,-16.62 16.75,-26.63 36.2,-26.63 22.6,0 35.45,11.84 35.45,32.21l0 11.92 -42.98 2.88c-33.5,2.3 -51.13,16.22 -51.13,40.1 0,24.15 18.7,40.5 46.62,40.5zm96.06 -1.55l17.02 0 0 -195.49 -17.02 0 0 195.49zm46.39 -102.18c0,18.48 11.96,29.91 36.11,36.02l23.66 5.99c18.96,4.65 26.09,11.17 26.09,23 0,14.8 -14.53,24.41 -35.45,24.41 -21.18,0 -35.04,-10.5 -37.13,-26.49l-17.28 0c1.95,23.79 23.35,40.85 53.39,40.85 31.41,0 53.74,-16.31 53.74,-39.92 0,-19.9 -10.59,-30.04 -38.54,-37.04l-21.44 -5.23c-17.86,-4.38 -26.14,-11.03 -26.14,-22.46 0,-14.17 14,-23.79 32.75,-23.79 19.76,0 32.61,10.54 34.29,26.36l16.39 0c-1.42,-24.02 -21.84,-40.9 -50.15,-40.9 -28.9,0 -50.3,16.08 -50.3,39.21zm142.1 103.5c7,0 12.32,-5.44 12.32,-12.36 0,-7 -5.32,-12.32 -12.32,-12.32 -6.87,0 -12.32,5.32 -12.32,12.32 0,6.91 5.44,12.36 12.32,12.36z"/>
  </g>
 </g>
</svg>
