<?xml version="1.0" encoding="UTF-8"?>
<!DOCTYPE svg PUBLIC "-//W3C//DTD SVG 1.1//EN" "http://www.w3.org/Graphics/SVG/1.1/DTD/svg11.dtd">
<!-- Creator: CorelDRAW -->
<svg xmlns="http://www.w3.org/2000/svg" xml:space="preserve" width="162.56mm" height="91.4399mm" version="1.1" style="shape-rendering:geometricPrecision; text-rendering:geometricPrecision; image-rendering:optimizeQuality; fill-rule:evenodd; clip-rule:evenodd"
viewBox="0 0 17826.26 10027.27"
 xmlns:xlink="http://www.w3.org/1999/xlink"
 xmlns:xodm="http://www.corel.com/coreldraw/odm/2003">
 <defs>
  <style type="text/css">
   <![CDATA[
    .fil1 {fill:none}
    .fil3 {fill:#FEFEFE}
    .fil4 {fill:#D2E28B}
    .fil5 {fill:#A8CF45}
    .fil2 {fill:#FEFEFE;fill-rule:nonzero}
    .fil0 {fill:url(#id3)}
   ]]>
  </style>
    <clipPath id="id0">
     <path d="M-0 0l17826.26 0 0 10027.27 -17826.26 0 0 -10027.27z"/>
    </clipPath>
    <clipPath id="id1">
     <rect x="8215.6" y="1157.97" width="8200.81" height="7874.18"/>
    </clipPath>
     <clipPath id="id2">
      <rect x="8215.6" y="1157.97" width="8200.81" height="7874.18"/>
     </clipPath>
  <linearGradient id="id3" gradientUnits="userSpaceOnUse" x1="8111.17" y1="-67.07" x2="9715.09" y2="10094.34">
   <stop offset="0" style="stop-opacity:1; stop-color:#0B6E45"/>
   <stop offset="1" style="stop-opacity:1; stop-color:#078F03"/>
  </linearGradient>
 </defs>
 <g id="Layer_x0020_1">
  <metadata id="CorelCorpID_0Corel-Layer"/>
  <g id="_3028177992048">
   <polygon class="fil0" points="-0,0 17826.26,0 17826.26,10027.27 -0,10027.27 "/>
   <g style="clip-path:url(#id0)">
    <g>
     <image x="-445.45" y="-5969.24" width="18717.15" height="18717.15" xlink:href="ENGRAVING EXPRESS WEBSITE LANDING PAGE DESIGN 3_Images\ENGRAVING EXPRESS WEBSITE LANDING PAGE DESIGN 3_ImgID1.png"/>
    </g>
   </g>
   <polygon class="fil1" points="-0,0 17826.26,0 17826.26,10027.27 -0,10027.27 "/>
   <path class="fil2" d="M1837.67 4622.87l-392.89 0 0 -253.92 371.97 0 0 -105.45 -371.97 0 0 -240.92 392.89 0 0 -109.32 -519.66 0 0 819.69 519.66 0 0 -110.09zm641.59 -506.09l-127.73 0 -157.78 495.42 -2.91 0 -157.2 -495.42 -130.07 0 222.52 616.37 131.22 0 221.94 -616.37zm314 91.87c89.93,0 150.79,63.96 153.51,160.49l-313.43 0c6.79,-95.36 71.14,-160.49 159.92,-160.49zm152.93 343.85c-17.06,53.7 -73.27,87.62 -144.99,87.62 -101.37,0 -168.44,-70.17 -168.44,-176.39l0 -7.37 437.28 0 0 -43.03c0,-187.62 -106.8,-304.69 -276.2,-304.69 -173.1,0 -285.51,125.01 -285.51,318.85 0,192.28 111.25,312.64 290.54,312.64 138.79,0 247.33,-77.33 264.77,-187.63l-117.46 0zm222.13 180.65l123.27 0 0 -367.89c0,-86.64 50.98,-142.66 132.19,-142.66 24.42,0 46.13,3.29 56.21,7.36l0 -115.52c-9.69,-1.74 -25,-3.49 -43.03,-3.49 -72.68,0 -129.48,41.47 -148.86,109.9l-2.32 0 0 -104.09 -117.46 0 0 616.37zm452.59 224.45c125.99,0 184.52,-47.48 237.45,-195.38l231.04 -645.45 -129.48 0 -158.36 504.53 -2.91 0 -158.36 -504.53 -132.38 0 223.67 618.7 -9.5 31.79c-21.13,65.32 -53.49,90.33 -111.84,90.33 -10.86,0 -30.23,-0.58 -39.35,-2.72l0 99.24c9.69,1.74 39.93,3.49 50,3.49zm-2302.89 142.63l0 819.69 293.46 0c244.8,0 388.05,-152.15 388.05,-411.5 0,-258.57 -143.25,-408.2 -388.05,-408.2l-293.46 0zm126.77 109.32l154.67 0c174.26,0 270.98,106.8 270.98,300.04 0,193.83 -96.72,300.25 -270.98,300.25l-154.67 0 0 -600.29zm919.92 186.07c89.93,0 150.79,63.96 153.51,160.49l-313.43 0c6.79,-95.36 71.14,-160.49 159.92,-160.49zm152.93 343.85c-17.06,53.7 -73.27,87.62 -144.99,87.62 -101.37,0 -168.44,-70.17 -168.44,-176.39l0 -7.37 437.28 0 0 -43.03c0,-187.62 -106.8,-304.69 -276.2,-304.69 -173.1,0 -285.51,125.01 -285.51,318.85 0,192.28 111.25,312.64 290.54,312.64 138.79,0 247.33,-77.33 264.77,-187.63l-117.46 0zm259.35 -574.11l0 138.39 -85.1 0 0 96.52 85.1 0 0 357.42c0,119.01 47.48,165.92 170.37,165.92 26.56,0 55.63,-2.91 69.2,-6.2l0 -96.53c-7.94,1.16 -28.87,2.72 -42.05,2.72 -51.56,0 -75.4,-25.01 -75.4,-78.31l0 -345.02 118.05 0 0 -96.52 -118.05 0 0 -138.39 -122.11 0zm554.54 662.89c-71.14,0 -117.07,-34.12 -117.07,-87.22 0,-54.85 43.81,-86.26 127.93,-91.49l150.03 -10.28 0 48.66c0,81.6 -69.39,140.33 -160.88,140.33zm-32.95 97.68c84.13,0 160.88,-41.87 195,-108.54l2.91 0 0 102.73 116.88 0 0 -423.32c0,-122.12 -96.52,-201.19 -247.13,-201.19 -138.77,0 -242.08,80.24 -245.58,189.17l115.33 0c10.86,-53.31 59.7,-88 126.77,-88 82.57,0 129.67,38.58 129.67,109.12l0 47.69 -166.5 9.68c-152.35,9.51 -235.89,71.53 -235.89,179.69 0,110.67 85.28,182.97 208.55,182.97zm442.9 -5.81l123.28 0 0 -616.37 -123.28 0 0 616.37zm61.64 -704.38c39.73,0 72.1,-31.79 72.1,-70.94 0,-40.32 -32.37,-70.94 -72.1,-70.94 -39.74,0 -72.1,30.62 -72.1,70.94 0,39.15 32.36,70.94 72.1,70.94zm197.89 704.38l123.28 0 0 -856.33 -123.28 0 0 856.33zm-1853.79 367.09l-147.5 0 -264.58 647.19 -4.65 0 -265.16 -647.19 -147.12 0 0 819.89 115.91 0 0 -603.39 4.07 0 247.52 597 94.2 0 247.13 -597 3.88 0 0 603.39 116.29 0 0 -819.89zm352.96 728.02c-71.14,0 -117.07,-34.12 -117.07,-87.22 0,-54.85 43.81,-86.26 127.93,-91.49l150.03 -10.28 0 48.66c0,81.6 -69.39,140.33 -160.88,140.33zm-32.95 97.68c84.13,0 160.88,-41.87 195,-108.54l2.91 0 0 102.73 116.88 0 0 -423.32c0,-122.12 -96.52,-201.19 -247.13,-201.19 -138.77,0 -242.08,80.24 -245.58,189.17l115.33 0c10.86,-53.31 59.7,-88 126.77,-88 82.57,0 129.67,38.58 129.67,109.12l0 47.69 -166.5 9.68c-152.35,9.51 -235.89,71.53 -235.89,179.69 0,110.67 85.28,182.97 208.55,182.97zm475.47 -760.58l0 138.39 -85.1 0 0 96.52 85.1 0 0 357.42c0,119.01 47.48,165.92 170.37,165.92 26.56,0 55.63,-2.91 69.2,-6.2l0 -96.53c-7.94,1.16 -28.87,2.72 -42.05,2.72 -51.56,0 -75.4,-25.01 -75.4,-78.31l0 -345.02 118.05 0 0 -96.52 -118.05 0 0 -138.39 -122.11 0zm381.65 0l0 138.39 -85.1 0 0 96.52 85.1 0 0 357.42c0,119.01 47.48,165.92 170.37,165.92 26.56,0 55.63,-2.91 69.2,-6.2l0 -96.53c-7.94,1.16 -28.87,2.72 -42.05,2.72 -51.56,0 -75.4,-25.01 -75.4,-78.31l0 -345.02 118.05 0 0 -96.52 -118.05 0 0 -138.39 -122.11 0zm587.3 230.26c89.93,0 150.79,63.96 153.51,160.49l-313.43 0c6.79,-95.36 71.14,-160.49 159.92,-160.49zm152.93 343.85c-17.06,53.7 -73.27,87.62 -144.99,87.62 -101.37,0 -168.44,-70.17 -168.44,-176.39l0 -7.37 437.28 0 0 -43.03c0,-187.62 -106.8,-304.69 -276.2,-304.69 -173.1,0 -285.51,125.01 -285.51,318.85 0,192.28 111.25,312.64 290.54,312.64 138.79,0 247.33,-77.33 264.77,-187.63l-117.46 0zm222.13 180.65l123.27 0 0 -367.89c0,-86.64 50.98,-142.66 132.19,-142.66 24.42,0 46.13,3.29 56.21,7.36l0 -115.52c-9.69,-1.74 -25,-3.49 -43.03,-3.49 -72.68,0 -129.48,41.47 -148.86,109.9l-2.32 0 0 -104.09 -117.46 0 0 616.37zm380.29 -440.38c0,84.9 55.05,141.49 166.51,168.63l110.48 27.14c64.93,16.47 89.35,36.82 89.35,75.97 0,49.82 -48.26,81.41 -125.21,81.41 -78.7,0 -126.57,-32.17 -136.07,-91.09l-121.54 0c9.11,111.06 107.19,185.29 251.2,185.29 149.84,0 253.73,-75.97 253.73,-185.87 0,-90.52 -45.75,-135.3 -169.99,-165.34l-102.53 -24.22c-65.51,-15.9 -96.14,-41.29 -96.14,-78.69 0,-48.66 46.72,-81.03 116.68,-81.03 70.75,0 118.05,33.92 123.08,88.39l115.33 0c-2.91,-107.18 -100.01,-183.36 -235.49,-183.36 -142.27,0 -239.39,74.44 -239.39,182.78z"/>
   <path class="fil2" d="M1269.05 3105.8l0 289.32 27.09 0 0 -108.85 75.33 0c55.28,0 92.97,-36.53 92.97,-90.3 0,-53.84 -37.56,-90.16 -92.76,-90.16l-102.62 0zm27.09 24.49l69.1 0c44.81,0 71.29,24.5 71.29,65.68 0,41.12 -26.68,65.82 -71.29,65.82l-69.1 0 0 -131.49zm243.29 264.83l26.27 0 0 -134.03c0,-34.88 19.63,-58.9 50.28,-58.9 9.23,0 16.83,1.37 20.45,3l0 -25.99c-3.41,-1.24 -9.85,-2.47 -16.82,-2.47 -26.89,0 -47.34,15.06 -54.73,40.64l-0.82 0 0 -38.17 -24.63 0 0 215.91zm236.38 -194.97c39.06,0 65.54,28.87 65.88,71.9l-134.22 0c2.39,-43.03 29.62,-71.9 68.34,-71.9zm64.51 133.88c-6.43,23.74 -29.49,40.16 -61.91,40.16 -42.89,0 -70.94,-30.1 -70.94,-79.09l0 -1.44 161.73 0 0 -11.63c0,-64.24 -36.33,-105.28 -93.05,-105.28 -58.08,0 -96.18,43.85 -96.18,110.9 0,68.08 38.11,109.94 97.83,109.94 46.87,0 82.23,-26.61 88.59,-63.56l-26.07 0zm277.03 -86.82c-5.21,-38.11 -38.32,-70.4 -88.8,-70.4 -58.49,0 -96.6,43.51 -96.6,110.35 0,68.21 38.3,110.43 97,110.43 47.69,0 82.38,-28.19 88.59,-68.9l-26.26 0c-6.23,28.26 -29.28,45.09 -62.33,45.09 -42.27,0 -70.32,-33.05 -70.32,-86.62 0,-52.54 27.84,-86.67 70.13,-86.67 34.48,0 57.12,20.25 62.32,46.73l26.27 0zm73.48 147.91l26.27 0 0 -215.91 -26.27 0 0 215.91zm13.01 -258.6c9.78,0 17.79,-8.21 17.79,-17.79 0,-9.92 -8.01,-17.93 -17.79,-17.93 -9.72,0 -17.93,8.01 -17.93,17.93 0,9.57 8.21,17.79 17.93,17.79zm95.17 100.84c0,28.52 18.48,46.18 55.76,55.62l36.53 9.23c29.28,7.18 40.3,17.24 40.3,35.51 0,22.84 -22.44,37.69 -54.73,37.69 -32.7,0 -54.12,-16.21 -57.33,-40.9l-26.68 0c3,36.74 36.06,63.08 82.43,63.08 48.51,0 82.99,-25.18 82.99,-61.64 0,-30.73 -16.35,-46.39 -59.52,-57.2l-33.11 -8.07c-27.57,-6.78 -40.37,-17.04 -40.37,-34.69 0,-21.9 21.61,-36.74 50.55,-36.74 30.52,0 50.36,16.27 52.95,40.71l25.31 0c-2.18,-37.09 -33.72,-63.15 -77.44,-63.15 -44.6,0 -77.65,24.84 -77.65,60.55zm235.15 157.76l26.27 0 0 -215.91 -26.27 0 0 215.91zm13.01 -258.6c9.78,0 17.79,-8.21 17.79,-17.79 0,-9.92 -8.01,-17.93 -17.79,-17.93 -9.72,0 -17.93,8.01 -17.93,17.93 0,9.57 8.21,17.79 17.93,17.79zm186.85 261.07c59.46,0 97.97,-43.04 97.97,-110.43 0,-67.39 -38.51,-110.35 -97.97,-110.35 -59.52,0 -97.83,42.96 -97.83,110.35 0,67.39 38.3,110.43 97.83,110.43zm0 -23.81c-43.85,0 -71.15,-32.71 -71.15,-86.62 0,-53.77 27.29,-86.67 71.15,-86.67 44,0 71.29,32.7 71.29,86.67 0,53.91 -27.29,86.62 -71.29,86.62zm171.66 21.34l26.27 0 0 -126.91c0,-40.29 24.49,-67.73 63.08,-67.73 36.74,0 57.6,21.82 57.6,59.93l0 134.71 26.26 0 0 -138.95c0,-48.84 -28.86,-79.36 -76.48,-79.36 -34.96,0 -59.25,15.88 -71.29,42.69l-0.82 0 0 -40.29 -24.63 0 0 215.91zm467.88 4.52c62.74,0 107.07,-33.86 117.26,-90.17l-27.43 0c-8.62,40.09 -43.51,64.72 -89.62,64.72 -61.5,0 -100.97,-48.31 -100.97,-124.44 0,-75.18 39.48,-123.08 100.77,-123.08 44.95,0 81.83,29.21 89.83,70.95l27.43 0c-7.8,-56.51 -56.09,-96.39 -117.26,-96.39 -78.54,0 -128.69,57.88 -128.69,148.52 0,91.6 49.95,149.89 128.69,149.89zm190.9 -4.52l26.27 0 0 -134.03c0,-34.88 19.63,-58.9 50.28,-58.9 9.23,0 16.83,1.37 20.45,3l0 -25.99c-3.41,-1.24 -9.85,-2.47 -16.82,-2.47 -26.89,0 -47.34,15.06 -54.73,40.64l-0.82 0 0 -38.17 -24.63 0 0 215.91zm224.76 -20.87c-30.04,0 -50.5,-15.8 -50.5,-39.06 0,-24.29 19.23,-38.32 55.49,-40.71l63.14 -4.38 0 23.81c0,34.07 -29.41,60.33 -68.13,60.33zm-5.21 23.26c33.05,0 62.33,-17.45 73.95,-43.71l0.63 0 0 41.32 25.04 0 0 -147.15c0,-43.45 -31.26,-71.16 -80.8,-71.16 -45.29,0 -79.15,26.89 -81.27,64.79l25.17 0c4.79,-25.65 25.87,-41.11 55.89,-41.11 34.89,0 54.73,18.27 54.73,49.74l0 18.4 -66.36 4.44c-51.73,3.56 -78.95,25.05 -78.95,61.91 0,37.28 28.87,62.53 71.97,62.53zm193.49 -2.39l26.68 0 0 -193.75 43.85 0 0 -22.16 -43.85 0 0 -24.29c0.21,-23.19 9.58,-32.43 28.87,-32.43 5.41,0 11.22,0.61 15.6,1.64l0 -22.51c-5.41,-1.16 -11.23,-1.78 -17.86,-1.78 -35.85,0 -53.29,16.69 -53.29,54.67l0 24.7 -30.02 0 0 22.16 30.02 0 0 193.75zm157.03 -267.56l0 51.65 -30.86 0 0 22.16 30.86 0 0 140.59c0,38.85 14.29,54.31 49.87,54.31 5.6,0 17.24,-0.61 20.05,-1.37l0 -22.71c-1.58,0.21 -11.97,0.82 -14.78,0.82 -20.05,0 -28.87,-9.65 -28.87,-32.09l0 -139.56 42.69 0 0 -22.16 -42.69 0 0 -51.65 -26.26 0zm139.98 109.8c0,28.52 18.48,46.18 55.76,55.62l36.53 9.23c29.28,7.18 40.3,17.24 40.3,35.51 0,22.84 -22.44,37.69 -54.73,37.69 -32.7,0 -54.12,-16.21 -57.33,-40.9l-26.68 0c3,36.74 36.06,63.08 82.43,63.08 48.51,0 82.99,-25.18 82.99,-61.64 0,-30.73 -16.35,-46.39 -59.52,-57.2l-33.11 -8.07c-27.57,-6.78 -40.37,-17.04 -40.37,-34.69 0,-21.9 21.61,-36.74 50.55,-36.74 30.52,0 50.36,16.27 52.95,40.71l25.31 0c-2.18,-37.09 -33.72,-63.15 -77.44,-63.15 -44.6,0 -77.65,24.84 -77.65,60.55zm233.1 157.76l26.27 0 0 -131.69c0,-37.09 23.12,-62.94 55.35,-62.94 29.83,0 50.15,20.66 50.15,51.52l0 143.12 26.26 0 0 -134.91c0,-34.88 22.45,-59.72 54.73,-59.72 31.75,0 50.36,20.45 50.36,54.12l0 140.52 26.68 0 0 -146.54c0,-43.64 -27.63,-71.77 -69.78,-71.77 -32.5,0 -58.22,18.69 -68.35,45.29l-0.61 0c-8.14,-27.23 -30.92,-45.29 -62.4,-45.29 -30.78,0 -53.97,17.25 -63.21,42.69l-0.82 0 0 -40.29 -24.63 0 0 215.91zm441.63 -20.87c-30.04,0 -50.5,-15.8 -50.5,-39.06 0,-24.29 19.23,-38.32 55.49,-40.71l63.14 -4.38 0 23.81c0,34.07 -29.41,60.33 -68.13,60.33zm-5.21 23.26c33.05,0 62.33,-17.45 73.95,-43.71l0.63 0 0 41.32 25.04 0 0 -147.15c0,-43.45 -31.26,-71.16 -80.8,-71.16 -45.29,0 -79.15,26.89 -81.27,64.79l25.17 0c4.79,-25.65 25.87,-41.11 55.89,-41.11 34.89,0 54.73,18.27 54.73,49.74l0 18.4 -66.36 4.44c-51.73,3.56 -78.95,25.05 -78.95,61.91 0,37.28 28.87,62.53 71.97,62.53zm182.82 -2.39l26.27 0 0 -126.91c0,-40.29 24.49,-67.73 63.08,-67.73 36.74,0 57.6,21.82 57.6,59.93l0 134.71 26.26 0 0 -138.95c0,-48.84 -28.86,-79.36 -76.48,-79.36 -34.96,0 -59.25,15.88 -71.29,42.69l-0.82 0 0 -40.29 -24.63 0 0 215.91zm251.91 -157.76c0,28.52 18.48,46.18 55.76,55.62l36.53 9.23c29.28,7.18 40.3,17.24 40.3,35.51 0,22.84 -22.44,37.69 -54.73,37.69 -32.7,0 -54.12,-16.21 -57.33,-40.9l-26.68 0c3,36.74 36.06,63.08 82.43,63.08 48.51,0 82.99,-25.18 82.99,-61.64 0,-30.73 -16.35,-46.39 -59.52,-57.2l-33.11 -8.07c-27.57,-6.78 -40.37,-17.04 -40.37,-34.69 0,-21.9 21.61,-36.74 50.55,-36.74 30.52,0 50.36,16.27 52.95,40.71l25.31 0c-2.18,-37.09 -33.72,-63.15 -77.44,-63.15 -44.6,0 -77.65,24.84 -77.65,60.55zm235.15 157.76l26.27 0 0 -125.88c0,-41.12 25.45,-68.76 64.58,-68.76 36.94,0 58.15,22.85 58.15,60.54l0 134.09 26.27 0 0 -138.34c0,-48.29 -29.63,-79.97 -77.04,-79.97 -34.69,0 -59.38,15.88 -71.42,42.69l-0.55 0 0 -126.28 -26.27 0 0 301.9zm260.61 0l26.27 0 0 -215.91 -26.27 0 0 215.91zm13.01 -258.6c9.78,0 17.79,-8.21 17.79,-17.79 0,-9.92 -8.01,-17.93 -17.79,-17.93 -9.72,0 -17.93,8.01 -17.93,17.93 0,9.57 8.21,17.79 17.93,17.79zm200.05 40.29c-34.35,0 -63.48,19.64 -74.91,47.14l-0.61 0 0 -44.74 -24.84 0 0 287.33 26.27 0 0 -115.82 0.55 0c12.11,28.05 39.19,46.87 73.95,46.87 54.46,0 91.32,-44.48 91.32,-110.43 0,-65.81 -37.08,-110.35 -91.74,-110.35zm-4.58 196.97c-41.18,0 -69.71,-35.1 -69.71,-86.62 0,-51.17 28.53,-86.67 69.71,-86.67 41.74,0 69.64,34.89 69.64,86.88 0,51.92 -27.91,86.41 -69.64,86.41z"/>
   <path class="fil2" d="M1462.03 7828.62l0 -105.88 106.86 0 0 -19.73 -106.86 0 0 -87.41 116.23 0 0 -20.07 -138.06 0 0 233.08 21.83 0zm146.82 0l21.16 0 0 -107.97c0,-28.11 15.81,-47.45 40.51,-47.45 7.45,0 13.56,1.1 16.48,2.42l0 -20.94c-2.75,-1 -7.94,-1.98 -13.55,-1.98 -21.67,0 -38.14,12.13 -44.09,32.73l-0.67 0 0 -30.75 -19.84 0 0 173.94zm162.59 1.98c47.9,0 78.92,-34.66 78.92,-88.96 0,-54.29 -31.02,-88.9 -78.92,-88.9 -47.94,0 -78.81,34.61 -78.81,88.9 0,54.29 30.87,88.96 78.81,88.96zm0 -19.18c-35.32,0 -57.32,-26.35 -57.32,-69.78 0,-43.32 22,-69.83 57.32,-69.83 35.44,0 57.43,26.34 57.43,69.83 0,43.43 -21.99,69.78 -57.43,69.78zm108.85 17.19l21.16 0 0 -106.1c0,-29.87 18.63,-50.71 44.59,-50.71 24.03,0 40.4,16.65 40.4,41.51l0 115.3 21.16 0 0 -108.68c0,-28.12 18.08,-48.12 44.09,-48.12 25.57,0 40.56,16.48 40.56,43.6l0 113.2 21.49 0 0 -118.06c0,-35.16 -22.26,-57.81 -56.21,-57.81 -26.19,0 -46.9,15.05 -55.06,36.48l-0.5 0c-6.56,-21.93 -24.9,-36.48 -50.26,-36.48 -24.81,0 -43.49,13.89 -50.93,34.39l-0.67 0 0 -32.46 -19.84 0 0 173.94zm484.85 -119.16c-4.19,-30.7 -30.86,-56.72 -71.53,-56.72 -47.13,0 -77.83,35.06 -77.83,88.9 0,54.95 30.87,88.96 78.15,88.96 38.41,0 66.36,-22.71 71.38,-55.5l-21.16 0c-5.02,22.75 -23.6,36.32 -50.21,36.32 -34.06,0 -56.66,-26.63 -56.66,-69.78 0,-42.33 22.44,-69.83 56.5,-69.83 27.78,0 46.01,16.32 50.2,37.65l21.16 0zm98.33 121.14c47.9,0 78.92,-34.66 78.92,-88.96 0,-54.29 -31.02,-88.9 -78.92,-88.9 -47.94,0 -78.81,34.61 -78.81,88.9 0,54.29 30.87,88.96 78.81,88.96zm0 -19.18c-35.32,0 -57.32,-26.35 -57.32,-69.78 0,-43.32 22,-69.83 57.32,-69.83 35.44,0 57.43,26.34 57.43,69.83 0,43.43 -21.99,69.78 -57.43,69.78zm108.85 17.19l21.16 0 0 -107.97c0,-28.11 15.81,-47.45 40.51,-47.45 7.45,0 13.56,1.1 16.48,2.42l0 -20.94c-2.75,-1 -7.94,-1.98 -13.55,-1.98 -21.67,0 -38.14,12.13 -44.09,32.73l-0.67 0 0 -30.75 -19.84 0 0 173.94zm183.2 -175.87c-27.67,0 -51.15,15.81 -60.35,37.98l-0.5 0 0 -36.05 -20 0 0 231.48 21.16 0 0 -93.31 0.44 0c9.76,22.6 31.58,37.76 59.58,37.76 43.87,0 73.58,-35.83 73.58,-88.96 0,-53.02 -29.87,-88.9 -73.91,-88.9zm-3.7 158.68c-33.17,0 -56.16,-28.27 -56.16,-69.78 0,-41.22 22.98,-69.83 56.16,-69.83 33.62,0 56.11,28.11 56.11,70 0,41.84 -22.49,69.61 -56.11,69.61zm177.8 19.18c47.9,0 78.92,-34.66 78.92,-88.96 0,-54.29 -31.02,-88.9 -78.92,-88.9 -47.94,0 -78.81,34.61 -78.81,88.9 0,54.29 30.87,88.96 78.81,88.96zm0 -19.18c-35.32,0 -57.32,-26.35 -57.32,-69.78 0,-43.32 22,-69.83 57.32,-69.83 35.44,0 57.43,26.34 57.43,69.83 0,43.43 -21.99,69.78 -57.43,69.78zm108.85 17.19l21.16 0 0 -107.97c0,-28.11 15.81,-47.45 40.51,-47.45 7.45,0 13.56,1.1 16.48,2.42l0 -20.94c-2.75,-1 -7.94,-1.98 -13.55,-1.98 -21.67,0 -38.14,12.13 -44.09,32.73l-0.67 0 0 -30.75 -19.84 0 0 173.94zm151.62 -16.81c-24.19,0 -40.67,-12.73 -40.67,-31.47 0,-19.56 15.48,-30.86 44.7,-32.79l50.87 -3.53 0 19.18c0,27.45 -23.7,48.61 -54.9,48.61zm-4.19 18.74c26.63,0 50.21,-14.06 59.58,-35.22l0.5 0 0 33.29 20.17 0 0 -118.55c0,-34.99 -25.19,-57.32 -65.09,-57.32 -36.48,0 -63.77,21.66 -65.47,52.2l20.28 0c3.86,-20.67 20.84,-33.13 45.03,-33.13 28.12,0 44.09,14.72 44.09,40.07l0 14.83 -53.46 3.59c-41.67,2.86 -63.6,20.17 -63.6,49.87 0,30.04 23.26,50.38 57.98,50.38zm127.44 -217.49l0 41.62 -24.86 0 0 17.85 24.86 0 0 113.27c0,31.31 11.51,43.75 40.18,43.75 4.52,0 13.88,-0.49 16.14,-1.1l0 -18.3c-1.26,0.16 -9.64,0.67 -11.9,0.67 -16.15,0 -23.26,-7.77 -23.26,-25.86l0 -112.43 34.39 0 0 -17.85 -34.39 0 0 -41.62 -21.16 0zm149.74 58.48c31.47,0 52.8,23.26 53.08,57.92l-108.14 0c1.93,-34.66 23.87,-57.92 55.06,-57.92zm51.98 107.86c-5.19,19.12 -23.75,32.35 -49.88,32.35 -34.55,0 -57.15,-24.25 -57.15,-63.71l0 -1.16 130.3 0 0 -9.36c0,-51.75 -29.27,-84.82 -74.95,-84.82 -46.8,0 -77.5,35.33 -77.5,89.34 0,54.84 30.69,88.57 78.81,88.57 37.76,0 66.25,-21.44 71.38,-51.2l-21 0zm209.11 51.2c44.04,0 73.58,-35.66 73.58,-88.96 0,-53.18 -29.54,-88.9 -73.25,-88.9 -27.5,0 -49.87,14.22 -59.91,37.65l-0.44 0 0 -105 -21.16 0 0 243.23 20.17 0 0 -36.81 0.5 0c10.35,24.47 32.68,38.8 60.51,38.8zm-3.59 -158.79c33.35,0 55.67,27.94 55.67,69.83 0,42 -22.33,69.78 -55.84,69.78 -33.28,0 -56.43,-28.61 -56.43,-69.61 0,-41.22 23.15,-70 56.6,-70zm107.09 156.8l21.16 0 0 -107.97c0,-28.11 15.81,-47.45 40.51,-47.45 7.45,0 13.56,1.1 16.48,2.42l0 -20.94c-2.75,-1 -7.94,-1.98 -13.55,-1.98 -21.67,0 -38.14,12.13 -44.09,32.73l-0.67 0 0 -30.75 -19.84 0 0 173.94zm151.62 -16.81c-24.19,0 -40.67,-12.73 -40.67,-31.47 0,-19.56 15.48,-30.86 44.7,-32.79l50.87 -3.53 0 19.18c0,27.45 -23.7,48.61 -54.9,48.61zm-4.19 18.74c26.63,0 50.21,-14.06 59.58,-35.22l0.5 0 0 33.29 20.17 0 0 -118.55c0,-34.99 -25.19,-57.32 -65.09,-57.32 -36.48,0 -63.77,21.66 -65.47,52.2l20.28 0c3.86,-20.67 20.84,-33.13 45.03,-33.13 28.12,0 44.09,14.72 44.09,40.07l0 14.83 -53.46 3.59c-41.67,2.86 -63.6,20.17 -63.6,49.87 0,30.04 23.26,50.38 57.98,50.38zm117.84 -1.93l21.16 0 0 -102.24c0,-32.47 19.73,-54.57 50.82,-54.57 29.6,0 46.41,17.58 46.41,48.28l0 108.52 21.16 0 0 -111.94c0,-39.35 -23.26,-63.93 -61.62,-63.93 -28.16,0 -47.73,12.79 -57.43,34.39l-0.67 0 0 -32.46 -19.84 0 0 173.94zm242.68 1.98c28.33,0 50.43,-15.32 60.46,-38.85l0.5 0 0 36.87 20.33 0 0 -243.23 -21.49 0 0 105 -0.44 0c-9.42,-22.44 -31.69,-37.65 -59.8,-37.65 -43.33,0 -73.69,35.72 -73.69,88.85 0,53.18 30.53,89.01 74.13,89.01zm3.42 -158.79c33.45,0 56.54,28.61 56.54,69.83 0,41.51 -23.09,69.78 -56.54,69.78 -33.29,0 -56.06,-27.78 -56.06,-69.78 0,-41.89 22.77,-69.83 56.06,-69.83zm119.54 156.8l21.16 0 0 -173.94 -21.16 0 0 173.94zm10.47 -208.33c7.87,0 14.33,-6.61 14.33,-14.33 0,-7.99 -6.46,-14.44 -14.33,-14.44 -7.83,0 -14.44,6.45 -14.44,14.44 0,7.72 6.61,14.33 14.44,14.33zm50.87 208.33l21.16 0 0 -102.24c0,-32.47 19.73,-54.57 50.82,-54.57 29.6,0 46.41,17.58 46.41,48.28l0 108.52 21.16 0 0 -111.94c0,-39.35 -23.26,-63.93 -61.62,-63.93 -28.16,0 -47.73,12.79 -57.43,34.39l-0.67 0 0 -32.46 -19.84 0 0 173.94zm245.54 -18.52c-33.34,0 -55.5,-27.39 -55.5,-68.89 0,-41.62 22.16,-69.39 55.5,-69.39 33.62,0 56.61,28.22 56.61,69.39 0,40.84 -22.98,68.89 -56.61,68.89zm1.44 78.99c46.63,0 76.33,-23.93 76.33,-63.83l0 -170.58 -20.18 0 0 35.99 -0.33 0c-10.19,-22.71 -32.68,-37.92 -60.51,-37.92 -44.37,0 -73.75,35.39 -73.75,88.46 0,52.64 29.38,88.07 73.25,88.07 27.83,0 50.15,-15.32 59.91,-37.69l0.44 0 0 35.27c0,26.84 -21.49,43.49 -53.84,43.49 -26.08,0 -45.04,-10.36 -49.23,-25.91l-22.1 0c4.3,26.74 31.47,44.65 70,44.65zm197.82 -276.02l0 41.62 -24.86 0 0 17.85 24.86 0 0 113.27c0,31.31 11.51,43.75 40.18,43.75 4.52,0 13.88,-0.49 16.14,-1.1l0 -18.3c-1.26,0.16 -9.64,0.67 -11.9,0.67 -16.15,0 -23.26,-7.77 -23.26,-25.86l0 -112.43 34.39 0 0 -17.85 -34.39 0 0 -41.62 -21.16 0zm151.34 217.54c47.9,0 78.92,-34.66 78.92,-88.96 0,-54.29 -31.02,-88.9 -78.92,-88.9 -47.94,0 -78.81,34.61 -78.81,88.9 0,54.29 30.87,88.96 78.81,88.96zm0 -19.18c-35.32,0 -57.32,-26.35 -57.32,-69.78 0,-43.32 22,-69.83 57.32,-69.83 35.44,0 57.43,26.34 57.43,69.83 0,43.43 -21.99,69.78 -57.43,69.78zm263.01 -158.68c-27.67,0 -51.15,15.81 -60.35,37.98l-0.5 0 0 -36.05 -20 0 0 231.48 21.16 0 0 -93.31 0.44 0c9.76,22.6 31.58,37.76 59.58,37.76 43.87,0 73.58,-35.83 73.58,-88.96 0,-53.02 -29.87,-88.9 -73.91,-88.9zm-3.7 158.68c-33.17,0 -56.16,-28.27 -56.16,-69.78 0,-41.22 22.98,-69.83 56.16,-69.83 33.62,0 56.11,28.11 56.11,70 0,41.84 -22.49,69.61 -56.11,69.61zm176.2 -139.88c31.47,0 52.8,23.26 53.08,57.92l-108.14 0c1.93,-34.66 23.87,-57.92 55.06,-57.92zm51.98 107.86c-5.19,19.12 -23.75,32.35 -49.88,32.35 -34.55,0 -57.15,-24.25 -57.15,-63.71l0 -1.16 130.3 0 0 -9.36c0,-51.75 -29.27,-84.82 -74.95,-84.82 -46.8,0 -77.5,35.33 -77.5,89.34 0,54.84 30.69,88.57 78.81,88.57 37.76,0 66.25,-21.44 71.38,-51.2l-21 0zm52.97 49.22l21.16 0 0 -107.97c0,-28.11 15.81,-47.45 40.51,-47.45 7.45,0 13.56,1.1 16.48,2.42l0 -20.94c-2.75,-1 -7.94,-1.98 -13.55,-1.98 -21.67,0 -38.14,12.13 -44.09,32.73l-0.67 0 0 -30.75 -19.84 0 0 173.94zm97.77 -127.1c0,22.98 14.88,37.21 44.93,44.81l29.42 7.45c23.6,5.78 32.47,13.88 32.47,28.6 0,18.41 -18.08,30.38 -44.09,30.38 -26.35,0 -43.6,-13.07 -46.19,-32.96l-21.49 0c2.42,29.6 29.05,50.82 66.41,50.82 39.08,0 66.86,-20.29 66.86,-49.65 0,-24.75 -13.17,-37.37 -47.95,-46.08l-26.67 -6.5c-22.22,-5.46 -32.53,-13.73 -32.53,-27.94 0,-17.64 17.42,-29.6 40.74,-29.6 24.57,0 40.56,13.12 42.66,32.79l20.39 0c-1.77,-29.87 -27.17,-50.87 -62.39,-50.87 -35.94,0 -62.56,20 -62.56,48.78zm228.56 129.08c47.9,0 78.92,-34.66 78.92,-88.96 0,-54.29 -31.02,-88.9 -78.92,-88.9 -47.94,0 -78.81,34.61 -78.81,88.9 0,54.29 30.87,88.96 78.81,88.96zm0 -19.18c-35.32,0 -57.32,-26.35 -57.32,-69.78 0,-43.32 22,-69.83 57.32,-69.83 35.44,0 57.43,26.34 57.43,69.83 0,43.43 -21.99,69.78 -57.43,69.78zm108.85 17.19l21.16 0 0 -102.24c0,-32.47 19.73,-54.57 50.82,-54.57 29.6,0 46.41,17.58 46.41,48.28l0 108.52 21.16 0 0 -111.94c0,-39.35 -23.26,-63.93 -61.62,-63.93 -28.16,0 -47.73,12.79 -57.43,34.39l-0.67 0 0 -32.46 -19.84 0 0 173.94zm232.7 -16.81c-24.19,0 -40.67,-12.73 -40.67,-31.47 0,-19.56 15.48,-30.86 44.7,-32.79l50.87 -3.53 0 19.18c0,27.45 -23.7,48.61 -54.9,48.61zm-4.19 18.74c26.63,0 50.21,-14.06 59.58,-35.22l0.5 0 0 33.29 20.17 0 0 -118.55c0,-34.99 -25.19,-57.32 -65.09,-57.32 -36.48,0 -63.77,21.66 -65.47,52.2l20.28 0c3.86,-20.67 20.84,-33.13 45.03,-33.13 28.12,0 44.09,14.72 44.09,40.07l0 14.83 -53.46 3.59c-41.67,2.86 -63.6,20.17 -63.6,49.87 0,30.04 23.26,50.38 57.98,50.38zm119.5 -1.93l21.16 0 0 -243.17 -21.16 0 0 243.17zm-4921.29 218.76c-27.67,0 -51.15,15.81 -60.35,37.98l-0.5 0 0 -36.05 -20 0 0 231.48 21.16 0 0 -93.31 0.44 0c9.76,22.6 31.58,37.76 59.58,37.76 43.87,0 73.58,-35.83 73.58,-88.96 0,-53.02 -29.87,-88.9 -73.91,-88.9zm-3.7 158.68c-33.17,0 -56.16,-28.27 -56.16,-69.78 0,-41.22 22.98,-69.83 56.16,-69.83 33.62,0 56.11,28.11 56.11,70 0,41.84 -22.49,69.61 -56.11,69.61zm109.24 17.19l21.16 0 0 -173.94 -21.16 0 0 173.94zm10.47 -208.33c7.87,0 14.33,-6.61 14.33,-14.33 0,-7.99 -6.46,-14.44 -14.33,-14.44 -7.83,0 -14.44,6.45 -14.44,14.44 0,7.72 6.61,14.33 14.44,14.33zm119.49 51.25c31.47,0 52.8,23.26 53.08,57.92l-108.14 0c1.93,-34.66 23.87,-57.92 55.06,-57.92zm51.98 107.86c-5.19,19.12 -23.75,32.35 -49.88,32.35 -34.55,0 -57.15,-24.25 -57.15,-63.71l0 -1.16 130.3 0 0 -9.36c0,-51.75 -29.27,-84.82 -74.95,-84.82 -46.8,0 -77.5,35.33 -77.5,89.34 0,54.84 30.69,88.57 78.81,88.57 37.76,0 66.25,-21.44 71.38,-51.2l-21 0zm193.72 -69.94c-4.19,-30.7 -30.86,-56.72 -71.53,-56.72 -47.13,0 -77.83,35.06 -77.83,88.9 0,54.95 30.87,88.96 78.15,88.96 38.41,0 66.36,-22.71 71.38,-55.5l-21.16 0c-5.02,22.75 -23.6,36.32 -50.21,36.32 -34.06,0 -56.66,-26.63 -56.66,-69.78 0,-42.33 22.44,-69.83 56.5,-69.83 27.78,0 46.01,16.32 50.2,37.65l21.16 0zm96.73 -37.92c31.47,0 52.8,23.26 53.08,57.92l-108.14 0c1.93,-34.66 23.87,-57.92 55.06,-57.92zm51.98 107.86c-5.19,19.12 -23.75,32.35 -49.88,32.35 -34.55,0 -57.15,-24.25 -57.15,-63.71l0 -1.16 130.3 0 0 -9.36c0,-51.75 -29.27,-84.82 -74.95,-84.82 -46.8,0 -77.5,35.33 -77.5,89.34 0,54.84 30.69,88.57 78.81,88.57 37.76,0 66.25,-21.44 71.38,-51.2l-21 0zm49.32 -77.88c0,22.98 14.88,37.21 44.93,44.81l29.42 7.45c23.6,5.78 32.47,13.88 32.47,28.6 0,18.41 -18.08,30.38 -44.09,30.38 -26.35,0 -43.6,-13.07 -46.19,-32.96l-21.49 0c2.42,29.6 29.05,50.82 66.41,50.82 39.08,0 66.86,-20.29 66.86,-49.65 0,-24.75 -13.17,-37.37 -47.95,-46.08l-26.67 -6.5c-22.22,-5.46 -32.53,-13.73 -32.53,-27.94 0,-17.64 17.42,-29.6 40.74,-29.6 24.57,0 40.56,13.12 42.66,32.79l20.39 0c-1.77,-29.87 -27.17,-50.87 -62.39,-50.87 -35.94,0 -62.56,20 -62.56,48.78zm335.82 44.7l0 -20.06 -105.82 0 0 20.06 105.82 0zm178.91 -74.68c31.47,0 52.8,23.26 53.08,57.92l-108.14 0c1.93,-34.66 23.87,-57.92 55.06,-57.92zm51.98 107.86c-5.19,19.12 -23.75,32.35 -49.88,32.35 -34.55,0 -57.15,-24.25 -57.15,-63.71l0 -1.16 130.3 0 0 -9.36c0,-51.75 -29.27,-84.82 -74.95,-84.82 -46.8,0 -77.5,35.33 -77.5,89.34 0,54.84 30.69,88.57 78.81,88.57 37.76,0 66.25,-21.44 71.38,-51.2l-21 0zm108.41 -22.49l47.9 71.71 24.19 0 -60.29 -88.35 60.8 -85.59 -24.2 0 -47.72 70.11 -0.5 0 -48.22 -70.11 -24.2 0 60.63 86.42 -61.29 87.52 24.19 0 48.06 -71.71 0.66 0zm162.03 -85.37c31.47,0 52.8,23.26 53.08,57.92l-108.14 0c1.93,-34.66 23.87,-57.92 55.06,-57.92zm51.98 107.86c-5.19,19.12 -23.75,32.35 -49.88,32.35 -34.55,0 -57.15,-24.25 -57.15,-63.71l0 -1.16 130.3 0 0 -9.36c0,-51.75 -29.27,-84.82 -74.95,-84.82 -46.8,0 -77.5,35.33 -77.5,89.34 0,54.84 30.69,88.57 78.81,88.57 37.76,0 66.25,-21.44 71.38,-51.2l-21 0zm193.72 -69.94c-4.19,-30.7 -30.86,-56.72 -71.53,-56.72 -47.13,0 -77.83,35.06 -77.83,88.9 0,54.95 30.87,88.96 78.15,88.96 38.41,0 66.36,-22.71 71.38,-55.5l-21.16 0c-5.02,22.75 -23.6,36.32 -50.21,36.32 -34.06,0 -56.66,-26.63 -56.66,-69.78 0,-42.33 22.44,-69.83 56.5,-69.83 27.78,0 46.01,16.32 50.2,37.65l21.16 0zm167.01 -54.79l-21.5 0 0 102.29c0,32.96 -20.66,54.46 -51.15,54.46 -29.43,0 -46.07,-17.08 -46.07,-48.12l0 -108.63 -21.16 0 0 112.16c0,39.29 23.26,63.77 61.28,63.77 27.5,0 48.39,-13.22 57.93,-34.5l0.49 0 0 32.51 20.18 0 0 -173.94zm47.84 -41.62l0 41.62 -24.86 0 0 17.85 24.86 0 0 113.27c0,31.31 11.51,43.75 40.18,43.75 4.52,0 13.88,-0.49 16.14,-1.1l0 -18.3c-1.26,0.16 -9.64,0.67 -11.9,0.67 -16.15,0 -23.26,-7.77 -23.26,-25.86l0 -112.43 34.39 0 0 -17.85 -34.39 0 0 -41.62 -21.16 0zm149.74 58.48c31.47,0 52.8,23.26 53.08,57.92l-108.14 0c1.93,-34.66 23.87,-57.92 55.06,-57.92zm51.98 107.86c-5.19,19.12 -23.75,32.35 -49.88,32.35 -34.55,0 -57.15,-24.25 -57.15,-63.71l0 -1.16 130.3 0 0 -9.36c0,-51.75 -29.27,-84.82 -74.95,-84.82 -46.8,0 -77.5,35.33 -77.5,89.34 0,54.84 30.69,88.57 78.81,88.57 37.76,0 66.25,-21.44 71.38,-51.2l-21 0zm118.5 51.2c28.33,0 50.43,-15.32 60.46,-38.85l0.5 0 0 36.87 20.33 0 0 -243.23 -21.49 0 0 105 -0.44 0c-9.42,-22.44 -31.69,-37.65 -59.8,-37.65 -43.33,0 -73.69,35.72 -73.69,88.85 0,53.18 30.53,89.01 74.13,89.01zm3.42 -158.79c33.45,0 56.54,28.61 56.54,69.83 0,41.51 -23.09,69.78 -56.54,69.78 -33.29,0 -56.06,-27.78 -56.06,-69.78 0,-41.89 22.77,-69.83 56.06,-69.83zm288.09 156.8l21.16 0 0 -243.39 -21.16 0 0 243.39zm-88.3 0l21.49 0 0 -156.09 35.5 0 0 -17.85 -35.5 0 0 -19.56c0.16,-18.69 7.77,-26.13 23.37,-26.13 4.35,0 9.05,0.5 12.62,1.33l0 -18.14c-4.35,-0.93 -9.09,-1.43 -14.44,-1.43 -28.98,0 -43.04,13.44 -43.04,44.04l0 19.89 -24.19 0 0 17.85 24.19 0 0 156.09zm205.03 -16.81c-24.19,0 -40.67,-12.73 -40.67,-31.47 0,-19.56 15.48,-30.86 44.7,-32.79l50.87 -3.53 0 19.18c0,27.45 -23.7,48.61 -54.9,48.61zm-4.19 18.74c26.63,0 50.21,-14.06 59.58,-35.22l0.5 0 0 33.29 20.17 0 0 -118.55c0,-34.99 -25.19,-57.32 -65.09,-57.32 -36.48,0 -63.77,21.66 -65.47,52.2l20.28 0c3.86,-20.67 20.84,-33.13 45.03,-33.13 28.12,0 44.09,14.72 44.09,40.07l0 14.83 -53.46 3.59c-41.67,2.86 -63.6,20.17 -63.6,49.87 0,30.04 23.26,50.38 57.98,50.38zm333.73 -175.87l-21.49 0 -39.36 149.81 -0.49 0 -43.77 -149.81 -21.66 0 -43.59 149.81 -0.5 0 -39.35 -149.81 -21.49 0 49.54 173.94 22.49 0 43.59 -144.84 0.44 0 43.6 144.84 22.49 0 49.54 -173.94zm24.26 173.94l21.16 0 0 -243.17 -21.16 0 0 243.17zm129.96 -157.08c31.47,0 52.8,23.26 53.08,57.92l-108.14 0c1.93,-34.66 23.87,-57.92 55.06,-57.92zm51.98 107.86c-5.19,19.12 -23.75,32.35 -49.88,32.35 -34.55,0 -57.15,-24.25 -57.15,-63.71l0 -1.16 130.3 0 0 -9.36c0,-51.75 -29.27,-84.82 -74.95,-84.82 -46.8,0 -77.5,35.33 -77.5,89.34 0,54.84 30.69,88.57 78.81,88.57 37.76,0 66.25,-21.44 71.38,-51.2l-21 0zm49.32 -77.88c0,22.98 14.88,37.21 44.93,44.81l29.42 7.45c23.6,5.78 32.47,13.88 32.47,28.6 0,18.41 -18.08,30.38 -44.09,30.38 -26.35,0 -43.6,-13.07 -46.19,-32.96l-21.49 0c2.42,29.6 29.05,50.82 66.41,50.82 39.08,0 66.86,-20.29 66.86,-49.65 0,-24.75 -13.17,-37.37 -47.95,-46.08l-26.67 -6.5c-22.22,-5.46 -32.53,-13.73 -32.53,-27.94 0,-17.64 17.42,-29.6 40.74,-29.6 24.57,0 40.56,13.12 42.66,32.79l20.39 0c-1.77,-29.87 -27.17,-50.87 -62.39,-50.87 -35.94,0 -62.56,20 -62.56,48.78zm154.71 0c0,22.98 14.88,37.21 44.93,44.81l29.42 7.45c23.6,5.78 32.47,13.88 32.47,28.6 0,18.41 -18.08,30.38 -44.09,30.38 -26.35,0 -43.6,-13.07 -46.19,-32.96l-21.49 0c2.42,29.6 29.05,50.82 66.41,50.82 39.08,0 66.86,-20.29 66.86,-49.65 0,-24.75 -13.17,-37.37 -47.95,-46.08l-26.67 -6.5c-22.22,-5.46 -32.53,-13.73 -32.53,-27.94 0,-17.64 17.42,-29.6 40.74,-29.6 24.57,0 40.56,13.12 42.66,32.79l20.39 0c-1.77,-29.87 -27.17,-50.87 -62.39,-50.87 -35.94,0 -62.56,20 -62.56,48.78zm160 127.1l21.16 0 0 -243.17 -21.16 0 0 243.17zm73.91 61.45c28.05,0 40.18,-11.29 55.39,-51.98l68.29 -183.42 -22.59 0 -53.47 152.23 -0.49 0 -53.29 -152.23 -22.93 0 65.42 174.98 -4.19 11.8c-8.1,22.27 -16.48,30.2 -32.46,30.2 -3.42,0 -7.77,-0.49 -10.36,-1.15l0 18.63c2.59,0.27 7.27,0.93 10.69,0.93zm139.38 -59.8c8.72,0 15.33,-6.78 15.33,-15.37 0,-8.72 -6.61,-15.33 -15.33,-15.33 -8.54,0 -15.32,6.61 -15.32,15.33 0,8.6 6.78,15.37 15.32,15.37z"/>
   <rect class="fil3" x="1257.54" y="3480.07" width="4945.14" height="19.25"/>
   <rect class="fil4" x="12844.83" y="897.55" width="3929.38" height="3376.22"/>
   <rect class="fil5" x="8026.73" y="5885.59" width="3929.38" height="3376.22"/>
   <g style="clip-path:url(#id1)">
    <image style="clip-path:url(#id2)" x="8215.6" y="800.25" width="8622.13" height="8622.13" xlink:href="ENGRAVING EXPRESS WEBSITE LANDING PAGE DESIGN 3_Images\ENGRAVING EXPRESS WEBSITE LANDING PAGE DESIGN 3_ImgID2.png"/>
   </g>
  </g>
 </g>
</svg>
