<?xml version="1.0" encoding="UTF-8"?>
<!DOCTYPE svg PUBLIC "-//W3C//DTD SVG 1.1//EN" "http://www.w3.org/Graphics/SVG/1.1/DTD/svg11.dtd">
<!-- Creator: CorelDRAW -->
<svg xmlns="http://www.w3.org/2000/svg" xml:space="preserve" width="162.56mm" height="91.4399mm" version="1.1" style="shape-rendering:geometricPrecision; text-rendering:geometricPrecision; image-rendering:optimizeQuality; fill-rule:evenodd; clip-rule:evenodd"
viewBox="0 0 17826.24 10027.25"
 xmlns:xlink="http://www.w3.org/1999/xlink"
 xmlns:xodm="http://www.corel.com/coreldraw/odm/2003">
 <defs>
  <style type="text/css">
   <![CDATA[
    .fil1 {fill:none}
    .fil5 {fill:#FEFEFE}
    .fil0 {fill:#078F03}
    .fil4 {fill:#FEFEFE;fill-rule:nonzero}
    .fil3 {fill:#FEFEFE;fill-rule:nonzero}
    .fil2 {fill:url(#id3);fill-opacity:0.600000}
   ]]>
  </style>
   <clipPath id="id0">
    <path d="M-0 0l17826.24 0 0 10027.25 -17826.24 0 0 -10027.25z"/>
   </clipPath>
    <clipPath id="id1">
     <path d="M10708.81 10027.25l1721.49 -10027.25 5395.94 0 0 10027.25 -7117.43 0z"/>
    </clipPath>
    <clipPath id="id2">
     <path d="M-0 0l17826.24 0 0 10027.25 -17826.24 0 0 -10027.25z"/>
    </clipPath>
  <linearGradient id="id3" gradientUnits="userSpaceOnUse" x1="11099.3" y1="129.34" x2="13611.36" y2="9897.91">
   <stop offset="0" style="stop-opacity:1; stop-color:#0B6E45"/>
   <stop offset="1" style="stop-opacity:1; stop-color:#078F03"/>
  </linearGradient>
 </defs>
 <g id="Layer_x0020_1">
  <metadata id="CorelCorpID_0Corel-Layer"/>
  <polygon class="fil0" points="-0,0 17826.24,0 17826.24,10027.25 -0,10027.25 "/>
  <g style="clip-path:url(#id0)">
   <g id="_2987271900864">
    <image x="-539.4" y="-2318.59" width="13141.82" height="13141.82" xlink:href="ENGRAVING EXPRESS WEBSITE LANDING PAGE DESIGN 1_Images\ENGRAVING EXPRESS WEBSITE LANDING PAGE DESIGN 1_ImgID1.png"/>
   </g>
   <g style="clip-path:url(#id1)">
    <image x="9758.49" y="-68.66" width="15631.3" height="15631.3" xlink:href="ENGRAVING EXPRESS WEBSITE LANDING PAGE DESIGN 1_Images\ENGRAVING EXPRESS WEBSITE LANDING PAGE DESIGN 1_ImgID2.png"/>
   </g>
   <g style="clip-path:url(#id2)">
    <image x="29184.09" y="-68.66" width="15631.3" height="15631.3" xlink:href="ENGRAVING EXPRESS WEBSITE LANDING PAGE DESIGN 1_Images\ENGRAVING EXPRESS WEBSITE LANDING PAGE DESIGN 1_ImgID3.png"/>
   </g>
  </g>
  <polygon class="fil1" points="-0,0 17826.24,0 17826.24,10027.25 -0,10027.25 "/>
  <polygon class="fil2" points="17826.24,0 10350.67,0 6884.42,10027.25 17826.24,10027.25 "/>
  <path class="fil3" d="M10651.75 4541.67l-392.9 0 0 -253.93 371.97 0 0 -105.44 -371.97 0 0 -240.93 392.9 0 0 -109.32 -519.65 0 0 819.7 519.65 0 0 -110.09zm118.23 110.28l123.28 0 0 -355.88c0,-97.1 55.63,-161.85 149.05,-161.85 90.33,0 133.55,52.34 133.55,145.96l0 371.77 123.27 0 0 -395.03c0,-141.89 -77.72,-228.14 -214.18,-228.14 -95.56,0 -157.58,37.99 -195.19,110.68l-2.32 0 0 -103.9 -117.46 0 0 616.39zm913.9 -103.51c-100.01,0 -164.37,-79.85 -164.37,-205.84 0,-126.58 64.36,-208.18 164.37,-208.18 100.4,0 167.09,83.35 167.09,208.18 0,124.24 -66.68,205.84 -167.09,205.84zm0.58 325.63c178.53,0 288.62,-90.71 288.62,-237.63l0 -600.88 -118.63 0 0 102.35 -2.32 0c-38.18,-67.84 -110.1,-108.16 -197.9,-108.16 -158.56,0 -260.31,122.12 -260.31,312.27 0,187.81 102.92,308.77 257.4,308.77 87.8,0 160.88,-39.74 196.93,-106.22l2.72 0 0 101.57c0,80.44 -63.19,131.42 -161.46,131.42 -75.98,0 -133.55,-30.05 -147.31,-77.53l-123.86 0c11.82,105.44 117.07,174.05 266.12,174.05zm414.22 -222.13l123.28 0 0 -367.89c0,-86.64 50.97,-142.67 132.18,-142.67 24.43,0 46.13,3.3 56.21,7.37l0 -115.53c-9.68,-1.74 -25,-3.49 -43.03,-3.49 -72.68,0 -129.47,41.48 -148.86,109.9l-2.32 0 0 -104.09 -117.46 0 0 616.39zm592.93 -91.87c-71.14,0 -117.08,-34.12 -117.08,-87.22 0,-54.86 43.81,-86.26 127.93,-91.49l150.03 -10.28 0 48.66c0,81.6 -69.39,140.33 -160.87,140.33zm-32.95 97.68c84.12,0 160.87,-41.87 194.99,-108.54l2.92 0 0 102.73 116.88 0 0 -423.33c0,-122.11 -96.53,-201.19 -247.14,-201.19 -138.77,0 -242.08,80.25 -245.58,189.17l115.33 0c10.86,-53.29 59.71,-87.99 126.77,-87.99 82.57,0 129.67,38.57 129.67,109.12l0 47.68 -166.5 9.69c-152.35,9.5 -235.89,71.52 -235.89,179.68 0,110.68 85.28,182.98 208.56,182.98zm961.58 -622.2l-127.73 0 -157.78 495.43 -2.91 0 -157.2 -495.43 -130.07 0 222.52 616.39 131.23 0 221.93 -616.39zm78.69 616.39l123.28 0 0 -616.39 -123.28 0 0 616.39zm61.64 -704.38c39.74,0 72.1,-31.79 72.1,-70.95 0,-40.31 -32.36,-70.94 -72.1,-70.94 -39.74,0 -72.1,30.63 -72.1,70.94 0,39.16 32.36,70.95 72.1,70.95zm192.09 704.38l123.28 0 0 -355.88c0,-97.1 55.63,-161.85 149.05,-161.85 90.33,0 133.55,52.34 133.55,145.96l0 371.77 123.27 0 0 -395.03c0,-141.89 -77.72,-228.14 -214.18,-228.14 -95.56,0 -157.58,37.99 -195.19,110.68l-2.32 0 0 -103.9 -117.46 0 0 616.39zm913.9 -103.51c-100.01,0 -164.37,-79.85 -164.37,-205.84 0,-126.58 64.36,-208.18 164.37,-208.18 100.4,0 167.09,83.35 167.09,208.18 0,124.24 -66.68,205.84 -167.09,205.84zm0.58 325.63c178.53,0 288.62,-90.71 288.62,-237.63l0 -600.88 -118.63 0 0 102.35 -2.32 0c-38.18,-67.84 -110.1,-108.16 -197.9,-108.16 -158.56,0 -260.31,122.12 -260.31,312.27 0,187.81 102.92,308.77 257.4,308.77 87.8,0 160.88,-39.74 196.93,-106.22l2.72 0 0 101.57c0,80.44 -63.19,131.42 -161.46,131.42 -75.98,0 -133.55,-30.05 -147.31,-77.53l-123.86 0c11.82,105.44 117.07,174.05 266.12,174.05zm-4268.31 346.74l5.61 0 177.17 618.13 119.78 0 221.56 -819.9 -132.39 0 -151.57 641.97 -4.46 0 -173.87 -641.97 -118.04 0 -173.28 641.97 -4.46 0 -151.57 -641.97 -132.39 0 220.96 819.9 120.37 0 176.58 -618.13zm618.32 618.13l123.08 0 0 -352.96c0,-98.86 57.96,-164.76 153.71,-164.76 90.13,0 136.07,55.63 136.07,147.7l0 370.02 123.28 0 0 -393.86c0,-139.17 -81.21,-229.3 -216.7,-229.3 -94.21,0 -157.78,37.99 -194.61,110.68l-2.71 0 0 -343.66 -122.12 0 0 856.14zm916.24 -524.5c89.93,0 150.8,63.96 153.51,160.49l-313.43 0c6.79,-95.36 71.14,-160.49 159.92,-160.49zm152.93 343.85c-17.06,53.69 -73.26,87.62 -144.98,87.62 -101.38,0 -168.45,-70.17 -168.45,-176.39l0 -7.37 437.29 0 0 -43.03c0,-187.63 -106.81,-304.7 -276.21,-304.7 -173.09,0 -285.51,125.02 -285.51,318.85 0,192.29 111.25,312.65 290.54,312.65 138.79,0 247.34,-77.33 264.77,-187.63l-117.46 0zm222.13 180.65l123.28 0 0 -367.89c0,-86.64 50.97,-142.67 132.18,-142.67 24.43,0 46.13,3.3 56.21,7.37l0 -115.53c-9.68,-1.74 -25,-3.49 -43.03,-3.49 -72.68,0 -129.47,41.48 -148.86,109.9l-2.32 0 0 -104.09 -117.46 0 0 616.39zm622.2 -524.5c89.93,0 150.8,63.96 153.51,160.49l-313.43 0c6.79,-95.36 71.14,-160.49 159.92,-160.49zm152.93 343.85c-17.06,53.69 -73.26,87.62 -144.98,87.62 -101.38,0 -168.45,-70.17 -168.45,-176.39l0 -7.37 437.29 0 0 -43.03c0,-187.63 -106.81,-304.7 -276.21,-304.7 -173.09,0 -285.51,125.02 -285.51,318.85 0,192.29 111.25,312.65 290.54,312.65 138.79,0 247.34,-77.33 264.77,-187.63l-117.46 0zm742.56 -435.73l-127.73 0 -157.78 495.43 -2.91 0 -157.2 -495.43 -130.07 0 222.52 616.39 131.23 0 221.93 -616.39zm314.01 91.88c89.93,0 150.8,63.96 153.51,160.49l-313.43 0c6.79,-95.36 71.14,-160.49 159.92,-160.49zm152.93 343.85c-17.06,53.69 -73.26,87.62 -144.98,87.62 -101.38,0 -168.45,-70.17 -168.45,-176.39l0 -7.37 437.29 0 0 -43.03c0,-187.63 -106.81,-304.7 -276.21,-304.7 -173.09,0 -285.51,125.02 -285.51,318.85 0,192.29 111.25,312.65 290.54,312.65 138.79,0 247.34,-77.33 264.77,-187.63l-117.46 0zm222.13 180.65l123.28 0 0 -367.89c0,-86.64 50.97,-142.67 132.18,-142.67 24.43,0 46.13,3.3 56.21,7.37l0 -115.53c-9.68,-1.74 -25,-3.49 -43.03,-3.49 -72.68,0 -129.47,41.48 -148.86,109.9l-2.32 0 0 -104.09 -117.46 0 0 616.39zm-4228.4 1187l0 -335.91 289 -483.99 -140.91 0 -208.56 361.88 -4.07 0 -208.56 -361.88 -142.07 0 288.42 483.99 0 335.91 126.77 0zm520.83 6.97c179.29,0 291.72,-121.52 291.72,-315.56 0,-193.82 -113,-315.94 -291.72,-315.94 -178.51,0 -292.1,122.7 -292.1,315.94 0,194.03 113,315.56 292.1,315.56zm0 -102.33c-104.87,0 -167.67,-78.7 -167.67,-213.22 0,-133.74 62.8,-213.59 167.67,-213.59 105.05,0 167.27,79.27 167.27,213.59 0,134.52 -62.22,213.22 -167.27,213.22zm915.65 -521.03l-123.27 0 0 355.68c0,97.7 -56.03,161.85 -147.9,161.85 -88.77,0 -133.54,-50.39 -133.54,-145.36l0 -372.16 -123.28 0 0 395.42c0,141.49 81.8,227.94 216.12,227.94 94.01,0 156.42,-39.15 192.09,-112.03l2.32 0 0 105.05 117.46 0 0 -616.39zm941.04 616.39l134.72 0 -295.98 -819.9 -137.24 0 -295.97 819.9 132.38 0 75.02 -220.96 312.26 0 74.82 220.96zm-232.8 -683.84l3.5 0 122.11 360.53 -247.51 0 121.91 -360.53zm444.66 683.84l123.28 0 0 -367.89c0,-86.64 50.97,-142.67 132.18,-142.67 24.43,0 46.13,3.3 56.21,7.37l0 -115.53c-9.68,-1.74 -25,-3.49 -43.03,-3.49 -72.68,0 -129.47,41.48 -148.86,109.9l-2.32 0 0 -104.09 -117.46 0 0 616.39zm622.2 -524.5c89.93,0 150.8,63.96 153.51,160.49l-313.43 0c6.79,-95.36 71.14,-160.49 159.92,-160.49zm152.93 343.85c-17.06,53.69 -73.26,87.62 -144.98,87.62 -101.38,0 -168.45,-70.17 -168.45,-176.39l0 -7.37 437.29 0 0 -43.03c0,-187.63 -106.81,-304.7 -276.21,-304.7 -173.09,0 -285.51,125.02 -285.51,318.85 0,192.29 111.25,312.65 290.54,312.65 138.79,0 247.34,-77.33 264.77,-187.63l-117.46 0z"/>
  <path class="fil4" d="M10202.91 3101.21c-80.72,0 -131.28,57.67 -131.28,149.27 0,91.68 50.56,149.15 131.28,149.15 80.87,0 131.43,-57.47 131.43,-149.15 0,-91.6 -50.76,-149.27 -131.43,-149.27zm0 25.44c63.43,0 103.52,47.9 103.52,123.83 0,75.81 -40.09,123.7 -103.52,123.7 -63.48,0 -103.37,-47.89 -103.37,-123.7 0,-75.93 39.88,-123.83 103.37,-123.83zm195.99 268.46l26.27 0 0 -126.91c0,-40.29 24.49,-67.73 63.08,-67.73 36.74,0 57.6,21.82 57.6,59.93l0 134.71 26.26 0 0 -138.95c0,-48.84 -28.86,-79.36 -76.48,-79.36 -34.96,0 -59.25,15.88 -71.29,42.69l-0.82 0 0 -40.29 -24.63 0 0 215.91zm372.83 -102.28l0 -24.9 -131.35 0 0 24.9 131.35 0zm56.84 23.53c3.02,49.68 45.36,83.2 105.97,83.2 64.1,0 104.8,-33.33 104.8,-83.94 0,-40.3 -24.28,-62.46 -82.5,-77.1l-31.34 -8.01c-42.55,-10.81 -60.61,-25.45 -60.61,-50.29 0,-31.81 29.68,-54.04 69.85,-54.04 41.18,0 70.12,21.61 72.72,54.25l27.29 0c-1.63,-45.84 -42.76,-79.15 -99.2,-79.15 -57.06,0 -98.99,33.31 -98.99,79.97 0,38.04 23.74,60.69 77.31,74.29l35.91 9.17c42.96,10.81 61.64,26.82 61.64,53.84 0,32.49 -31.13,56.1 -74.5,56.1 -45.36,0 -78.06,-23.61 -80.99,-58.29l-27.37 0zm274.66 78.75l26.27 0 0 -215.91 -26.27 0 0 215.91zm13.01 -258.6c9.78,0 17.79,-8.21 17.79,-17.79 0,-9.92 -8.01,-17.93 -17.79,-17.93 -9.72,0 -17.93,8.01 -17.93,17.93 0,9.57 8.21,17.79 17.93,17.79zm98.7 -8.96l0 51.65 -30.86 0 0 22.16 30.86 0 0 140.59c0,38.85 14.29,54.31 49.87,54.31 5.6,0 17.24,-0.61 20.05,-1.37l0 -22.71c-1.58,0.21 -11.97,0.82 -14.78,0.82 -20.05,0 -28.87,-9.65 -28.87,-32.09l0 -139.56 42.69 0 0 -22.16 -42.69 0 0 -51.65 -26.26 0zm209.53 72.58c39.06,0 65.54,28.87 65.88,71.9l-134.22 0c2.39,-43.03 29.62,-71.9 68.34,-71.9zm64.51 133.88c-6.43,23.74 -29.49,40.16 -61.91,40.16 -42.89,0 -70.94,-30.1 -70.94,-79.09l0 -1.44 161.73 0 0 -11.63c0,-64.24 -36.33,-105.28 -93.05,-105.28 -58.08,0 -96.18,43.85 -96.18,110.9 0,68.08 38.11,109.94 97.83,109.94 46.87,0 82.23,-26.61 88.59,-63.56l-26.07 0zm393.91 61.09l34.41 0 -50 -52.61c16.55,-25.52 26.2,-59.38 26.2,-98.51l0 -11.84 -25.45 0 0 11.63c0,33.12 -6.57,59.99 -18.68,80.46l-79.7 -85.32c46.79,-24.29 65.47,-46.52 65.47,-75.25 0,-36.33 -29.96,-62.46 -70.73,-62.46 -40.57,0 -71.22,26.95 -71.22,62.46 0,21.27 10.12,39.54 39.06,69.64 -1.16,0.41 -11.01,5.81 -15.19,7.86 -38.11,20.39 -55.48,46.05 -55.48,78.33 0,46.93 38.32,80.05 94.07,80.05 35.3,0 70.68,-14.23 95.37,-38.32l31.88 33.86zm-149.89 -137.37c1.16,-0.82 12.59,-7.05 14.43,-7.8l87.09 93.86c-17.64,19.43 -48.37,32.49 -76.68,32.49 -41.53,0 -69.58,-24.49 -69.58,-58.35 0,-23.26 12.99,-41.94 44.74,-60.2zm21.61 -34.49c-26.75,-26.88 -35.57,-41.32 -35.57,-58.22 0,-23.87 19.64,-42.07 45.37,-42.07 26.13,0 45.02,17.64 45.02,41.73 0,21.62 -15.46,39.06 -54.81,58.56zm293.54 93.11c3.02,49.68 45.36,83.2 105.97,83.2 64.1,0 104.8,-33.33 104.8,-83.94 0,-40.3 -24.28,-62.46 -82.5,-77.1l-31.34 -8.01c-42.55,-10.81 -60.61,-25.45 -60.61,-50.29 0,-31.81 29.68,-54.04 69.85,-54.04 41.18,0 70.12,21.61 72.72,54.25l27.29 0c-1.63,-45.84 -42.76,-79.15 -99.2,-79.15 -57.06,0 -98.99,33.31 -98.99,79.97 0,38.04 23.74,60.69 77.31,74.29l35.91 9.17c42.96,10.81 61.64,26.82 61.64,53.84 0,32.49 -31.13,56.1 -74.5,56.1 -45.36,0 -78.06,-23.61 -80.99,-58.29l-27.37 0zm286.57 -188.81l0 51.65 -30.86 0 0 22.16 30.86 0 0 140.59c0,38.85 14.29,54.31 49.87,54.31 5.6,0 17.24,-0.61 20.05,-1.37l0 -22.71c-1.58,0.21 -11.97,0.82 -14.78,0.82 -20.05,0 -28.87,-9.65 -28.87,-32.09l0 -139.56 42.69 0 0 -22.16 -42.69 0 0 -51.65 -26.26 0zm304 51.65l-26.68 0 0 126.97c0,40.9 -25.65,67.59 -63.48,67.59 -36.54,0 -57.2,-21.21 -57.2,-59.73l0 -134.84 -26.26 0 0 139.21c0,48.79 28.86,79.16 76.07,79.16 34.14,0 60.07,-16.43 71.9,-42.83l0.61 0 0 40.37 25.04 0 0 -215.91zm152.48 218.38c35.17,0 62.59,-19.03 75.05,-48.24l0.61 0 0 45.77 25.24 0 0 -301.9 -26.68 0 0 130.32 -0.55 0c-11.7,-27.84 -39.33,-46.73 -74.23,-46.73 -53.78,0 -91.47,44.34 -91.47,110.28 0,66.02 37.9,110.49 92.02,110.49zm4.24 -197.1c41.52,0 70.19,35.51 70.19,86.67 0,51.52 -28.68,86.62 -70.19,86.62 -41.33,0 -69.58,-34.49 -69.58,-86.62 0,-51.99 28.25,-86.67 69.58,-86.67zm172.03 194.63l26.27 0 0 -215.91 -26.27 0 0 215.91zm13.01 -258.6c9.78,0 17.79,-8.21 17.79,-17.79 0,-9.92 -8.01,-17.93 -17.79,-17.93 -9.72,0 -17.93,8.01 -17.93,17.93 0,9.57 8.21,17.79 17.93,17.79zm173.95 261.07c59.46,0 97.97,-43.04 97.97,-110.43 0,-67.39 -38.51,-110.35 -97.97,-110.35 -59.52,0 -97.83,42.96 -97.83,110.35 0,67.39 38.3,110.43 97.83,110.43zm0 -23.81c-43.85,0 -71.15,-32.71 -71.15,-86.62 0,-53.77 27.29,-86.67 71.15,-86.67 44,0 71.29,32.7 71.29,86.67 0,53.91 -27.29,86.62 -71.29,86.62zm238.87 -57.41c3.02,49.68 45.36,83.2 105.97,83.2 64.1,0 104.8,-33.33 104.8,-83.94 0,-40.3 -24.28,-62.46 -82.5,-77.1l-31.34 -8.01c-42.55,-10.81 -60.61,-25.45 -60.61,-50.29 0,-31.81 29.68,-54.04 69.85,-54.04 41.18,0 70.12,21.61 72.72,54.25l27.29 0c-1.63,-45.84 -42.76,-79.15 -99.2,-79.15 -57.06,0 -98.99,33.31 -98.99,79.97 0,38.04 23.74,60.69 77.31,74.29l35.91 9.17c42.96,10.81 61.64,26.82 61.64,53.84 0,32.49 -31.13,56.1 -74.5,56.1 -45.36,0 -78.06,-23.61 -80.99,-58.29l-27.37 0zm359.84 -116.23c39.06,0 65.54,28.87 65.88,71.9l-134.22 0c2.39,-43.03 29.62,-71.9 68.34,-71.9zm64.51 133.88c-6.43,23.74 -29.49,40.16 -61.91,40.16 -42.89,0 -70.94,-30.1 -70.94,-79.09l0 -1.44 161.73 0 0 -11.63c0,-64.24 -36.33,-105.28 -93.05,-105.28 -58.08,0 -96.18,43.85 -96.18,110.9 0,68.08 38.11,109.94 97.83,109.94 46.87,0 82.23,-26.61 88.59,-63.56l-26.07 0zm89.41 61.09l26.27 0 0 -134.03c0,-34.88 19.63,-58.9 50.28,-58.9 9.23,0 16.83,1.37 20.45,3l0 -25.99c-3.41,-1.24 -9.85,-2.47 -16.82,-2.47 -26.89,0 -47.34,15.06 -54.73,40.64l-0.82 0 0 -38.17 -24.63 0 0 215.91zm319.41 -215.91l-27.65 0 -66.5 187.58 -0.55 0 -66.29 -187.58 -27.84 0 80.52 215.91 27.97 0 80.33 -215.91zm52.79 215.91l26.27 0 0 -215.91 -26.27 0 0 215.91zm13.01 -258.6c9.78,0 17.79,-8.21 17.79,-17.79 0,-9.92 -8.01,-17.93 -17.79,-17.93 -9.72,0 -17.93,8.01 -17.93,17.93 0,9.57 8.21,17.79 17.93,17.79zm261.53 110.69c-5.21,-38.11 -38.32,-70.4 -88.8,-70.4 -58.49,0 -96.6,43.51 -96.6,110.35 0,68.21 38.3,110.43 97,110.43 47.69,0 82.38,-28.19 88.59,-68.9l-26.26 0c-6.23,28.26 -29.28,45.09 -62.33,45.09 -42.27,0 -70.32,-33.05 -70.32,-86.62 0,-52.54 27.84,-86.67 70.13,-86.67 34.48,0 57.12,20.25 62.32,46.73l26.27 0zm143.71 -47.07c39.06,0 65.54,28.87 65.88,71.9l-134.22 0c2.39,-43.03 29.62,-71.9 68.34,-71.9zm64.51 133.88c-6.43,23.74 -29.49,40.16 -61.91,40.16 -42.89,0 -70.94,-30.1 -70.94,-79.09l0 -1.44 161.73 0 0 -11.63c0,-64.24 -36.33,-105.28 -93.05,-105.28 -58.08,0 -96.18,43.85 -96.18,110.9 0,68.08 38.11,109.94 97.83,109.94 46.87,0 82.23,-26.61 88.59,-63.56l-26.07 0zm84.89 -96.66c0,28.52 18.48,46.18 55.76,55.62l36.53 9.23c29.28,7.18 40.3,17.24 40.3,35.51 0,22.84 -22.44,37.69 -54.73,37.69 -32.7,0 -54.12,-16.21 -57.33,-40.9l-26.68 0c3,36.74 36.06,63.08 82.43,63.08 48.51,0 82.99,-25.18 82.99,-61.64 0,-30.73 -16.35,-46.39 -59.52,-57.2l-33.11 -8.07c-27.57,-6.78 -40.37,-17.04 -40.37,-34.69 0,-21.9 21.61,-36.74 50.55,-36.74 30.52,0 50.36,16.27 52.95,40.71l25.31 0c-2.18,-37.09 -33.72,-63.15 -77.44,-63.15 -44.6,0 -77.65,24.84 -77.65,60.55z"/>
  <path class="fil4" d="M10394.77 7808.5l-118.66 0 0 -89.41 112.71 0 0 -19.73 -112.71 0 0 -83.77 118.66 0 0 -20.07 -140.5 0 0 233.03 140.5 0 0 -20.06zm92.8 -51.59l47.9 71.71 24.19 0 -60.29 -88.35 60.8 -85.59 -24.2 0 -47.72 70.11 -0.5 0 -48.22 -70.11 -24.2 0 60.63 86.42 -61.29 87.52 24.19 0 48.06 -71.71 0.66 0zm176.53 -104.17c-27.67,0 -51.15,15.81 -60.35,37.98l-0.5 0 0 -36.05 -20 0 0 231.48 21.16 0 0 -93.31 0.44 0c9.76,22.6 31.58,37.76 59.58,37.76 43.87,0 73.58,-35.83 73.58,-88.96 0,-53.02 -29.87,-88.9 -73.91,-88.9zm-3.7 158.68c-33.17,0 -56.16,-28.27 -56.16,-69.78 0,-41.22 22.98,-69.83 56.16,-69.83 33.62,0 56.11,28.11 56.11,70 0,41.84 -22.49,69.61 -56.11,69.61zm107.59 17.19l21.16 0 0 -107.97c0,-28.11 15.81,-47.45 40.51,-47.45 7.45,0 13.56,1.1 16.48,2.42l0 -20.94c-2.75,-1 -7.94,-1.98 -13.55,-1.98 -21.67,0 -38.14,12.13 -44.09,32.73l-0.67 0 0 -30.75 -19.84 0 0 173.94zm160.99 -157.08c31.47,0 52.8,23.26 53.08,57.92l-108.14 0c1.93,-34.66 23.87,-57.92 55.06,-57.92zm51.98 107.86c-5.19,19.12 -23.75,32.35 -49.88,32.35 -34.55,0 -57.15,-24.25 -57.15,-63.71l0 -1.16 130.3 0 0 -9.36c0,-51.75 -29.27,-84.82 -74.95,-84.82 -46.8,0 -77.5,35.33 -77.5,89.34 0,54.84 30.69,88.57 78.81,88.57 37.76,0 66.25,-21.44 71.38,-51.2l-21 0zm49.32 -77.88c0,22.98 14.88,37.21 44.93,44.81l29.42 7.45c23.6,5.78 32.47,13.88 32.47,28.6 0,18.41 -18.08,30.38 -44.09,30.38 -26.35,0 -43.6,-13.07 -46.19,-32.96l-21.49 0c2.42,29.6 29.05,50.82 66.41,50.82 39.08,0 66.86,-20.29 66.86,-49.65 0,-24.75 -13.17,-37.37 -47.95,-46.08l-26.67 -6.5c-22.22,-5.46 -32.53,-13.73 -32.53,-27.94 0,-17.64 17.42,-29.6 40.74,-29.6 24.57,0 40.56,13.12 42.66,32.79l20.39 0c-1.77,-29.87 -27.17,-50.87 -62.39,-50.87 -35.94,0 -62.56,20 -62.56,48.78zm154.71 0c0,22.98 14.88,37.21 44.93,44.81l29.42 7.45c23.6,5.78 32.47,13.88 32.47,28.6 0,18.41 -18.08,30.38 -44.09,30.38 -26.35,0 -43.6,-13.07 -46.19,-32.96l-21.49 0c2.42,29.6 29.05,50.82 66.41,50.82 39.08,0 66.86,-20.29 66.86,-49.65 0,-24.75 -13.17,-37.37 -47.95,-46.08l-26.67 -6.5c-22.22,-5.46 -32.53,-13.73 -32.53,-27.94 0,-17.64 17.42,-29.6 40.74,-29.6 24.57,0 40.56,13.12 42.66,32.79l20.39 0c-1.77,-29.87 -27.17,-50.87 -62.39,-50.87 -35.94,0 -62.56,20 -62.56,48.78zm241.25 -88.46l0 41.62 -24.86 0 0 17.85 24.86 0 0 113.27c0,31.31 11.51,43.75 40.18,43.75 4.52,0 13.88,-0.49 16.14,-1.1l0 -18.3c-1.26,0.16 -9.64,0.67 -11.9,0.67 -16.15,0 -23.26,-7.77 -23.26,-25.86l0 -112.43 34.39 0 0 -17.85 -34.39 0 0 -41.62 -21.16 0zm225.87 41.62l-21.5 0 0 102.29c0,32.96 -20.66,54.46 -51.15,54.46 -29.43,0 -46.07,-17.08 -46.07,-48.12l0 -108.63 -21.16 0 0 112.16c0,39.29 23.26,63.77 61.28,63.77 27.5,0 48.39,-13.22 57.93,-34.5l0.49 0 0 32.51 20.18 0 0 -173.94zm38.25 173.94l21.16 0 0 -107.97c0,-28.11 15.81,-47.45 40.51,-47.45 7.45,0 13.56,1.1 16.48,2.42l0 -20.94c-2.75,-1 -7.94,-1.98 -13.55,-1.98 -21.67,0 -38.14,12.13 -44.09,32.73l-0.67 0 0 -30.75 -19.84 0 0 173.94zm102.35 0l21.16 0 0 -102.24c0,-32.47 19.73,-54.57 50.82,-54.57 29.6,0 46.41,17.58 46.41,48.28l0 108.52 21.16 0 0 -111.94c0,-39.35 -23.26,-63.93 -61.62,-63.93 -28.16,0 -47.73,12.79 -57.43,34.39l-0.67 0 0 -32.46 -19.84 0 0 173.94zm232.7 -16.81c-24.19,0 -40.67,-12.73 -40.67,-31.47 0,-19.56 15.48,-30.86 44.7,-32.79l50.87 -3.53 0 19.18c0,27.45 -23.7,48.61 -54.9,48.61zm-4.19 18.74c26.63,0 50.21,-14.06 59.58,-35.22l0.5 0 0 33.29 20.17 0 0 -118.55c0,-34.99 -25.19,-57.32 -65.09,-57.32 -36.48,0 -63.77,21.66 -65.47,52.2l20.28 0c3.86,-20.67 20.84,-33.13 45.03,-33.13 28.12,0 44.09,14.72 44.09,40.07l0 14.83 -53.46 3.59c-41.67,2.86 -63.6,20.17 -63.6,49.87 0,30.04 23.26,50.38 57.98,50.38zm117.84 -1.93l21.16 0 0 -107.97c0,-28.11 15.81,-47.45 40.51,-47.45 7.45,0 13.56,1.1 16.48,2.42l0 -20.94c-2.75,-1 -7.94,-1.98 -13.55,-1.98 -21.67,0 -38.14,12.13 -44.09,32.73l-0.67 0 0 -30.75 -19.84 0 0 173.94zm162.59 1.98c47.9,0 78.92,-34.66 78.92,-88.96 0,-54.29 -31.02,-88.9 -78.92,-88.9 -47.94,0 -78.81,34.61 -78.81,88.9 0,54.29 30.87,88.96 78.81,88.96zm0 -19.18c-35.32,0 -57.32,-26.35 -57.32,-69.78 0,-43.32 22,-69.83 57.32,-69.83 35.44,0 57.43,26.34 57.43,69.83 0,43.43 -21.99,69.78 -57.43,69.78zm247.74 -156.75l-21.5 0 0 102.29c0,32.96 -20.66,54.46 -51.15,54.46 -29.43,0 -46.07,-17.08 -46.07,-48.12l0 -108.63 -21.16 0 0 112.16c0,39.29 23.26,63.77 61.28,63.77 27.5,0 48.39,-13.22 57.93,-34.5l0.49 0 0 32.51 20.18 0 0 -173.94zm38.25 173.94l21.16 0 0 -102.24c0,-32.47 19.73,-54.57 50.82,-54.57 29.6,0 46.41,17.58 46.41,48.28l0 108.52 21.16 0 0 -111.94c0,-39.35 -23.26,-63.93 -61.62,-63.93 -28.16,0 -47.73,12.79 -57.43,34.39l-0.67 0 0 -32.46 -19.84 0 0 173.94zm242.68 1.98c28.33,0 50.43,-15.32 60.46,-38.85l0.5 0 0 36.87 20.33 0 0 -243.22 -21.49 0 0 105 -0.44 0c-9.42,-22.44 -31.69,-37.65 -59.8,-37.65 -43.33,0 -73.69,35.72 -73.69,88.85 0,53.18 30.53,89.01 74.13,89.01zm3.42 -158.79c33.45,0 56.54,28.61 56.54,69.83 0,41.51 -23.09,69.78 -56.54,69.78 -33.29,0 -56.06,-27.78 -56.06,-69.78 0,-41.89 22.77,-69.83 56.06,-69.83zm130.94 195.82l19.9 -70.11 -22.82 0 -13.89 70.11 16.81 0zm221.18 -37.03c44.04,0 73.58,-35.66 73.58,-88.96 0,-53.18 -29.54,-88.9 -73.25,-88.9 -27.5,0 -49.87,14.22 -59.91,37.65l-0.44 0 0 -105 -21.16 0 0 243.22 20.17 0 0 -36.81 0.5 0c10.35,24.47 32.68,38.8 60.51,38.8zm-3.59 -158.79c33.35,0 55.67,27.94 55.67,69.83 0,42 -22.33,69.78 -55.84,69.78 -33.28,0 -56.43,-28.61 -56.43,-69.61 0,-41.22 23.15,-70 56.6,-70zm245.99 -17.14l-21.5 0 0 102.29c0,32.96 -20.66,54.46 -51.15,54.46 -29.43,0 -46.07,-17.08 -46.07,-48.12l0 -108.63 -21.16 0 0 112.16c0,39.29 23.26,63.77 61.28,63.77 27.5,0 48.39,-13.22 57.93,-34.5l0.49 0 0 32.51 20.18 0 0 -173.94zm39.91 173.94l21.16 0 0 -243.17 -21.16 0 0 243.17zm84.33 -91.27l-0.16 0 0 -151.9 -21.16 0 0 243.17 21.16 0 0 -67.85 19.67 -17.91 70.11 85.75 25.19 0 -80.14 -98.83 78.48 -75.12 -26.45 0 -86.7 82.67zm280.09 93.25c47.9,0 78.92,-34.66 78.92,-88.96 0,-54.29 -31.02,-88.9 -78.92,-88.9 -47.94,0 -78.81,34.61 -78.81,88.9 0,54.29 30.87,88.96 78.81,88.96zm0 -19.18c-35.32,0 -57.32,-26.35 -57.32,-69.78 0,-43.32 22,-69.83 57.32,-69.83 35.44,0 57.43,26.34 57.43,69.83 0,43.43 -21.99,69.78 -57.43,69.78zm108.85 17.19l21.16 0 0 -107.97c0,-28.11 15.81,-47.45 40.51,-47.45 7.45,0 13.56,1.1 16.48,2.42l0 -20.94c-2.75,-1 -7.94,-1.98 -13.55,-1.98 -21.67,0 -38.14,12.13 -44.09,32.73l-0.67 0 0 -30.75 -19.84 0 0 173.94zm157.91 1.98c28.33,0 50.43,-15.32 60.46,-38.85l0.5 0 0 36.87 20.33 0 0 -243.22 -21.49 0 0 105 -0.44 0c-9.42,-22.44 -31.69,-37.65 -59.8,-37.65 -43.33,0 -73.69,35.72 -73.69,88.85 0,53.18 30.53,89.01 74.13,89.01zm3.42 -158.79c33.45,0 56.54,28.61 56.54,69.83 0,41.51 -23.09,69.78 -56.54,69.78 -33.29,0 -56.06,-27.78 -56.06,-69.78 0,-41.89 22.77,-69.83 56.06,-69.83zm186.5 -0.27c31.47,0 52.8,23.26 53.08,57.92l-108.14 0c1.93,-34.66 23.87,-57.92 55.06,-57.92zm51.98 107.86c-5.19,19.12 -23.75,32.35 -49.88,32.35 -34.55,0 -57.15,-24.25 -57.15,-63.71l0 -1.16 130.3 0 0 -9.36c0,-51.75 -29.27,-84.82 -74.95,-84.82 -46.8,0 -77.5,35.33 -77.5,89.34 0,54.84 30.69,88.57 78.81,88.57 37.76,0 66.25,-21.44 71.38,-51.2l-21 0zm52.97 49.22l21.16 0 0 -107.97c0,-28.11 15.81,-47.45 40.51,-47.45 7.45,0 13.56,1.1 16.48,2.42l0 -20.94c-2.75,-1 -7.94,-1.98 -13.55,-1.98 -21.67,0 -38.14,12.13 -44.09,32.73l-0.67 0 0 -30.75 -19.84 0 0 173.94zm97.77 -127.1c0,22.98 14.88,37.21 44.93,44.81l29.42 7.45c23.6,5.78 32.47,13.88 32.47,28.6 0,18.41 -18.08,30.38 -44.09,30.38 -26.35,0 -43.6,-13.07 -46.19,-32.96l-21.49 0c2.42,29.6 29.05,50.82 66.41,50.82 39.08,0 66.86,-20.29 66.86,-49.65 0,-24.75 -13.17,-37.37 -47.95,-46.08l-26.67 -6.5c-22.22,-5.46 -32.53,-13.73 -32.53,-27.94 0,-17.64 17.42,-29.6 40.74,-29.6 24.57,0 40.56,13.12 42.66,32.79l20.39 0c-1.77,-29.87 -27.17,-50.87 -62.39,-50.87 -35.94,0 -62.56,20 -62.56,48.78zm287.21 110.28c-24.19,0 -40.67,-12.73 -40.67,-31.47 0,-19.56 15.48,-30.86 44.7,-32.79l50.87 -3.53 0 19.18c0,27.45 -23.7,48.61 -54.9,48.61zm-4.19 18.74c26.63,0 50.21,-14.06 59.58,-35.22l0.5 0 0 33.29 20.17 0 0 -118.55c0,-34.99 -25.19,-57.32 -65.09,-57.32 -36.48,0 -63.77,21.66 -65.47,52.2l20.28 0c3.86,-20.67 20.84,-33.13 45.03,-33.13 28.12,0 44.09,14.72 44.09,40.07l0 14.83 -53.46 3.59c-41.67,2.86 -63.6,20.17 -63.6,49.87 0,30.04 23.26,50.38 57.98,50.38zm117.84 -1.93l21.16 0 0 -102.24c0,-32.47 19.73,-54.57 50.82,-54.57 29.6,0 46.41,17.58 46.41,48.28l0 108.52 21.16 0 0 -111.94c0,-39.35 -23.26,-63.93 -61.62,-63.93 -28.16,0 -47.73,12.79 -57.43,34.39l-0.67 0 0 -32.46 -19.84 0 0 173.94zm242.68 1.98c28.33,0 50.43,-15.32 60.46,-38.85l0.5 0 0 36.87 20.33 0 0 -243.22 -21.49 0 0 105 -0.44 0c-9.42,-22.44 -31.69,-37.65 -59.8,-37.65 -43.33,0 -73.69,35.72 -73.69,88.85 0,53.18 30.53,89.01 74.13,89.01zm3.42 -158.79c33.45,0 56.54,28.61 56.54,69.83 0,41.51 -23.09,69.78 -56.54,69.78 -33.29,0 -56.06,-27.78 -56.06,-69.78 0,-41.89 22.77,-69.83 56.06,-69.83zm192.85 156.8l21.16 0 0 -243.17 -21.16 0 0 243.17zm63 0l21.16 0 0 -173.94 -21.16 0 0 173.94zm10.47 -208.33c7.87,0 14.33,-6.61 14.33,-14.33 0,-7.99 -6.46,-14.44 -14.33,-14.44 -7.83,0 -14.44,6.45 -14.44,14.44 0,7.72 6.61,14.33 14.44,14.33zm186.78 34.39l-22.26 0 -53.58 151.12 -0.44 0 -53.4 -151.12 -22.44 0 64.87 173.94 22.55 0 64.7 -173.94zm87.08 16.87c31.47,0 52.8,23.26 53.08,57.92l-108.14 0c1.93,-34.66 23.87,-57.92 55.06,-57.92zm51.98 107.86c-5.19,19.12 -23.75,32.35 -49.88,32.35 -34.55,0 -57.15,-24.25 -57.15,-63.71l0 -1.16 130.3 0 0 -9.36c0,-51.75 -29.27,-84.82 -74.95,-84.82 -46.8,0 -77.5,35.33 -77.5,89.34 0,54.84 30.69,88.57 78.81,88.57 37.76,0 66.25,-21.44 71.38,-51.2l-21 0zm194.89 -107.86c31.47,0 52.8,23.26 53.08,57.92l-108.14 0c1.93,-34.66 23.87,-57.92 55.06,-57.92zm51.98 107.86c-5.19,19.12 -23.75,32.35 -49.88,32.35 -34.55,0 -57.15,-24.25 -57.15,-63.71l0 -1.16 130.3 0 0 -9.36c0,-51.75 -29.27,-84.82 -74.95,-84.82 -46.8,0 -77.5,35.33 -77.5,89.34 0,54.84 30.69,88.57 78.81,88.57 37.76,0 66.25,-21.44 71.38,-51.2l-21 0zm186.95 -124.73l-22.26 0 -53.58 151.12 -0.44 0 -53.4 -151.12 -22.44 0 64.87 173.94 22.55 0 64.7 -173.94zm87.08 16.87c31.47,0 52.8,23.26 53.08,57.92l-108.14 0c1.93,-34.66 23.87,-57.92 55.06,-57.92zm51.98 107.86c-5.19,19.12 -23.75,32.35 -49.88,32.35 -34.55,0 -57.15,-24.25 -57.15,-63.71l0 -1.16 130.3 0 0 -9.36c0,-51.75 -29.27,-84.82 -74.95,-84.82 -46.8,0 -77.5,35.33 -77.5,89.34 0,54.84 30.69,88.57 78.81,88.57 37.76,0 66.25,-21.44 71.38,-51.2l-21 0zm52.97 49.22l21.16 0 0 -102.24c0,-32.47 19.73,-54.57 50.82,-54.57 29.6,0 46.41,17.58 46.41,48.28l0 108.52 21.16 0 0 -111.94c0,-39.35 -23.26,-63.93 -61.62,-63.93 -28.16,0 -47.73,12.79 -57.43,34.39l-0.67 0 0 -32.46 -19.84 0 0 173.94zm186.74 -215.56l0 41.62 -24.86 0 0 17.85 24.86 0 0 113.27c0,31.31 11.51,43.75 40.18,43.75 4.52,0 13.88,-0.49 16.14,-1.1l0 -18.3c-1.26,0.16 -9.64,0.67 -11.9,0.67 -16.15,0 -23.26,-7.77 -23.26,-25.86l0 -112.43 34.39 0 0 -17.85 -34.39 0 0 -41.62 -21.16 0zm-6223.44 453.11c31.47,0 52.8,23.26 53.08,57.92l-108.14 0c1.93,-34.66 23.87,-57.92 55.06,-57.92zm51.98 107.86c-5.19,19.12 -23.75,32.35 -49.88,32.35 -34.55,0 -57.15,-24.25 -57.15,-63.71l0 -1.16 130.3 0 0 -9.36c0,-51.75 -29.27,-84.82 -74.95,-84.82 -46.8,0 -77.5,35.33 -77.5,89.34 0,54.84 30.69,88.57 78.81,88.57 37.76,0 66.25,-21.44 71.38,-51.2l-21 0zm52.97 49.22l21.16 0 0 -102.24c0,-32.47 19.73,-54.57 50.82,-54.57 29.6,0 46.41,17.58 46.41,48.28l0 108.52 21.16 0 0 -111.94c0,-39.35 -23.26,-63.93 -61.62,-63.93 -28.16,0 -47.73,12.79 -57.43,34.39l-0.67 0 0 -32.46 -19.84 0 0 173.94zm245.54 -18.52c-33.34,0 -55.5,-27.39 -55.5,-68.89 0,-41.62 22.16,-69.39 55.5,-69.39 33.62,0 56.61,28.22 56.61,69.39 0,40.84 -22.98,68.89 -56.61,68.89zm1.44 78.99c46.63,0 76.33,-23.93 76.33,-63.83l0 -170.58 -20.18 0 0 35.99 -0.33 0c-10.19,-22.71 -32.68,-37.92 -60.51,-37.92 -44.37,0 -73.75,35.39 -73.75,88.46 0,52.64 29.38,88.07 73.25,88.07 27.83,0 50.15,-15.32 59.91,-37.69l0.44 0 0 35.27c0,26.84 -21.49,43.49 -53.84,43.49 -26.08,0 -45.04,-10.36 -49.23,-25.91l-22.1 0c4.3,26.73 31.47,44.65 70,44.65zm114.91 -60.47l21.16 0 0 -107.97c0,-28.11 15.81,-47.45 40.51,-47.45 7.45,0 13.56,1.1 16.48,2.42l0 -20.94c-2.75,-1 -7.94,-1.98 -13.55,-1.98 -21.67,0 -38.14,12.13 -44.09,32.73l-0.67 0 0 -30.75 -19.84 0 0 173.94zm151.62 -16.81c-24.19,0 -40.67,-12.73 -40.67,-31.47 0,-19.56 15.48,-30.86 44.7,-32.79l50.87 -3.53 0 19.18c0,27.45 -23.7,48.61 -54.9,48.61zm-4.19 18.74c26.63,0 50.21,-14.06 59.58,-35.22l0.5 0 0 33.29 20.17 0 0 -118.55c0,-34.99 -25.19,-57.32 -65.09,-57.32 -36.48,0 -63.77,21.66 -65.47,52.2l20.28 0c3.86,-20.67 20.84,-33.13 45.03,-33.13 28.12,0 44.09,14.72 44.09,40.07l0 14.83 -53.46 3.59c-41.67,2.86 -63.6,20.17 -63.6,49.87 0,30.04 23.26,50.38 57.98,50.38zm253.75 -175.87l-22.26 0 -53.58 151.12 -0.44 0 -53.4 -151.12 -22.44 0 64.87 173.94 22.55 0 64.7 -173.94zm23.48 173.94l21.16 0 0 -173.94 -21.16 0 0 173.94zm10.47 -208.33c7.87,0 14.33,-6.61 14.33,-14.33 0,-7.99 -6.46,-14.44 -14.33,-14.44 -7.83,0 -14.44,6.45 -14.44,14.44 0,7.72 6.61,14.33 14.44,14.33zm50.87 208.33l21.16 0 0 -102.24c0,-32.47 19.73,-54.57 50.82,-54.57 29.6,0 46.41,17.58 46.41,48.28l0 108.52 21.16 0 0 -111.94c0,-39.35 -23.26,-63.93 -61.62,-63.93 -28.16,0 -47.73,12.79 -57.43,34.39l-0.67 0 0 -32.46 -19.84 0 0 173.94zm245.54 -18.52c-33.34,0 -55.5,-27.39 -55.5,-68.89 0,-41.62 22.16,-69.39 55.5,-69.39 33.62,0 56.61,28.22 56.61,69.39 0,40.84 -22.98,68.89 -56.61,68.89zm1.44 78.99c46.63,0 76.33,-23.93 76.33,-63.83l0 -170.58 -20.18 0 0 35.99 -0.33 0c-10.19,-22.71 -32.68,-37.92 -60.51,-37.92 -44.37,0 -73.75,35.39 -73.75,88.46 0,52.64 29.38,88.07 73.25,88.07 27.83,0 50.15,-15.32 59.91,-37.69l0.44 0 0 35.27c0,26.84 -21.49,43.49 -53.84,43.49 -26.08,0 -45.04,-10.36 -49.23,-25.91l-22.1 0c4.3,26.73 31.47,44.65 70,44.65zm196.82 -60.47l21.49 0 0 -156.09 35.33 0 0 -17.85 -35.33 0 0 -19.56c0.16,-18.69 7.72,-26.13 23.26,-26.13 4.35,0 9.04,0.5 12.57,1.33l0 -18.14c-4.35,-0.93 -9.04,-1.43 -14.39,-1.43 -28.87,0 -42.93,13.44 -42.93,44.04l0 19.89 -24.19 0 0 17.85 24.19 0 0 156.09zm148.15 1.98c47.9,0 78.92,-34.66 78.92,-88.96 0,-54.29 -31.02,-88.9 -78.92,-88.9 -47.94,0 -78.81,34.61 -78.81,88.9 0,54.29 30.87,88.96 78.81,88.96zm0 -19.18c-35.32,0 -57.32,-26.35 -57.32,-69.78 0,-43.32 22,-69.83 57.32,-69.83 35.44,0 57.43,26.34 57.43,69.83 0,43.43 -21.99,69.78 -57.43,69.78zm108.85 17.19l21.16 0 0 -107.97c0,-28.11 15.81,-47.45 40.51,-47.45 7.45,0 13.56,1.1 16.48,2.42l0 -20.94c-2.75,-1 -7.94,-1.98 -13.55,-1.98 -21.67,0 -38.14,12.13 -44.09,32.73l-0.67 0 0 -30.75 -19.84 0 0 173.94zm258.49 1.98c44.04,0 73.58,-35.66 73.58,-88.96 0,-53.18 -29.54,-88.9 -73.25,-88.9 -27.5,0 -49.87,14.22 -59.91,37.65l-0.44 0 0 -105 -21.16 0 0 243.22 20.17 0 0 -36.81 0.5 0c10.35,24.47 32.68,38.8 60.51,38.8zm-3.59 -158.79c33.35,0 55.67,27.94 55.67,69.83 0,42 -22.33,69.78 -55.84,69.78 -33.28,0 -56.43,-28.61 -56.43,-69.61 0,-41.22 23.15,-70 56.6,-70zm107.09 156.8l21.16 0 0 -107.97c0,-28.11 15.81,-47.45 40.51,-47.45 7.45,0 13.56,1.1 16.48,2.42l0 -20.94c-2.75,-1 -7.94,-1.98 -13.55,-1.98 -21.67,0 -38.14,12.13 -44.09,32.73l-0.67 0 0 -30.75 -19.84 0 0 173.94zm151.62 -16.81c-24.19,0 -40.67,-12.73 -40.67,-31.47 0,-19.56 15.48,-30.86 44.7,-32.79l50.87 -3.53 0 19.18c0,27.45 -23.7,48.61 -54.9,48.61zm-4.19 18.74c26.63,0 50.21,-14.06 59.58,-35.22l0.5 0 0 33.29 20.17 0 0 -118.55c0,-34.99 -25.19,-57.32 -65.09,-57.32 -36.48,0 -63.77,21.66 -65.47,52.2l20.28 0c3.86,-20.67 20.84,-33.13 45.03,-33.13 28.12,0 44.09,14.72 44.09,40.07l0 14.83 -53.46 3.59c-41.67,2.86 -63.6,20.17 -63.6,49.87 0,30.04 23.26,50.38 57.98,50.38zm117.84 -1.93l21.16 0 0 -102.24c0,-32.47 19.73,-54.57 50.82,-54.57 29.6,0 46.41,17.58 46.41,48.28l0 108.52 21.16 0 0 -111.94c0,-39.35 -23.26,-63.93 -61.62,-63.93 -28.16,0 -47.73,12.79 -57.43,34.39l-0.67 0 0 -32.46 -19.84 0 0 173.94zm242.68 1.98c28.33,0 50.43,-15.32 60.46,-38.85l0.5 0 0 36.87 20.33 0 0 -243.22 -21.49 0 0 105 -0.44 0c-9.42,-22.44 -31.69,-37.65 -59.8,-37.65 -43.33,0 -73.69,35.72 -73.69,88.85 0,53.18 30.53,89.01 74.13,89.01zm3.42 -158.79c33.45,0 56.54,28.61 56.54,69.83 0,41.51 -23.09,69.78 -56.54,69.78 -33.29,0 -56.06,-27.78 -56.06,-69.78 0,-41.89 22.77,-69.83 56.06,-69.83zm114.24 29.71c0,22.98 14.88,37.21 44.93,44.81l29.42 7.45c23.6,5.78 32.47,13.88 32.47,28.6 0,18.41 -18.08,30.38 -44.09,30.38 -26.35,0 -43.6,-13.07 -46.19,-32.96l-21.49 0c2.42,29.6 29.05,50.82 66.41,50.82 39.08,0 66.86,-20.29 66.86,-49.65 0,-24.75 -13.17,-37.37 -47.95,-46.08l-26.67 -6.5c-22.22,-5.46 -32.53,-13.73 -32.53,-27.94 0,-17.64 17.42,-29.6 40.74,-29.6 24.57,0 40.56,13.12 42.66,32.79l20.39 0c-1.77,-29.87 -27.17,-50.87 -62.39,-50.87 -35.94,0 -62.56,20 -62.56,48.78zm287.21 110.28c-24.19,0 -40.67,-12.73 -40.67,-31.47 0,-19.56 15.48,-30.86 44.7,-32.79l50.87 -3.53 0 19.18c0,27.45 -23.7,48.61 -54.9,48.61zm-4.19 18.74c26.63,0 50.21,-14.06 59.58,-35.22l0.5 0 0 33.29 20.17 0 0 -118.55c0,-34.99 -25.19,-57.32 -65.09,-57.32 -36.48,0 -63.77,21.66 -65.47,52.2l20.28 0c3.86,-20.67 20.84,-33.13 45.03,-33.13 28.12,0 44.09,14.72 44.09,40.07l0 14.83 -53.46 3.59c-41.67,2.86 -63.6,20.17 -63.6,49.87 0,30.04 23.26,50.38 57.98,50.38zm117.84 -1.93l21.16 0 0 -102.24c0,-32.47 19.73,-54.57 50.82,-54.57 29.6,0 46.41,17.58 46.41,48.28l0 108.52 21.16 0 0 -111.94c0,-39.35 -23.26,-63.93 -61.62,-63.93 -28.16,0 -47.73,12.79 -57.43,34.39l-0.67 0 0 -32.46 -19.84 0 0 173.94zm242.68 1.98c28.33,0 50.43,-15.32 60.46,-38.85l0.5 0 0 36.87 20.33 0 0 -243.22 -21.49 0 0 105 -0.44 0c-9.42,-22.44 -31.69,-37.65 -59.8,-37.65 -43.33,0 -73.69,35.72 -73.69,88.85 0,53.18 30.53,89.01 74.13,89.01zm3.42 -158.79c33.45,0 56.54,28.61 56.54,69.83 0,41.51 -23.09,69.78 -56.54,69.78 -33.29,0 -56.06,-27.78 -56.06,-69.78 0,-41.89 22.77,-69.83 56.06,-69.83zm192.85 156.8l21.16 0 0 -173.94 -21.16 0 0 173.94zm10.47 -208.33c7.87,0 14.33,-6.61 14.33,-14.33 0,-7.99 -6.46,-14.44 -14.33,-14.44 -7.83,0 -14.44,6.45 -14.44,14.44 0,7.72 6.61,14.33 14.44,14.33zm50.87 208.33l21.16 0 0 -102.24c0,-32.47 19.73,-54.57 50.82,-54.57 29.6,0 46.41,17.58 46.41,48.28l0 108.52 21.16 0 0 -111.94c0,-39.35 -23.26,-63.93 -61.62,-63.93 -28.16,0 -47.73,12.79 -57.43,34.39l-0.67 0 0 -32.46 -19.84 0 0 173.94zm242.68 1.98c28.33,0 50.43,-15.32 60.46,-38.85l0.5 0 0 36.87 20.33 0 0 -243.22 -21.49 0 0 105 -0.44 0c-9.42,-22.44 -31.69,-37.65 -59.8,-37.65 -43.33,0 -73.69,35.72 -73.69,88.85 0,53.18 30.53,89.01 74.13,89.01zm3.42 -158.79c33.45,0 56.54,28.61 56.54,69.83 0,41.51 -23.09,69.78 -56.54,69.78 -33.29,0 -56.06,-27.78 -56.06,-69.78 0,-41.89 22.77,-69.83 56.06,-69.83zm119.54 156.8l21.16 0 0 -173.94 -21.16 0 0 173.94zm10.47 -208.33c7.87,0 14.33,-6.61 14.33,-14.33 0,-7.99 -6.46,-14.44 -14.33,-14.44 -7.83,0 -14.44,6.45 -14.44,14.44 0,7.72 6.61,14.33 14.44,14.33zm186.78 34.39l-22.26 0 -53.58 151.12 -0.44 0 -53.4 -151.12 -22.44 0 64.87 173.94 22.55 0 64.7 -173.94zm23.48 173.94l21.16 0 0 -173.94 -21.16 0 0 173.94zm10.47 -208.33c7.87,0 14.33,-6.61 14.33,-14.33 0,-7.99 -6.46,-14.44 -14.33,-14.44 -7.83,0 -14.44,6.45 -14.44,14.44 0,7.72 6.61,14.33 14.44,14.33zm116.4 210.32c28.33,0 50.43,-15.32 60.46,-38.85l0.5 0 0 36.87 20.33 0 0 -243.22 -21.49 0 0 105 -0.44 0c-9.42,-22.44 -31.69,-37.65 -59.8,-37.65 -43.33,0 -73.69,35.72 -73.69,88.85 0,53.18 30.53,89.01 74.13,89.01zm3.42 -158.79c33.45,0 56.54,28.61 56.54,69.83 0,41.51 -23.09,69.78 -56.54,69.78 -33.29,0 -56.06,-27.78 -56.06,-69.78 0,-41.89 22.77,-69.83 56.06,-69.83zm256.78 -17.14l-21.5 0 0 102.29c0,32.96 -20.66,54.46 -51.15,54.46 -29.43,0 -46.07,-17.08 -46.07,-48.12l0 -108.63 -21.16 0 0 112.16c0,39.29 23.26,63.77 61.28,63.77 27.5,0 48.39,-13.22 57.93,-34.5l0.49 0 0 32.51 20.18 0 0 -173.94zm93.8 157.13c-24.19,0 -40.67,-12.73 -40.67,-31.47 0,-19.56 15.48,-30.86 44.7,-32.79l50.87 -3.53 0 19.18c0,27.45 -23.7,48.61 -54.9,48.61zm-4.19 18.74c26.63,0 50.21,-14.06 59.58,-35.22l0.5 0 0 33.29 20.17 0 0 -118.55c0,-34.99 -25.19,-57.32 -65.09,-57.32 -36.48,0 -63.77,21.66 -65.47,52.2l20.28 0c3.86,-20.67 20.84,-33.13 45.03,-33.13 28.12,0 44.09,14.72 44.09,40.07l0 14.83 -53.46 3.59c-41.67,2.86 -63.6,20.17 -63.6,49.87 0,30.04 23.26,50.38 57.98,50.38zm119.5 -1.93l21.16 0 0 -243.17 -21.16 0 0 243.17zm57.7 -127.1c0,22.98 14.88,37.21 44.93,44.81l29.42 7.45c23.6,5.78 32.47,13.88 32.47,28.6 0,18.41 -18.08,30.38 -44.09,30.38 -26.35,0 -43.6,-13.07 -46.19,-32.96l-21.49 0c2.42,29.6 29.05,50.82 66.41,50.82 39.08,0 66.86,-20.29 66.86,-49.65 0,-24.75 -13.17,-37.37 -47.95,-46.08l-26.67 -6.5c-22.22,-5.46 -32.53,-13.73 -32.53,-27.94 0,-17.64 17.42,-29.6 40.74,-29.6 24.57,0 40.56,13.12 42.66,32.79l20.39 0c-1.77,-29.87 -27.17,-50.87 -62.39,-50.87 -35.94,0 -62.56,20 -62.56,48.78zm176.75 128.75c8.72,0 15.33,-6.78 15.33,-15.37 0,-8.72 -6.61,-15.33 -15.33,-15.33 -8.54,0 -15.32,6.61 -15.32,15.33 0,8.6 6.78,15.37 15.32,15.37z"/>
  <rect class="fil5" x="10071.62" y="3480.06" width="4945.13" height="19.25"/>
 </g>
</svg>
