<?xml version="1.0" encoding="UTF-8"?>
<!DOCTYPE svg PUBLIC "-//W3C//DTD SVG 1.1//EN" "http://www.w3.org/Graphics/SVG/1.1/DTD/svg11.dtd">
<!-- Creator: CorelDRAW -->
<svg xmlns="http://www.w3.org/2000/svg" xml:space="preserve" width="162.56mm" height="91.4399mm" version="1.1" style="shape-rendering:geometricPrecision; text-rendering:geometricPrecision; image-rendering:optimizeQuality; fill-rule:evenodd; clip-rule:evenodd"
viewBox="0 0 13722.81 7719.08"
 xmlns:xlink="http://www.w3.org/1999/xlink"
 xmlns:xodm="http://www.corel.com/coreldraw/odm/2003">
 <defs>
  <style type="text/css">
   <![CDATA[
    .fil0 {fill:none}
    .fil2 {fill:#0B6E45}
    .fil3 {fill:#ED3237;fill-rule:nonzero}
    .fil1 {fill:#0B6E45;fill-rule:nonzero}
   ]]>
  </style>
   <clipPath id="id0">
    <path d="M-0 0l13722.81 0 0 7719.08 -13722.81 0 0 -7719.08z"/>
   </clipPath>
 </defs>
 <g id="Layer_x0020_1">
  <metadata id="CorelCorpID_0Corel-Layer"/>
  <g>
  </g>
  <g style="clip-path:url(#id0)">
   <g id="_3027594268576">
    <image x="-253.41" y="-549.2" width="13994.07" height="9329.38" xlink:href="ENGRAVING EXPRESS WEBSITE LANDING PAGE DESIGN 4_Images\ENGRAVING EXPRESS WEBSITE LANDING PAGE DESIGN 4_ImgID1.png"/>
   </g>
  </g>
  <polygon class="fil0" points="-0,0 13722.81,0 13722.81,7719.08 -0,7719.08 "/>
  <path class="fil1" d="M6098.06 1416.85l0 -465.63 -71.99 0 0 465.63 71.99 0zm210.58 3.3c51.52,0 91.58,-23.22 112.28,-62.96l1.32 0 0 59.66 67.7 0 0 -485.88 -69.68 0 0 194.18 -1.54 0c-20.14,-38.75 -60.21,-61.64 -110.74,-61.64 -87.18,0 -146.95,70.67 -146.95,178.21 0,107.77 59.78,178.43 147.61,178.43zm17.84 -297.21c56.25,0 94.12,47.88 94.12,118.88 0,71.33 -37.87,118.88 -94.12,118.88 -56.91,0 -94.12,-46.56 -94.12,-118.88 0,-71.99 37.53,-118.88 94.12,-118.88zm383.39 -3.96c51.08,0 85.64,36.32 87.19,91.15l-177.99 0c3.85,-54.16 40.39,-91.15 90.81,-91.15zm86.86 195.27c-9.69,30.49 -41.61,49.76 -82.34,49.76 -57.57,0 -95.65,-39.84 -95.65,-100.17l0 -4.19 248.33 0 0 -24.43c0,-106.56 -60.65,-173.05 -156.86,-173.05 -98.3,0 -162.15,71 -162.15,181.07 0,109.2 63.19,177.55 165.01,177.55 78.81,0 140.45,-43.91 150.36,-106.55l-66.71 0zm126.14 102.59l70.01 0 0 -202.1c0,-55.15 31.59,-91.91 84.65,-91.91 51.29,0 75.84,29.72 75.84,82.89l0 211.13 70.01 0 0 -224.34c0,-80.58 -44.14,-129.56 -121.64,-129.56 -54.26,0 -89.49,21.58 -110.85,62.86l-1.32 0 0 -59 -66.71 0 0 350.04zm391.31 -428.64l0 78.59 -48.32 0 0 54.82 48.32 0 0 202.98c0,67.58 26.97,94.23 96.76,94.23 15.09,0 31.6,-1.65 39.3,-3.53l0 -54.81c-4.51,0.66 -16.39,1.54 -23.88,1.54 -29.28,0 -42.82,-14.2 -42.82,-44.47l0 -195.93 67.04 0 0 -54.82 -67.04 0 0 -78.59 -69.35 0zm198.25 428.64l70.01 0 0 -350.04 -70.01 0 0 350.04zm35 -400.02c22.57,0 40.95,-18.06 40.95,-40.29 0,-22.89 -18.38,-40.28 -40.95,-40.28 -22.56,0 -40.94,17.39 -40.94,40.28 0,22.24 18.38,40.29 40.94,40.29zm130.22 -28.62l0 78.59 -48.32 0 0 54.82 48.32 0 0 202.98c0,67.58 26.97,94.23 96.76,94.23 15.09,0 31.6,-1.65 39.3,-3.53l0 -54.81c-4.51,0.66 -16.39,1.54 -23.88,1.54 -29.28,0 -42.82,-14.2 -42.82,-44.47l0 -195.93 67.04 0 0 -54.82 -67.04 0 0 -78.59 -69.35 0zm230.73 556.11c71.54,0 104.79,-26.97 134.84,-110.96l131.21 -366.56 -73.53 0 -89.94 286.53 -1.65 0 -89.94 -286.53 -75.18 0 127.03 351.36 -5.39 18.06c-12,37.09 -30.38,51.29 -63.52,51.29 -6.16,0 -17.17,-0.33 -22.35,-1.54l0 56.36c5.5,1 22.67,1.98 28.41,1.98zm309.53 -42.93l46.78 -157.18 -70.01 0 -30.38 157.18 53.6 0zm580.44 -147.17l-223.13 0 0 -144.2 211.25 0 0 -59.88 -211.25 0 0 -136.82 223.13 0 0 -62.09 -295.12 0 0 465.52 295.12 0 0 -62.53zm88.27 -366l0 78.59 -48.32 0 0 54.82 48.32 0 0 202.98c0,67.58 26.97,94.23 96.76,94.23 15.09,0 31.6,-1.65 39.3,-3.53l0 -54.81c-4.51,0.66 -16.39,1.54 -23.88,1.54 -29.28,0 -42.82,-14.2 -42.82,-44.47l0 -195.93 67.04 0 0 -54.82 -67.04 0 0 -78.59 -69.35 0zm486.44 197.81c-6.06,-67.36 -61.54,-123.84 -150.92,-123.84 -98.95,0 -163.79,70.34 -163.79,179.32 0,110.96 65.17,179.31 164.45,179.31 84.21,0 142.88,-48.76 150.92,-121.97l-66.71 0c-8.37,40.95 -38.42,63.19 -83.88,63.19 -56.15,0 -94.12,-45.13 -94.12,-120.53 0,-73.54 37.31,-120.54 93.78,-120.54 48.11,0 77.06,27.96 83.56,65.06l66.71 0zm55.59 230.83l69.9 0 0 -200.45c0,-56.14 32.91,-93.57 87.3,-93.57 51.18,0 77.28,31.59 77.28,83.88l0 210.14 70.01 0 0 -223.68c0,-79.03 -46.13,-130.22 -123.07,-130.22 -53.5,0 -89.6,21.58 -110.51,62.86l-1.54 0 0 -195.16 -69.35 0 0 486.21zm520.33 -297.87c51.08,0 85.64,36.32 87.19,91.15l-177.99 0c3.85,-54.16 40.39,-91.15 90.81,-91.15zm86.86 195.27c-9.69,30.49 -41.61,49.76 -82.34,49.76 -57.57,0 -95.65,-39.84 -95.65,-100.17l0 -4.19 248.33 0 0 -24.43c0,-106.56 -60.65,-173.05 -156.86,-173.05 -98.3,0 -162.15,71 -162.15,181.07 0,109.2 63.19,177.55 165.01,177.55 78.81,0 140.45,-43.91 150.36,-106.55l-66.71 0zm257.9 105.89c51.52,0 91.58,-23.22 112.28,-62.96l1.32 0 0 59.66 67.7 0 0 -485.88 -69.68 0 0 194.18 -1.54 0c-20.14,-38.75 -60.21,-61.64 -110.74,-61.64 -87.18,0 -146.95,70.67 -146.95,178.21 0,107.77 59.78,178.43 147.61,178.43zm17.84 -297.21c56.25,0 94.12,47.88 94.12,118.88 0,71.33 -37.87,118.88 -94.12,118.88 -56.91,0 -94.12,-46.56 -94.12,-118.88 0,-71.99 37.53,-118.88 94.12,-118.88zm468.92 293.91l0 -465.63 -71.99 0 0 465.63 71.99 0zm78.82 0l70.01 0 0 -202.1c0,-55.15 31.59,-91.91 84.65,-91.91 51.29,0 75.84,29.72 75.84,82.89l0 211.13 70.01 0 0 -224.34c0,-80.58 -44.14,-129.56 -121.64,-129.56 -54.26,0 -89.49,21.58 -110.85,62.86l-1.32 0 0 -59 -66.71 0 0 350.04zm719.9 0l0 -403.54 144.75 0 0 -62.09 -361.82 0 0 62.09 145.08 0 0 403.54 71.99 0zm191.2 0l70.01 0 0 -350.04 -70.01 0 0 350.04zm35 -400.02c22.57,0 40.95,-18.06 40.95,-40.29 0,-22.89 -18.38,-40.28 -40.95,-40.28 -22.56,0 -40.94,17.39 -40.94,40.28 0,22.24 18.38,40.29 40.94,40.29zm109.09 400.02l70.01 0 0 -214.65c0,-45.8 30.93,-79.37 74.19,-79.37 41.06,0 67.15,25.87 67.15,66.49l0 227.53 68.69 0 0 -217.29c0,-44.8 30.38,-76.73 73.42,-76.73 43.7,0 68.58,26.53 68.58,72.21l0 221.81 69.35 0 0 -238.54c0,-69.9 -44.91,-115.36 -113.93,-115.36 -50.19,0 -91.58,25.76 -109.97,68.03l-1.65 0c-14.2,-43.59 -49.32,-68.03 -98.08,-68.03 -45.79,0 -83.55,23.78 -99.73,63.19l-1.32 0 0 -59.33 -66.71 0 0 350.04zm707.13 -297.87c51.08,0 85.64,36.32 87.19,91.15l-177.99 0c3.85,-54.16 40.39,-91.15 90.81,-91.15zm86.86 195.27c-9.69,30.49 -41.61,49.76 -82.34,49.76 -57.57,0 -95.65,-39.84 -95.65,-100.17l0 -4.19 248.33 0 0 -24.43c0,-106.56 -60.65,-173.05 -156.86,-173.05 -98.3,0 -162.15,71 -162.15,181.07 0,109.2 63.19,177.55 165.01,177.55 78.81,0 140.45,-43.91 150.36,-106.55l-66.71 0z"/>
  <path class="fil1" d="M9571.74 743.3c48.29,0 82.42,-26.07 90.27,-69.42l-21.11 0c-6.64,30.86 -33.5,49.82 -68.99,49.82 -47.34,0 -77.73,-37.19 -77.73,-95.8 0,-57.88 30.39,-94.75 77.57,-94.75 34.6,0 62.99,22.49 69.15,54.62l21.11 0c-6,-43.5 -43.18,-74.2 -90.27,-74.2 -60.46,0 -99.06,44.56 -99.06,114.33 0,70.51 38.45,115.39 99.06,115.39zm146.95 -3.48l20.23 0 0 -103.17c0,-26.85 15.11,-45.34 38.71,-45.34 7.11,0 12.96,1.06 15.74,2.31l0 -20.01c-2.63,-0.95 -7.58,-1.9 -12.95,-1.9 -20.7,0 -36.44,11.59 -42.13,31.28l-0.63 0 0 -29.39 -18.96 0 0 166.21zm173.02 -16.06c-23.12,0 -38.87,-12.16 -38.87,-30.07 0,-18.7 14.81,-29.5 42.71,-31.34l48.61 -3.37 0 18.33c0,26.23 -22.64,46.45 -52.45,46.45zm-4.01 17.9c25.44,0 47.98,-13.43 56.93,-33.65l0.48 0 0 31.81 19.27 0 0 -113.28c0,-33.45 -24.07,-54.78 -62.2,-54.78 -34.86,0 -60.93,20.7 -62.56,49.87l19.37 0c3.69,-19.75 19.91,-31.65 43.03,-31.65 26.86,0 42.13,14.06 42.13,38.29l0 14.17 -51.08 3.42c-39.82,2.74 -60.78,19.28 -60.78,47.66 0,28.7 22.23,48.13 55.4,48.13zm148.95 -1.84l20.54 0 0 -149.15 33.76 0 0 -17.06 -33.76 0 0 -18.7c0.16,-17.85 7.38,-24.96 22.23,-24.96 4.16,0 8.64,0.47 12.01,1.27l0 -17.33c-4.16,-0.89 -8.64,-1.37 -13.75,-1.37 -27.6,0 -41.03,12.85 -41.03,42.08l0 19.01 -23.11 0 0 17.06 23.11 0 0 149.15zm120.89 -205.97l0 39.76 -23.75 0 0 17.06 23.75 0 0 108.23c0,29.91 11,41.81 38.39,41.81 4.31,0 13.27,-0.47 15.43,-1.06l0 -17.48c-1.22,0.16 -9.22,0.63 -11.38,0.63 -15.43,0 -22.23,-7.43 -22.23,-24.7l0 -107.44 32.86 0 0 -17.06 -32.86 0 0 -39.76 -20.22 0zm171.22 55.88c30.07,0 50.46,22.23 50.72,55.35l-103.33 0c1.84,-33.13 22.8,-55.35 52.61,-55.35zm49.66 103.06c-4.95,18.28 -22.7,30.91 -47.66,30.91 -33.02,0 -54.61,-23.17 -54.61,-60.88l0 -1.11 124.5 0 0 -8.96c0,-49.45 -27.97,-81.05 -71.63,-81.05 -44.71,0 -74.04,33.76 -74.04,85.37 0,52.41 29.33,84.64 75.31,84.64 36.08,0 63.3,-20.49 68.2,-48.93l-20.07 0zm141.37 48.93c27.07,0 48.19,-14.65 57.77,-37.14l0.47 0 0 35.24 19.43 0 0 -232.41 -20.54 0 0 100.32 -0.42 0c-9.01,-21.43 -30.28,-35.97 -57.14,-35.97 -41.4,0 -70.41,34.13 -70.41,84.9 0,50.82 29.17,85.06 70.83,85.06zm3.27 -151.73c31.96,0 54.04,27.33 54.04,66.72 0,39.66 -22.08,66.68 -54.04,66.68 -31.82,0 -53.56,-26.55 -53.56,-66.68 0,-40.02 21.75,-66.72 53.56,-66.72zm335.01 -36.81l1.27 0 54.72 186.65 19.43 0 61.4 -222.78 -22.07 0 -48.88 190.28 -1.11 0 -53.66 -190.28 -20.96 0 -53.82 190.28 -0.95 0 -49.03 -190.28 -21.91 0 61.24 222.73 19.59 0 54.72 -186.6zm191.6 186.65l20.23 0 0 -166.21 -20.23 0 0 166.21zm10.01 -199.07c7.53,0 13.69,-6.32 13.69,-13.69 0,-7.64 -6.16,-13.8 -13.69,-13.8 -7.48,0 -13.8,6.16 -13.8,13.8 0,7.37 6.32,13.69 13.8,13.69zm85.91 -6.9l0 39.76 -23.75 0 0 17.06 23.75 0 0 108.23c0,29.91 11,41.81 38.39,41.81 4.31,0 13.27,-0.47 15.43,-1.06l0 -17.48c-1.22,0.16 -9.22,0.63 -11.38,0.63 -15.43,0 -22.23,-7.43 -22.23,-24.7l0 -107.44 32.86 0 0 -17.06 -32.86 0 0 -39.76 -20.22 0zm112.81 205.97l20.23 0 0 -96.9c0,-31.66 19.59,-52.93 49.71,-52.93 28.44,0 44.77,17.59 44.77,46.61l0 103.23 20.23 0 0 -106.49c0,-37.18 -22.81,-61.57 -59.3,-61.57 -26.7,0 -45.71,12.22 -54.98,32.86l-0.42 0 0 -97.21 -20.23 0 0 232.41zm271.61 -222.72l0 222.72 20.85 0 0 -83.79 57.99 0c42.55,0 71.57,-28.12 71.57,-69.52 0,-41.45 -28.91,-69.41 -71.41,-69.41l-79 0zm20.85 18.85l53.19 0c34.49,0 54.88,18.86 54.88,50.56 0,31.66 -20.54,50.67 -54.88,50.67l-53.19 0 0 -101.22zm320 37.66l-20.54 0 0 97.75c0,31.49 -19.75,52.03 -48.87,52.03 -28.13,0 -44.03,-16.33 -44.03,-45.98l0 -103.8 -20.22 0 0 107.17c0,37.56 22.22,60.94 58.56,60.94 26.28,0 46.24,-12.65 55.35,-32.97l0.47 0 0 31.07 19.27 0 0 -166.21zm64.69 166.21l20.23 0 0 -103.17c0,-26.85 15.11,-45.34 38.71,-45.34 7.11,0 12.96,1.06 15.74,2.31l0 -20.01c-2.63,-0.95 -7.58,-1.9 -12.95,-1.9 -20.7,0 -36.44,11.59 -42.13,31.28l-0.63 0 0 -29.39 -18.96 0 0 166.21zm203.19 -168.06c-26.44,0 -48.87,15.12 -57.67,36.29l-0.47 0 0 -34.44 -19.12 0 0 221.19 20.23 0 0 -89.16 0.42 0c9.32,21.59 30.17,36.08 56.93,36.08 41.92,0 70.3,-34.24 70.3,-85.01 0,-50.66 -28.54,-84.95 -70.62,-84.95zm-3.53 151.63c-31.7,0 -53.66,-27.02 -53.66,-66.68 0,-39.39 21.97,-66.72 53.66,-66.72 32.13,0 53.61,26.86 53.61,66.88 0,39.97 -21.48,66.52 -53.61,66.52zm198.03 18.33c45.77,0 75.42,-33.13 75.42,-85.01 0,-51.87 -29.65,-84.95 -75.42,-84.95 -45.82,0 -75.31,33.07 -75.31,84.95 0,51.87 29.49,85.01 75.31,85.01zm0 -18.33c-33.76,0 -54.77,-25.18 -54.77,-66.68 0,-41.39 21.01,-66.72 54.77,-66.72 33.87,0 54.88,25.17 54.88,66.72 0,41.5 -21.01,66.68 -54.88,66.68zm128.67 -105.01c0,21.96 14.22,35.55 42.93,42.82l28.12 7.11c22.54,5.53 31.02,13.27 31.02,27.33 0,17.58 -17.27,29.01 -42.13,29.01 -25.17,0 -41.66,-12.48 -44.13,-31.49l-20.54 0c2.31,28.28 27.76,48.56 63.46,48.56 37.35,0 63.89,-19.38 63.89,-47.45 0,-23.65 -12.59,-35.71 -45.82,-44.03l-25.49 -6.21c-21.22,-5.22 -31.07,-13.12 -31.07,-26.7 0,-16.86 16.64,-28.28 38.92,-28.28 23.49,0 38.76,12.53 40.76,31.34l19.48 0c-1.68,-28.55 -25.96,-48.62 -59.62,-48.62 -34.33,0 -59.78,19.12 -59.78,46.62zm245.01 -28.65c30.07,0 50.46,22.23 50.72,55.35l-103.33 0c1.84,-33.13 22.8,-55.35 52.61,-55.35zm49.66 103.06c-4.95,18.28 -22.7,30.91 -47.66,30.91 -33.02,0 -54.61,-23.17 -54.61,-60.88l0 -1.11 124.5 0 0 -8.96c0,-49.45 -27.97,-81.05 -71.63,-81.05 -44.71,0 -74.04,33.76 -74.04,85.37 0,52.41 29.33,84.64 75.31,84.64 36.08,0 63.3,-20.49 68.2,-48.93l-20.07 0z"/>
  <rect class="fil2" x="9404.61" y="805.22" width="3374.23" height="14.82"/>
  <path class="fil3" d="M7260.48 1769.04l0 -187.43 -17.54 0 0 187.43 17.54 0zm33.02 0l17.01 0 0 -82.2c0,-26.09 15.86,-43.86 40.86,-43.86 23.79,0 37.3,14.13 37.3,38.81l0 87.24 17.02 0 0 -89.99c0,-31.64 -18.7,-51.4 -49.54,-51.4 -22.64,0 -38.37,10.28 -46.17,27.65l-0.53 0 0 -26.09 -15.95 0 0 139.84zm195.09 1.6c22.78,0 40.55,-12.32 48.61,-31.23l0.41 0 0 29.64 16.34 0 0 -195.54 -17.28 0 0 84.41 -0.35 0c-7.57,-18.03 -25.48,-30.26 -48.08,-30.26 -34.82,0 -59.24,28.71 -59.24,71.43 0,42.76 24.55,71.56 59.59,71.56zm2.75 -127.66c26.9,0 45.46,23 45.46,56.14 0,33.37 -18.56,56.1 -45.46,56.1 -26.76,0 -45.06,-22.33 -45.06,-56.1 0,-33.67 18.3,-56.14 45.06,-56.14zm206.44 -13.78l-17.28 0 0 82.24c0,26.49 -16.62,43.77 -41.12,43.77 -23.66,0 -37.04,-13.73 -37.04,-38.68l0 -87.33 -17.02 0 0 90.17c0,31.59 18.7,51.27 49.27,51.27 22.11,0 38.9,-10.64 46.56,-27.74l0.41 0 0 26.14 16.22 0 0 -139.84zm27.82 37.66c0,18.48 11.96,29.91 36.11,36.02l23.66 5.99c18.96,4.65 26.09,11.17 26.09,23 0,14.8 -14.53,24.41 -35.45,24.41 -21.18,0 -35.04,-10.5 -37.13,-26.49l-17.28 0c1.95,23.79 23.35,40.85 53.39,40.85 31.41,0 53.74,-16.31 53.74,-39.92 0,-19.9 -10.59,-30.04 -38.54,-37.04l-21.44 -5.23c-17.86,-4.38 -26.14,-11.03 -26.14,-22.46 0,-14.17 14,-23.79 32.75,-23.79 19.76,0 32.61,10.54 34.29,26.36l16.39 0c-1.42,-24.02 -21.84,-40.9 -50.15,-40.9 -28.9,0 -50.3,16.08 -50.3,39.21zm135.01 -71.11l0 33.45 -19.98 0 0 14.35 19.98 0 0 91.06c0,25.16 9.26,35.18 32.3,35.18 3.64,0 11.17,-0.4 12.98,-0.89l0 -14.71c-1.02,0.13 -7.75,0.53 -9.57,0.53 -12.97,0 -18.7,-6.25 -18.7,-20.78l0 -90.39 27.65 0 0 -14.35 -27.65 0 0 -33.45 -17.01 0zm69.92 173.29l17.01 0 0 -86.8c0,-22.6 12.72,-38.16 32.57,-38.16 5.99,0 10.9,0.89 13.25,1.95l0 -16.83c-2.21,-0.8 -6.37,-1.6 -10.9,-1.6 -17.42,0 -30.66,9.74 -35.45,26.32l-0.53 0 0 -24.73 -15.95 0 0 139.84zm83.61 0l17.02 0 0 -139.84 -17.02 0 0 139.84zm8.42 -167.49c6.34,0 11.52,-5.31 11.52,-11.51 0,-6.42 -5.18,-11.61 -11.52,-11.61 -6.29,0 -11.61,5.18 -11.61,11.61 0,6.2 5.32,11.51 11.61,11.51zm85.56 153.98c-19.45,0 -32.69,-10.23 -32.69,-25.3 0,-15.73 12.45,-24.81 35.94,-26.36l40.89 -2.84 0 15.42c0,22.07 -19.05,39.08 -44.13,39.08zm-3.36 15.07c21.4,0 40.36,-11.3 47.89,-28.31l0.41 0 0 26.76 16.22 0 0 -95.31c0,-28.14 -20.25,-46.08 -52.33,-46.08 -29.33,0 -51.27,17.42 -52.64,41.96l16.31 0c3.1,-16.62 16.75,-26.63 36.2,-26.63 22.6,0 35.45,11.84 35.45,32.21l0 11.92 -42.98 2.88c-33.5,2.3 -51.13,16.22 -51.13,40.1 0,24.15 18.7,40.5 46.62,40.5zm96.06 -1.55l17.02 0 0 -195.49 -17.02 0 0 195.49zm133.06 -66.24l0 -16.13 -85.08 0 0 16.13 85.08 0zm84.71 51.35c-26.8,0 -44.61,-22.02 -44.61,-55.39 0,-33.45 17.81,-55.78 44.61,-55.78 27.03,0 45.51,22.68 45.51,55.78 0,32.84 -18.48,55.39 -45.51,55.39zm1.16 63.5c37.48,0 61.36,-19.23 61.36,-51.31l0 -137.14 -16.22 0 0 28.93 -0.26 0c-8.2,-18.25 -26.28,-30.48 -48.65,-30.48 -35.67,0 -59.29,28.45 -59.29,71.11 0,42.32 23.61,70.81 58.88,70.81 22.38,0 40.33,-12.32 48.17,-30.31l0.35 0 0 28.36c0,21.58 -17.28,34.96 -43.29,34.96 -20.96,0 -36.2,-8.32 -39.57,-20.83l-17.77 0c3.45,21.49 25.3,35.89 56.27,35.89zm92.39 -48.61l17.01 0 0 -86.8c0,-22.6 12.72,-38.16 32.57,-38.16 5.99,0 10.9,0.89 13.25,1.95l0 -16.83c-2.21,-0.8 -6.37,-1.6 -10.9,-1.6 -17.42,0 -30.66,9.74 -35.45,26.32l-0.53 0 0 -24.73 -15.95 0 0 139.84zm121.89 -13.52c-19.45,0 -32.69,-10.23 -32.69,-25.3 0,-15.73 12.45,-24.81 35.94,-26.36l40.89 -2.84 0 15.42c0,22.07 -19.05,39.08 -44.13,39.08zm-3.36 15.07c21.4,0 40.36,-11.3 47.89,-28.31l0.41 0 0 26.76 16.22 0 0 -95.31c0,-28.14 -20.25,-46.08 -52.33,-46.08 -29.33,0 -51.27,17.42 -52.64,41.96l16.31 0c3.1,-16.62 16.75,-26.63 36.2,-26.63 22.6,0 35.45,11.84 35.45,32.21l0 11.92 -42.98 2.88c-33.5,2.3 -51.13,16.22 -51.13,40.1 0,24.15 18.7,40.5 46.62,40.5zm147.41 0.04c22.78,0 40.55,-12.32 48.61,-31.23l0.41 0 0 29.64 16.34 0 0 -195.54 -17.28 0 0 84.41 -0.35 0c-7.57,-18.03 -25.48,-30.26 -48.08,-30.26 -34.82,0 -59.24,28.71 -59.24,71.43 0,42.76 24.55,71.56 59.59,71.56zm2.75 -127.66c26.9,0 45.46,23 45.46,56.14 0,33.37 -18.56,56.1 -45.46,56.1 -26.76,0 -45.06,-22.33 -45.06,-56.1 0,-33.67 18.3,-56.14 45.06,-56.14zm149.94 -0.22c25.3,0 42.45,18.7 42.67,46.56l-86.93 0c1.55,-27.87 19.19,-46.56 44.26,-46.56zm41.79 86.71c-4.16,15.37 -19.1,26.01 -40.1,26.01 -27.78,0 -45.95,-19.5 -45.95,-51.22l0 -0.93 104.74 0 0 -7.53c0,-41.61 -23.53,-68.19 -60.26,-68.19 -37.62,0 -62.3,28.4 -62.3,71.82 0,44.09 24.68,71.21 63.36,71.21 30.35,0 53.26,-17.24 57.38,-41.16l-16.88 0zm156.68 -86.71c25.3,0 42.45,18.7 42.67,46.56l-86.93 0c1.55,-27.87 19.19,-46.56 44.26,-46.56zm41.79 86.71c-4.16,15.37 -19.1,26.01 -40.1,26.01 -27.78,0 -45.95,-19.5 -45.95,-51.22l0 -0.93 104.74 0 0 -7.53c0,-41.61 -23.53,-68.19 -60.26,-68.19 -37.62,0 -62.3,28.4 -62.3,71.82 0,44.09 24.68,71.21 63.36,71.21 30.35,0 53.26,-17.24 57.38,-41.16l-16.88 0zm42.59 39.57l17.01 0 0 -82.2c0,-26.09 15.86,-43.86 40.86,-43.86 23.79,0 37.3,14.13 37.3,38.81l0 87.24 17.02 0 0 -89.99c0,-31.64 -18.7,-51.4 -49.54,-51.4 -22.64,0 -38.37,10.28 -46.17,27.65l-0.53 0 0 -26.09 -15.95 0 0 139.84zm197.39 -14.89c-26.8,0 -44.61,-22.02 -44.61,-55.39 0,-33.45 17.81,-55.78 44.61,-55.78 27.03,0 45.51,22.68 45.51,55.78 0,32.84 -18.48,55.39 -45.51,55.39zm1.16 63.5c37.48,0 61.36,-19.23 61.36,-51.31l0 -137.14 -16.22 0 0 28.93 -0.26 0c-8.2,-18.25 -26.28,-30.48 -48.65,-30.48 -35.67,0 -59.29,28.45 -59.29,71.11 0,42.32 23.61,70.81 58.88,70.81 22.38,0 40.33,-12.32 48.17,-30.31l0.35 0 0 28.36c0,21.58 -17.28,34.96 -43.29,34.96 -20.96,0 -36.2,-8.32 -39.57,-20.83l-17.77 0c3.45,21.49 25.3,35.89 56.27,35.89zm92.39 -48.61l17.01 0 0 -86.8c0,-22.6 12.72,-38.16 32.57,-38.16 5.99,0 10.9,0.89 13.25,1.95l0 -16.83c-2.21,-0.8 -6.37,-1.6 -10.9,-1.6 -17.42,0 -30.66,9.74 -35.45,26.32l-0.53 0 0 -24.73 -15.95 0 0 139.84zm121.89 -13.52c-19.45,0 -32.69,-10.23 -32.69,-25.3 0,-15.73 12.45,-24.81 35.94,-26.36l40.89 -2.84 0 15.42c0,22.07 -19.05,39.08 -44.13,39.08zm-3.36 15.07c21.4,0 40.36,-11.3 47.89,-28.31l0.41 0 0 26.76 16.22 0 0 -95.31c0,-28.14 -20.25,-46.08 -52.33,-46.08 -29.33,0 -51.27,17.42 -52.64,41.96l16.31 0c3.1,-16.62 16.75,-26.63 36.2,-26.63 22.6,0 35.45,11.84 35.45,32.21l0 11.92 -42.98 2.88c-33.5,2.3 -51.13,16.22 -51.13,40.1 0,24.15 18.7,40.5 46.62,40.5zm203.99 -141.39l-17.9 0 -43.07 121.49 -0.35 0 -42.93 -121.49 -18.04 0 52.15 139.84 18.12 0 52.02 -139.84zm18.88 139.84l17.02 0 0 -139.84 -17.02 0 0 139.84zm8.42 -167.49c6.34,0 11.52,-5.31 11.52,-11.51 0,-6.42 -5.18,-11.61 -11.52,-11.61 -6.29,0 -11.61,5.18 -11.61,11.61 0,6.2 5.32,11.51 11.61,11.51zm40.9 167.49l17.01 0 0 -82.2c0,-26.09 15.86,-43.86 40.86,-43.86 23.79,0 37.3,14.13 37.3,38.81l0 87.24 17.02 0 0 -89.99c0,-31.64 -18.7,-51.4 -49.54,-51.4 -22.64,0 -38.37,10.28 -46.17,27.65l-0.53 0 0 -26.09 -15.95 0 0 139.84zm197.39 -14.89c-26.8,0 -44.61,-22.02 -44.61,-55.39 0,-33.45 17.81,-55.78 44.61,-55.78 27.03,0 45.51,22.68 45.51,55.78 0,32.84 -18.48,55.39 -45.51,55.39zm1.16 63.5c37.48,0 61.36,-19.23 61.36,-51.31l0 -137.14 -16.22 0 0 28.93 -0.26 0c-8.2,-18.25 -26.28,-30.48 -48.65,-30.48 -35.67,0 -59.29,28.45 -59.29,71.11 0,42.32 23.61,70.81 58.88,70.81 22.38,0 40.33,-12.32 48.17,-30.31l0.35 0 0 28.36c0,21.58 -17.28,34.96 -43.29,34.96 -20.96,0 -36.2,-8.32 -39.57,-20.83l-17.77 0c3.45,21.49 25.3,35.89 56.27,35.89zm324.87 -188.44l-17.28 0 -31.63 120.43 -0.41 0 -35.18 -120.43 -17.42 0 -35.05 120.43 -0.4 0 -31.64 -120.43 -17.28 0 39.84 139.84 18.07 0 35.05 -116.44 0.35 0 35.05 116.44 18.08 0 39.83 -139.84zm19.5 139.84l17.02 0 0 -139.84 -17.02 0 0 139.84zm8.42 -167.49c6.34,0 11.52,-5.31 11.52,-11.51 0,-6.42 -5.18,-11.61 -11.52,-11.61 -6.29,0 -11.61,5.18 -11.61,11.61 0,6.2 5.32,11.51 11.61,11.51zm48.61 -5.8l0 33.45 -19.98 0 0 14.35 19.98 0 0 91.06c0,25.16 9.26,35.18 32.3,35.18 3.64,0 11.17,-0.4 12.98,-0.89l0 -14.71c-1.02,0.13 -7.75,0.53 -9.57,0.53 -12.97,0 -18.7,-6.25 -18.7,-20.78l0 -90.39 27.65 0 0 -14.35 -27.65 0 0 -33.45 -17.01 0zm71.25 173.29l17.02 0 0 -81.53c0,-26.63 16.48,-44.53 41.83,-44.53 23.92,0 37.66,14.8 37.66,39.21l0 86.85 17.02 0 0 -89.59c0,-31.28 -19.19,-51.8 -49.9,-51.8 -22.46,0 -38.46,10.28 -46.25,27.65l-0.35 0 0 -81.79 -17.02 0 0 195.54zm202.72 0l17.01 0 0 -86.8c0,-22.6 12.72,-38.16 32.57,-38.16 5.99,0 10.9,0.89 13.25,1.95l0 -16.83c-2.21,-0.8 -6.37,-1.6 -10.9,-1.6 -17.42,0 -30.66,9.74 -35.45,26.32l-0.53 0 0 -24.73 -15.95 0 0 139.84zm129.42 -126.28c25.3,0 42.45,18.7 42.67,46.56l-86.93 0c1.55,-27.87 19.19,-46.56 44.26,-46.56zm41.79 86.71c-4.16,15.37 -19.1,26.01 -40.1,26.01 -27.78,0 -45.95,-19.5 -45.95,-51.22l0 -0.93 104.74 0 0 -7.53c0,-41.61 -23.53,-68.19 -60.26,-68.19 -37.62,0 -62.3,28.4 -62.3,71.82 0,44.09 24.68,71.21 63.36,71.21 30.35,0 53.26,-17.24 57.38,-41.16l-16.88 0zm120.48 39.57l17.02 0 0 -139.84 -17.02 0 0 139.84zm8.42 -167.49c6.34,0 11.52,-5.31 11.52,-11.51 0,-6.42 -5.18,-11.61 -11.52,-11.61 -6.29,0 -11.61,5.18 -11.61,11.61 0,6.2 5.32,11.51 11.61,11.51zm-79.4 167.49l17.28 0 0 -125.49 28.54 0 0 -14.35 -28.54 0 0 -15.74c0.14,-15.02 6.26,-21 18.79,-21 3.5,0 7.27,0.41 10.15,1.06l0 -14.57c-3.5,-0.76 -7.31,-1.16 -11.61,-1.16 -23.31,0 -34.61,10.81 -34.61,35.4l0 16 -19.45 0 0 14.35 19.45 0 0 125.49zm120.18 0l17.01 0 0 -82.2c0,-26.09 15.86,-43.86 40.86,-43.86 23.79,0 37.3,14.13 37.3,38.81l0 87.24 17.02 0 0 -89.99c0,-31.64 -18.7,-51.4 -49.54,-51.4 -22.64,0 -38.37,10.28 -46.17,27.65l-0.53 0 0 -26.09 -15.95 0 0 139.84zm197.57 -126.28c25.3,0 42.45,18.7 42.67,46.56l-86.93 0c1.55,-27.87 19.19,-46.56 44.26,-46.56zm41.79 86.71c-4.16,15.37 -19.1,26.01 -40.1,26.01 -27.78,0 -45.95,-19.5 -45.95,-51.22l0 -0.93 104.74 0 0 -7.53c0,-41.61 -23.53,-68.19 -60.26,-68.19 -37.62,0 -62.3,28.4 -62.3,71.82 0,44.09 24.68,71.21 63.36,71.21 30.35,0 53.26,-17.24 57.38,-41.16l-16.88 0zm95.26 41.16c22.78,0 40.55,-12.32 48.61,-31.23l0.41 0 0 29.64 16.34 0 0 -195.54 -17.28 0 0 84.41 -0.35 0c-7.57,-18.03 -25.48,-30.26 -48.08,-30.26 -34.82,0 -59.24,28.71 -59.24,71.43 0,42.76 24.55,71.56 59.59,71.56zm2.75 -127.66c26.9,0 45.46,23 45.46,56.14 0,33.37 -18.56,56.1 -45.46,56.1 -26.76,0 -45.06,-22.33 -45.06,-56.1 0,-33.67 18.3,-56.14 45.06,-56.14zm198.37 112.54c-19.45,0 -32.69,-10.23 -32.69,-25.3 0,-15.73 12.45,-24.81 35.94,-26.36l40.89 -2.84 0 15.42c0,22.07 -19.05,39.08 -44.13,39.08zm-3.36 15.07c21.4,0 40.36,-11.3 47.89,-28.31l0.41 0 0 26.76 16.22 0 0 -95.31c0,-28.14 -20.25,-46.08 -52.33,-46.08 -29.33,0 -51.27,17.42 -52.64,41.96l16.31 0c3.1,-16.62 16.75,-26.63 36.2,-26.63 22.6,0 35.45,11.84 35.45,32.21l0 11.92 -42.98 2.88c-33.5,2.3 -51.13,16.22 -51.13,40.1 0,24.15 18.7,40.5 46.62,40.5zm149.89 -127.83c25.3,0 42.45,18.7 42.67,46.56l-86.93 0c1.55,-27.87 19.19,-46.56 44.26,-46.56zm41.79 86.71c-4.16,15.37 -19.1,26.01 -40.1,26.01 -27.78,0 -45.95,-19.5 -45.95,-51.22l0 -0.93 104.74 0 0 -7.53c0,-41.61 -23.53,-68.19 -60.26,-68.19 -37.62,0 -62.3,28.4 -62.3,71.82 0,44.09 24.68,71.21 63.36,71.21 30.35,0 53.26,-17.24 57.38,-41.16l-16.88 0zm39.66 -62.61c0,18.48 11.96,29.91 36.11,36.02l23.66 5.99c18.96,4.65 26.09,11.17 26.09,23 0,14.8 -14.53,24.41 -35.45,24.41 -21.18,0 -35.04,-10.5 -37.13,-26.49l-17.28 0c1.95,23.79 23.35,40.85 53.39,40.85 31.41,0 53.74,-16.31 53.74,-39.92 0,-19.9 -10.59,-30.04 -38.54,-37.04l-21.44 -5.23c-17.86,-4.38 -26.14,-11.03 -26.14,-22.46 0,-14.17 14,-23.79 32.75,-23.79 19.76,0 32.61,10.54 34.29,26.36l16.39 0c-1.42,-24.02 -21.84,-40.9 -50.15,-40.9 -28.9,0 -50.3,16.08 -50.3,39.21zm135.01 -71.11l0 33.45 -19.98 0 0 14.35 19.98 0 0 91.06c0,25.16 9.26,35.18 32.3,35.18 3.64,0 11.17,-0.4 12.98,-0.89l0 -14.71c-1.02,0.13 -7.75,0.53 -9.57,0.53 -12.97,0 -18.7,-6.25 -18.7,-20.78l0 -90.39 27.65 0 0 -14.35 -27.65 0 0 -33.45 -17.01 0zm71.25 173.29l17.02 0 0 -81.53c0,-26.63 16.48,-44.53 41.83,-44.53 23.92,0 37.66,14.8 37.66,39.21l0 86.85 17.02 0 0 -89.59c0,-31.28 -19.19,-51.8 -49.9,-51.8 -22.46,0 -38.46,10.28 -46.25,27.65l-0.35 0 0 -81.79 -17.02 0 0 195.54zm198.95 -126.28c25.3,0 42.45,18.7 42.67,46.56l-86.93 0c1.55,-27.87 19.19,-46.56 44.26,-46.56zm41.79 86.71c-4.16,15.37 -19.1,26.01 -40.1,26.01 -27.78,0 -45.95,-19.5 -45.95,-51.22l0 -0.93 104.74 0 0 -7.53c0,-41.61 -23.53,-68.19 -60.26,-68.19 -37.62,0 -62.3,28.4 -62.3,71.82 0,44.09 24.68,71.21 63.36,71.21 30.35,0 53.26,-17.24 57.38,-41.16l-16.88 0zm50.3 -133.72l0 33.45 -19.98 0 0 14.35 19.98 0 0 91.06c0,25.16 9.26,35.18 32.3,35.18 3.64,0 11.17,-0.4 12.98,-0.89l0 -14.71c-1.02,0.13 -7.75,0.53 -9.57,0.53 -12.97,0 -18.7,-6.25 -18.7,-20.78l0 -90.39 27.65 0 0 -14.35 -27.65 0 0 -33.45 -17.01 0zm71.25 173.29l17.02 0 0 -139.84 -17.02 0 0 139.84zm8.42 -167.49c6.34,0 11.52,-5.31 11.52,-11.51 0,-6.42 -5.18,-11.61 -11.52,-11.61 -6.29,0 -11.61,5.18 -11.61,11.61 0,6.2 5.32,11.51 11.61,11.51zm154.06 71.7c-3.37,-24.68 -24.81,-45.59 -57.51,-45.59 -37.89,0 -62.56,28.18 -62.56,71.47 0,44.18 24.81,71.52 62.83,71.52 30.88,0 53.34,-18.26 57.38,-44.62l-17.02 0c-4.03,18.3 -18.96,29.2 -40.36,29.2 -27.38,0 -45.55,-21.4 -45.55,-56.1 0,-34.03 18.03,-56.14 45.42,-56.14 22.33,0 37,13.12 40.37,30.26l17.01 0zm19.67 -6.38c0,18.48 11.96,29.91 36.11,36.02l23.66 5.99c18.96,4.65 26.09,11.17 26.09,23 0,14.8 -14.53,24.41 -35.45,24.41 -21.18,0 -35.04,-10.5 -37.13,-26.49l-17.28 0c1.95,23.79 23.35,40.85 53.39,40.85 31.41,0 53.74,-16.31 53.74,-39.92 0,-19.9 -10.59,-30.04 -38.54,-37.04l-21.44 -5.23c-17.86,-4.38 -26.14,-11.03 -26.14,-22.46 0,-14.17 14,-23.79 32.75,-23.79 19.76,0 32.61,10.54 34.29,26.36l16.39 0c-1.42,-24.02 -21.84,-40.9 -50.15,-40.9 -28.9,0 -50.3,16.08 -50.3,39.21zm142.1 103.5c7,0 12.32,-5.44 12.32,-12.36 0,-7 -5.32,-12.32 -12.32,-12.32 -6.87,0 -12.32,5.32 -12.32,12.32 0,6.91 5.44,12.36 12.32,12.36z"/>
 </g>
</svg>
